<mxfile host="65bd71144e">
    <diagram id="JKXSOj9Me-gMA35jXbLU" name="第 1 页">
        <mxGraphModel dx="681" dy="727" grid="1" gridSize="10" guides="1" tooltips="1" connect="1" arrows="1" fold="1" page="1" pageScale="1" pageWidth="827" pageHeight="1169" math="0" shadow="0">
            <root>
                <mxCell id="0"/>
                <mxCell id="1" parent="0"/>
                <mxCell id="2" value="哈希表相关概念" style="whiteSpace=wrap;html=1;fillColor=#d80073;fontColor=#ffffff;strokeColor=none;sketch=1;curveFitting=1;jiggle=2;" vertex="1" parent="1">
                    <mxGeometry y="585" width="110" height="60" as="geometry"/>
                </mxCell>
                <mxCell id="5" value="&lt;div class=&quot;lake-content&quot;&gt;&lt;p style=&quot;margin: 0; padding: 0; min-height: 24px&quot; class=&quot;ne-p&quot; id=&quot;u8184e4dd&quot;&gt;&lt;br&gt;&lt;/p&gt;&lt;/div&gt;" style="text;strokeColor=none;align=left;fillColor=none;html=1;verticalAlign=middle;whiteSpace=wrap;rounded=0;sketch=1;fontStyle=0" vertex="1" parent="1">
                    <mxGeometry x="30" y="420" width="520" height="30" as="geometry"/>
                </mxCell>
                <mxCell id="20" value="&lt;div class=&quot;lake-content&quot;&gt;&lt;ul style=&quot;margin: 0; padding-left: 23px&quot; class=&quot;ne-ul&quot;&gt;&lt;li data-lake-index-type=&quot;0&quot; id=&quot;u930907ee&quot;&gt;&lt;span style=&quot;&quot; class=&quot;ne-text&quot;&gt;&lt;font color=&quot;#000000&quot;&gt;哈希化：将大数字转化成数组范围内小表的过程称为哈希化&lt;/font&gt;&lt;/span&gt;&lt;/li&gt;&lt;li data-lake-index-type=&quot;0&quot; id=&quot;ud3ea2fa7&quot;&gt;&lt;span style=&quot;&quot; class=&quot;ne-text&quot;&gt;&lt;font color=&quot;#000000&quot;&gt;哈希函数：通常我们会将单词转成大数字，大数字再进行哈希化的代码实现放在一个函数中，这个函数称为哈希函数&lt;/font&gt;&lt;/span&gt;&lt;/li&gt;&lt;li data-lake-index-type=&quot;0&quot; id=&quot;u86688d96&quot;&gt;&lt;span style=&quot;&quot; class=&quot;ne-text&quot;&gt;&lt;font color=&quot;#000000&quot;&gt;哈希表：最终将数据插入到这个数组，对整个结构的封装称为是一个哈希表&lt;/font&gt;&lt;/span&gt;&lt;/li&gt;&lt;/ul&gt;&lt;/div&gt;" style="whiteSpace=wrap;html=1;fillColor=#b1ddf0;strokeColor=#10739e;align=left;" vertex="1" parent="1">
                    <mxGeometry x="40" y="660" width="540" height="200" as="geometry"/>
                </mxCell>
                <mxCell id="21" value="哈希表结构特点" style="whiteSpace=wrap;html=1;fillColor=#d80073;fontColor=#ffffff;strokeColor=none;sketch=1;curveFitting=1;jiggle=2;" vertex="1" parent="1">
                    <mxGeometry x="10" y="20" width="110" height="60" as="geometry"/>
                </mxCell>
                <mxCell id="22" value="&lt;div class=&quot;lake-content&quot;&gt;&lt;p style=&quot;margin: 0; padding: 0; min-height: 24px&quot; class=&quot;ne-p&quot; id=&quot;ucb3b1f05&quot;&gt;&lt;span class=&quot;ne-text&quot;&gt;&lt;font color=&quot;#ffffff&quot;&gt;哈希表通常是基于数组来实现的，但是相比数组，它有很多优势：&lt;/font&gt;&lt;/span&gt;&lt;/p&gt;&lt;p style=&quot;margin: 0; padding: 0; min-height: 24px&quot; class=&quot;ne-p&quot; id=&quot;ucb3b1f05&quot;&gt;&lt;span style=&quot;color: rgb(255, 255, 255); background-color: initial;&quot;&gt;- 它提供了非常快速的插入、删除、查找操作，无论多少数据插入和删除的时间复杂度接近O(1)。&lt;/span&gt;&lt;/p&gt;&lt;p style=&quot;margin: 0; padding: 0; min-height: 24px&quot; class=&quot;ne-p&quot; id=&quot;ucb3b1f05&quot;&gt;&lt;span style=&quot;color: rgb(255, 255, 255); background-color: initial;&quot;&gt;- 它的查找速度比树还快，基本可以瞬间找到想要的元素&lt;/span&gt;&lt;/p&gt;&lt;p style=&quot;margin: 0; padding: 0; min-height: 24px&quot; class=&quot;ne-p&quot; id=&quot;u6e2cc44b&quot;&gt;&lt;span class=&quot;ne-text&quot;&gt;&lt;font color=&quot;#ffffff&quot;&gt;但是它相对于数组来说也有一些不足：&lt;/font&gt;&lt;/span&gt;&lt;/p&gt;&lt;p style=&quot;margin: 0; padding: 0; min-height: 24px&quot; class=&quot;ne-p&quot; id=&quot;u6e2cc44b&quot;&gt;&lt;span style=&quot;color: rgb(255, 255, 255); background-color: initial;&quot;&gt;- 没有特殊处理的情况下，哈希表中的数据是没有顺序的，所以不能以一种固定的方式来遍历元素&lt;/span&gt;&lt;/p&gt;&lt;p style=&quot;margin: 0; padding: 0; min-height: 24px&quot; class=&quot;ne-p&quot; id=&quot;u6e2cc44b&quot;&gt;&lt;span style=&quot;color: rgb(255, 255, 255); background-color: initial;&quot;&gt;= 通常情况下，哈希表中的key不允许重复，不能放置相同的key用户保存不同的元素&lt;/span&gt;&lt;/p&gt;&lt;p style=&quot;margin: 0; padding: 0; min-height: 24px&quot; class=&quot;ne-p&quot; id=&quot;u941ac98f&quot;&gt;&lt;font color=&quot;#ffffff&quot;&gt;&lt;span class=&quot;ne-text&quot;&gt;&lt;/span&gt;&lt;/font&gt;&lt;/p&gt;&lt;p style=&quot;margin: 0; padding: 0; min-height: 24px&quot; class=&quot;ne-p&quot; id=&quot;u0e095d91&quot;&gt;&lt;span class=&quot;ne-text&quot;&gt;&lt;font color=&quot;#ffffff&quot;&gt;那什么是哈希表呢？&lt;/font&gt;&lt;/span&gt;&lt;/p&gt;&lt;p style=&quot;margin: 0; padding: 0; min-height: 24px&quot; class=&quot;ne-p&quot; id=&quot;u3838716f&quot;&gt;&lt;span class=&quot;ne-text&quot;&gt;&lt;font color=&quot;#ffffff&quot;&gt;比如我们想在一个数组中快速找到一个人名，人名都是字符串没有特定的顺序是很难快速找到的，只能通过遍历一个个去找。复杂度是O(n)。&lt;/font&gt;&lt;/span&gt;&lt;/p&gt;&lt;p style=&quot;margin: 0; padding: 0; min-height: 24px&quot; class=&quot;ne-p&quot; id=&quot;udc567d32&quot;&gt;&lt;span class=&quot;ne-text&quot;&gt;&lt;font color=&quot;#ffffff&quot;&gt;如果用哈希表的话，可以通过一个hash function函数做一个映射快速找到该名字对应的位置，如图：&lt;/font&gt;&lt;/span&gt;&lt;/p&gt;&lt;/div&gt;" style="text;strokeColor=none;align=left;fillColor=none;html=1;verticalAlign=middle;whiteSpace=wrap;rounded=0;labelBackgroundColor=none;fontColor=#000000;" vertex="1" parent="1">
                    <mxGeometry x="40" y="130" width="530" height="170" as="geometry"/>
                </mxCell>
                <mxCell id="23" value="" style="shape=image;verticalLabelPosition=bottom;labelBackgroundColor=default;verticalAlign=top;aspect=fixed;imageAspect=0;image=data:image/png,iVBORw0KGgoAAAANSUhEUgAAA8AAAAIkCAYAAADRdEK7AAAACXBIWXMAABYlAAAWJQFJUiTwAAAgAElEQVR4nOzdd3wUdeI//tf2bMqm92w6gRRK6AkdlbMgemI5QfEUu2c9PfUhenYOsXCe7c7TU0HsfpEDTwSVIiWBACH0QDopG5ItyWb7zu8PPjs/lt2EgKGEfT0fDx4PnZ2dfe9kdmZe824SQRAEEBEREREREV3gpOe6AERERERERERnAwMwERERERERBQQGYCIiIiIiIgoIDMBEREREREQUEBiAiYiIiIiIKCAwABMREREREVFAYAAmIiIiIiKigMAATERERERERAGBAZiIiIiIiIgCAgMwERERERERBQQGYCIiIiIiIgoIDMBEREREREQUEBiAiYiIiIiIKCAwABMREREREVFAYAAmIiIiIiKigMAATERERERERAGBAZiIiIiIiIgCAgMwERERERERBQQGYCIiIiIiIgoIDMBEREREREQUEBiAiYiIiIiIKCAwABMREREREVFAYAAmIiIiIiKigMAATERERERERAGBAZiIiIiIiIgCAgMwERERERERBQQGYCIiIiIiIgoIDMBEREREREQUEBiAiYiIiIiIKCAwABMREREREVFAYAAmIiIiIiKigMAATERERERERAGBAZiIiIiIiIgCAgMwERERERERBQQGYCIiIiIiIgoIDMBEREREREQUEBiAiYiIiIiIKCAwABMREREREVFAYAAmIiIiIiKigMAATERERERERAGBAZiIiIiIiIgCAgMwERERERERBQQGYCIiIiIiIgoIDMBEREREREQUEBiAiYiIiIiIKCAwABMREREREVFAYAAmIiIiIiKigMAATERERERERAGBAZiIiIiIiIgCAgMwERERERERBQQGYCIiIiIiIgoIDMBEREREREQUEBiAiYiIiIiIKCDIz3UBiIioexaLBQcPHoTVavVarlAokJeXh6CgoHNUsnPDYrGgpqYGJpPJa7lKpUJ2djZCQ0PPUcmIiIioP2AAJiI6j7W0tOD1119HbW2t1/KYmBi8/vrrSE1NPUclOzd0Oh3+9a9/YceOHV7Lk5KSMG/ePOTl5Z2jkhEREVF/wABMRHQeM5vN2Lp1K/bt2+e1PDk5GRaL5RyV6tzp6urCzp07sW7dOq/lmZmZPrXCRERERCdiH2AiIiIiIiIKCAzAREREREREFBAYgImIiIiIiCggMAATERERERFRQOAgWERE/Zzb7UZraysOHDiAlpYWuN1uREREIDs7G6mpqVAoFL3eTkdHBxobG6HT6WAwGGCxWOBwOCCXyxEcHIy4uDgkJycjOTkZMpms12UUBAFGoxE1NTVoampCZ2cnHA4HpFIpQkJCEBkZicTERCQmJkKtVkMikZzu7gAAtLa2Yv/+/WhqaoLL5UJERAQyMzORnp4OlUr1m7ZNRERE/RcDMBFRPyUIAo4ePYrvvvsOn3zyCfbt2wej0Qi3242QkBBotVpcf/31mDt3LhITE7sNlTqdDuvWrcPq1auxZ88etLS0wGQywWw2w263w+VyQSqVIigoCBqNBrGxsRg9ejRuuOEGFBcXnzSwNjc347PPPsM333yDhoYG6PV6WCwWcbsqlQqhoaGIjIxEfHw8ioqKMHXqVEyZMgVy+aldpgwGA1auXIl33nkHhw4dgl6vF/dHSkoKpk+fjrvvvhtpaWmQStkIioiIKNAwABMR9UMulwsHDx7EwoUL8dlnn/lMiWQ0GmE0GrFnzx4cPHgQL7/8MrRard9trVmzBvfeey+MRmOPn2c2m2E2m9HU1ISKigosX74cs2fPxn333YfMzEyfEOx2u1FWVob7778fJSUlfrfrdrvhdDphNpvR0tKC/fv3Y926dXjrrbdQW1uLqKioXu0PQRBQXV2Nf/3rX/jyyy9hNpu9XjeZTNi7dy+qqqpQWVmJp59+GsOGDfvNNc1ERETUvzAAExH1Q0ajEQsWLMC2bdtgt9u7XU8QBHz77bfIycnBk08+eco1qj1tV6fT4eOPP4ZEIsHDDz+MlJQUr3Wam5vx5JNPYuvWrX3ymT1pa2vDggULUFVV5RN+j2e1WvHjjz8iOzsbGRkZiIiIOONlIyIiovMHAzARUT9ksViwadMmSCQSKJVKKBQKCIIAu90Op9PptW5XVxc+/PBD3HPPPYiJifG7Pc92goODERoaCrVaDYVCAalUCrfbDbvdDpPJBL1eD4fDIb5Pr9dj5cqVGDlyJGbOnAmlUim+9uuvv2LLli1wu93iMqlUivDwcERFRSEoKAgA4HA4YLVaYTab0dXVBZvNdsr7w2Qyoby83Gt/AIDNZvPZH2azGRs2bMCOHTswadIkNoUmIiIKIAzARET9lFQqRWxsLEaMGIG0tDQ4HA6Ul5dj9+7dPk2ia2trsXXrVlx22WU+21EqlUhLS4NWq0VhYSGGDBmCrKwsREVFQa1Ww2azoampCdu2bcPnn3+OkpISsdZZEAQcPnwYJSUluOiiixAXFydut6SkxCd8RkZG4q677sL06dORlpYG4FiIrqurQ0VFBfbs2YOKigocPXr0tJonx8bGorCwENnZ2RAEATt37kRZWZlPqK6vr8fu3bsxevRohISEnPLnEBERUf/EAExE1A9JJBLExcXhlltuwR//+EcxAK9evRqvvvoqtm3b5hU+BUHAtm3b/AbggQMH4rHHHsOoUaOQlpbmd5RkrVYrBu0HHngAVVVV4mtOpxOVlZVobm72CsAGg8Gr9hc4FlDnzp2LzMxMcVlSUhLy8/Mxbdo0tLW1Yffu3SgpKRFriHsrKioKt956K2666SYMGDAAgiCgpKQETz75JDZv3uy1rslkQmNjI7q6uhiAiYiIAggDMBFRP6RQKDBmzBjcd9994uBWarUakyZNwsaNG7F3716YTCav99TU1PjdVkFBAQoKCuB2u9HV1YXGxkbo9XqYzWY4HA64XC5xXaPRiODgYJ9tNDc3o62tzWtZWFiYTy1uR0cH1q9fD6vViri4OISEhEChUEAikUAqlSIuLg5Tp07F5MmTT6lpslwux+TJk3H77bcjKytL/NyioiJcffXVPgHYYrHAYDD02H+aiIiILjwMwERE/ZAn7CYnJ3stDwsLQ3R0tFdfXI+Ojg6/23I4HGhoaMD27dtRUVGB6upqNDc3w2g0wmq1wuVyQRAEAMdGg25oaPDZhtlshtVq9Vo2bNgwqFQqr5Cp0+nw8ssvo6CgAFqtFjExMYiOjkZ8fDySk5PFuYD9lb8nISEhmDx5MuLi4rxCt0wmQ3Z2ts/6LpcLNpvNp4aaiIiILmwMwERE/ZBKpcKwYcN8akkVCgWCgoL81p76q+20Wq0oKyvDkiVL8Msvv6Cmpua0BqFyOp0+/X0nTpyIwsJC/Prrr2LQdDgcqKysRGVlJYBjNbdhYWGIjY1FSkoKsrKyUFRUhMmTJ5/SXL2hoaHIysryqZ2WSCQICwvzWV8QBLjdbjHYExERUWBgACYi6ofkcjmio6N9lnuaEveGy+XC3r178dZbb+F///sfTCbTaQdCf+/TarV49NFHoVAosGnTJp+BuYBjwVmv10Ov16OyshKbN2/GTz/9hF9//RXz5s1DRkZGrz5foVBAo9FAJpP5fY2IiIgIYAAmIuq3/DUTlkgk4r+TMZlMWLNmDX744QcYjUavbURHR2PMmDHIz89HdHS0GCw7OzuxZMkSHDp06KTbVygUuOSSSxAbG4sNGzZgw4YNOHDgAPR6PSwWizhFkSc8C4IAi8WCqqoq6HQ6ZGRk4LHHHvM7KNeJpFIp5HK53+99OqNJExER0YWJAZiIqB/qbcjtSVtbGzZt2uQVfoFjoynfeeeduP7665GUlCQ2qRYEAY2Njfjxxx97FYABICgoCKNGjUJubi5mzJiB5uZm1NbWorm5GTqdDi0tLThw4AD279/v1Ue5s7MTy5cvx5w5c5CamvqbvicRERGRBwMwEVGA6ujoQE1NjU/z5czMTFx++eUoKCjwalLsdrvR1taGo0ePntLnyGQyhIeHIzw8HAMGDMDo0aNht9tht9thsVjQ0tKCxYsXY+nSpV4jSVdWVqK1tZUBmIiIiPpM7+eYICKiC4rL5fLbL1cqlUImk/nUMDscDnz77beoq6vr1fY9g2odH7ClUinUajXCw8MRGxuL1NRUFBYWYsSIEQgPD/d6v9lsPq0BuYiIiIi6wxpgIqIApVKpEBkZ6bN89+7d+OyzzxAeHo7MzEwIgoCqqip89NFHeO+993ymO+rO4sWL8dNPP2Hs2LGYNm0a8vPzkZCQgOjoaAQFBUEikcBsNmPfvn348ccfodPpvN4fGhqKoKCgPvmuRERERAADMBFRwIqIiEB+fj5KS0u9amnNZjPef/99rFu3DomJiXC73airq0NVVZXfqZS6Y7Va0dTUhK+//hrLli1DXFwcYmNjERkZCaVSCZlMBrPZjIaGBjQ0NPgE66ysLMTGxvbZ9yUiIiJiACYiClBxcXG49NJL8fPPP6O2ttYrBFssFpSXl6O8vFxcJpVKERMTA7vdDpPJ1OvPcbvdsNvtYtDtDZVKhVmzZiEpKan3X4iIiIjoJNgHmIgoQCmVSkyYMAG33XYbEhMT/c6h66FQKJCRkYHHH38cBQUFvdq+SqWCUqns9bzEwLH5jePi4nDzzTfj5ptv7rFMRERERKeKNcBEROcxlUqFtLQ0uFwur+VxcXFQKBR+3xMZGYnMzEyfQaVOrE2VSCRISEjAHXfcgcjISHzxxRc4dOgQurq64HK5IJFIoFQqERISguHDh+OOO+7AmDFjUFFR4TMStFarRUhIiNeyq666CjKZDBUVFdDpdLBarbDb7XA6neL3kUgkkMlkUKlUCA0NxYABA3D99ddjxowZiI6O9vluSqUSWq0WOTk5Pp+vVqv97o/g4GCf9QEgISEBcjkvg0RERIFEIpw4/wUREZ03nE4n2tra4HQ6vZbLZDLExMT4DXCdnZ3o7Oz0Cc1qtRpRUVE+6wuCALvdjurqapSVlWH//v0wGo1QKBRITEzEsGHDMGzYMPG97e3tPqMzy+VyhIeHew1a5XK50NXVBbPZjMbGRhw8eBBNTU1obW2F2WyGy+WCUqlEREQEkpOTkZ+fj4yMDERHR3cbTJ1OJwwGg9/P9/QtPpHNZvM7dVNwcDA0Gg1rmYmIiAIIAzAREREREREFBPYBJiIiIiIiooDAAExEREREREQBgQGYiIiIiIiIAgIDMBEREREREQUEBmAiIiIiIiIKCAzAREREREREFBAYgImIiIiIiCggMAATERERERFRQGAAJiIiIiIiooDAAExEREREREQBgQGYiIiIiIiIAgIDMBEREREREQUEBmAiIiIiIiIKCAzAREREREREFBAYgImIiIiIiCggMAATERERERFRQGAAJiIiIiIiooAgP9cFIDoZk8mENWvW+CyPjY3F8OHDERIScg5KRYHE7XbDbDbjyJEjaGpqgtlsht1u91onNjYWEyZMOEclDAwmkwnr1q2Dw+HwWh4fH4+CggKEh4efo5IR9Z7b7cbhw4dRUVHh81p+fj6ysrIglwfm7dmOHTtQXV3ttUwul2PgwIEYOHDgOSoVEV1oAvMMS/1Kc3MznnjiCZ/lY8eOxQsvvMAATGeUyWRCWVkZVq9ejX379qGxsdFvAC4qKmIAPsOam5vx3HPPwWQyeS2fOHEiHnvsMQZg6hccDgfWr1+PBQsW+Lz25z//GVqtNmAD8HfffYelS5d6LQsJCcE999zDAExEfSYwz7DUr9hsNlRWVvosT0lJ8akJIupLFosF33//Pd5//32Ulpais7Oz23VTU1PPYsn6J4vFgh9++MHn9xwaGoqLLrropDe4NpsNhw8fhsFg8FqenZ3t80CC6HwlCAIMBoPf65per4fb7T4HpTo/6HQ6n/0SFhYGvV5/jkp0cg6HA1999RUaGhq8lkdERGDSpEkM7kTnIQZgIiI/3G43Kioq8Omnn2Ljxo2w2Wznukj9nsViwbfffosffvjBa3lCQgK0Wi1vFImo37Hb7Vi6dClKSkq8lmdkZCAhIYHnNaLzEAMwEZEfVqsVpaWlKC8v9wm/CoUC8fHxUKvV4rKUlJSzXcR+x+12w2Qy4ejRo17LlUolHzAQUb8kCAKMRqPPeS08PJwtU4jOUwzARER+WCwWVFdXo62tzee1iy++GI8++iji4uIgk8kAgH3Rz4KYmBjcd999sFgsXssHDRqEmJiYc1QqIiIi6k8YgImI/HA4HDCZTLBarT6v3XjjjZg4cWLADlRzrsTFxeGxxx6DIAheyxUKBYKCgs5RqYiIiKg/4d0b0f9xOp3Yt28fdu7cicOHD0Ov10MikSA6Ohp5eXkYM2YMkpOTIZFIznVRARwr74EDB1BeXo6qqioYjUbYbDao1WpER0cjMzMTOTk5GDhwIFQq1bkubr8jCAIcDoffAWni4+P7RfjV6/XYtGkTysrK0N7eDo1Gg9zcXFxyySWnVWPqdrtRWVmJ7du349ChQ9Dr9XC5XAgLC4NWq8WQIUNQUFCAsLCwM/BtAJlM9ptGena73WhpacG2bduwf/9+tLS0wOFwQK1WIzk5GUOGDMHw4cP7rPyeppGbNm3Ctm3bYDQaodFoMHjwYBQXFyM+Pv68OZ/Q+cdkMmHt2rXYvn07DAYDwsLCUFhYiKKiIiQmJp7r4vllt9uxZ88elJWVob6+HkajERKJBBEREUhPT0dhYSFycnLO+QOr9vZ27Ny5Ezt37kRzczMsFgvUajVSU1MxcuRIDBkyBMHBwWe1TIIgQK/XY+fOndi7dy+am5vR2dkJqVQKjUaDxMREZGdnY/DgwYiLizurZSO64AhE57ldu3YJAHz+TZkyRaisrPRZv6qqSvjDH/4ghISECHK5XPynVCqFvLw8YenSpYLb7RYEQRDcbrfQ3Nws/Otf/xLGjBkjqNVqQSqVChKJxOufTCYTIiMjhdmzZwubN28WrFar37J+//33QlpamtfnBgUFCVdccYXQ1tbW7Xd0OBzCwoULhaioKK/3ajQa4ZFHHvFat729Xfjkk0+EoqKibssrkUgEqVQqyOVyITY2VrjiiiuEpUuXCp2dnb/hL3Hhq6+vF+644w5BLpcLMplMkEgkfo89z749/t+0adPE7SxevFhISUnxWeeaa67x+zdobW0VnnrqKZ/15XK5sHjxYp/jzWq1Ck8//bTPuiqVSli4cKHQ1tYmvPXWW8KgQYMEhULhcyynpaUJixYt6tXx4Ha7haamJuHvf/+7UFhYKMhkMr/HnFQqFaRSqZCcnCzcfvvtQkNDg7iNoUOHimU8lX0ql8uFDRs2iNupqKgQYmJifNaZPn26UFFR0e13sFqtwi+//CLccMMNQnh4uFhWf+WPj48X/vKXvwh79+496b659957/Zb5rbfeEoxGo/DBBx8IGRkZ4rF0/Gfl5uYK7733nqDX60/6OXRhsVgswquvvur3dzB//nyhoaFBeOedd4TExESvY8fzGxk0aJDw5ptvCi0tLT1+zuTJkwWFQuH1b8CAAcKSJUv8rr9lyxYhKirK5z3jxo0T6urquv0ct9st7N69W3jmmWeElJQUQSaT+RzznvKrVCph4MCBwt/+9jdBp9P5bOuee+7x2SdhYWHC3/72N591HQ6HsHz5ciExMdGnzBqNRpgzZ45Xue12u7B161bhvvvuE+Lj4wW5XO73PKBUKoXBgwcLb775ptd57ETZ2dni5/k7r3nOtyeWTaFQCDt37hS343Q6hb179woPPfRQt+XylE0mkwlKpVLIzc0V/vznPwsHDhzotnxE1L3zvwqDqJfcbjeam5vxwgsvYMWKFTCbzeJrUqkUqampePrpp3H11VdDIpHA6XRi9+7dePPNN7Fs2TIYDAafppUeLpcLer0eX3zxBXbt2oUHH3wQN954o88T4vHjxyM9PR319fVizaHL5cKhQ4dQUlKCSy+91G+Nj9FoxJYtW9DZ2Qmn0yku12g0mDZtmvj/ra2t+OCDD/D222/7TLlwIkEQ4Ha70draipUrV0KlUmHSpEnsq3oSbrfb62/Q3Ton1gy7XC7xvwVBgMvl8tlOT9Ob+Fvfs63ellMQBNTV1eHVV1/Ff/7zHzQ3N/v9nLq6OrzyyisAgNtvv73bY8LhcGDz5s144YUXsH79+h4HdPGU88iRI1iyZAnuvvtuJCcnd1tWf9/H3/45/vsLggCn0+mzLZfL1e1+MhqN+PDDD/HGG2+goaGh2/U8y1taWvDaa69h2bJl+Pvf/44pU6Z024Kiu+/V2dmJ5557Dh988AGMRqPfz9q/fz/++te/Qq1W49prrz3rtU10furo6MCzzz6Lr776yufY8ZzT9+/fj5deegkGgwF33nkn4uLi/F5XXC6Xz1SBTqez2/OQ8H+tXvy9pzudnZ347rvvsGjRIuzYscPrPOhv+zabDQcOHMDy5ctx+eWXIzY2ttv1e+JwOLBy5UrMmzcPLS0tXt8pLCwM06dPx+OPPw6tVgvgWG36t99+i3/84x+oqKjodgpFQRBgt9uxe/duzJs3D2VlZXjkkUeQl5fn0+rH6XT2OBWj5zrgb594zjdutxsHDhzA3XffjS1btpx0e8Cxv+u+fftQU1ODkSNHIicnp9v3EJF/DMB0QXC73Th48CBeeeUVfP31117ztcpkMhQUFOCFF17A5ZdfDplMBpfLhe3bt+Oll17CqlWrfEaglclk4g3F8TfmTqcTFRUVmD9/PhwOB2bNmgWNRiO+LywsDLNnz8b27dvR0dEB4NhFq6mpCT/99BMmTJiA0NBQn/JXVlZi165dXgFDLpdj5MiRGDZsGIBjF/y1a9fi/fff9wm/UqkUUqlU/H9BELz+UWBwu9347LPP4HA4/AYvD88x+eGHH2LIkCGYMmWKzzp2ux3Lly/HU089hcrKSp/jSCKRQCqVir8Tz835+XS8dXV1Yf78+Xjrrbe8HogB3uU/sewulwsHDx7E3Llz8dJLL+Gmm246pSbv77//Pmpqak4aBlpaWvD2228jJycHo0aNEgdUo8C1ePFiNDc3w+l0itchf7+tlpYWvPfee4iMjMScOXO8rkNni8FgwIcffoiFCxf6fdjm+X319TnCbDZj9erV+Mtf/oJDhw6J2/M0tZ45cyaeffZZ8QGcwWDA4sWL8frrr6OmpsZrW92dBwRBgMlkwueffw6TyYR58+Zh2LBhXtfZvmAwGLBw4UJs2LCh23J5nI/nWKL+igGY+j2n04lDhw5h0aJFWLZsmRg8gWOD4wwePBjz58/H1KlTIZPJIAgCGhsbsXTpUvz4449e4Vcmk4n9ZyMiIgAAOp0Ohw4dQkdHh3jhqampwccff4zMzExcdNFFXjeukydPRl5entecgJ2dnSgpKUF9fT1yc3O9yu9yubBhwwa0t7d7LVcqlV59Ndvb27Ft2zY0NjZ6rRcUFITMzEwkJCRArVbD7XbDYrFAr9ejvb0der3eZ9Rc8s/T1yohIQEulwudnZ1+911kZKRPrWBUVFSvtn8mCYIgTsWhUqkQEhICmUwGi8UCs9nsU5taX1+PNWvWoLi42Ov7uN1u7NixA6+++ioOHz7s9T6JRILg4GAkJycjISEBISEhEAQBHR0daG1tFfvVHn/jFh0djYSEBLjdbrGv+vE8+91fv0ClUnla+8LlcuH777/H22+/7RV+JRIJgoKCoNVqkZycDJVKhY6ODtTW1opl92hqasLrr7+O/Px8jBgxotd/v8OHDwM4dv4JCwsT/wZdXV0+tW+7d+9GaWkpBg8ezNYZhPr6eshkMqSkpCArKwvBwcHo6OhAdXU1mpqavB6qNDU14ZtvvsHIkSMxevToXh+ffdHv3OFwYMWKFXj//feh0+l8th8eHo7k5GTEx8dDpVLB5XLBZDKhpaUFOp3utMvQ2dmJlStX4pVXXkF1dbVX+I2KisKsWbPw6KOPIikpSSzn+vXr8fHHH6Ours5rWyqVChkZGUhKSkJQUBDMZjNqa2tx5MgR8Txgs9mwZs0aDBw4EImJiUhISBDLHhsbC6vVCrfbDYPB4NNCRiaTISwszO95TaFQADh2rjgx/EqlUsTExCA9PR2RkZGQyWRwOBzo7OxEW1sb2tvbYTKZTmv/EdExDMDUrzkcDuzfvx9vv/02vvrqK+j1evE1tVqN0aNH46WXXkJRUZF4c2Cz2bB582asXLnSa4RfiUSCAQMGYM6cObjmmmuQlpYGANizZw/+/e9/Y+nSpeJFx+VyYefOnfjhhx8wdOhQxMfHi9tJT0/HlVdeidLSUq9mTtXV1Vi3bh0GDBjgVZuk0+mwdetWr1pr4NiIt9OnTxfDtdFoRG1trc9FdvTo0Xj88ccxZswYREREwOl0iusePHgQJSUlKCsrQ2xs7BkPYP1deHg4rr32WgwdOhQGgwFff/01fv31V5/15s6di4KCAq9lvRmU5mwMeOS5ESwqKkJRUREiIyOxe/durFixwucG0Gw248CBA2hqakJ6erq4vL29HYsXL8bevXu9brglEgliY2Nx6aWXYtasWcjPz0dsbCzcbjd0Oh3279+PNWvWYNOmTV6B+qGHHoLBYEBHRwc+/PBD7Nixw6scGo0Gs2fPxqhRo3y+T0ZGxmnth4aGBrzxxhs+v6uQkBBMnjwZc+fOxfjx4xESEgKdTofvv/8e//znP7Fnzx6xyacgCDh8+DA+/vhjDBgwQHwo1hsREREYM2YMpk6dipCQEOzZswerVq1CTU2NVwju6urCli1bcOONNzIAEyQSCQoKCnD//fdj+vTpiIyMREtLC5YvX4733nsPe/bsEa8rgiBg+/bt+PXXXzFo0KBeHZ/H18j+FnV1dfjiiy9w6NAhr+NZIpEgJSUFN998My699FLk5uZCo9HAbrejqakJO3bswJo1a2Cz2cQQ2BvC/w0o98MPP2DhwoUoLy8Xz00SiQRxcXGYM2eOOD2dR3NzM1auXIny8lQ0PCwAACAASURBVHKvcqrVakyZMgUPPvgghg8fjvDwcLS1tWH16tV46623UFZWJm6/o6MDK1aswLhx4zBt2jTxodzjjz+Ozs5O2Gw2vPbaazh48KBXmaOjo3Hdddf5Pa95AnpjYyOampq8XouJicGcOXNw6623Ij09HUqlEl1dXdDpdKiqqkJ5eTm2bNmCQ4cOnfPBxIj6KwZg6recTif279+PVatW4auvvvKqQVWr1Zg2bZoYDI8Pfp6Rcevr6722Fxoairlz5+K2225DZGSkeJMwfPhwPProo6iursaqVavE9W02G7Zu3YoDBw54hUuFQoEbbrgBixYtEmvjgGOhYtOmTZg+fTpSUlIAHLuo7927F4cOHfKqeZJKpbj44ovF/kvAsdBts9l8mj8VFhZi5MiRiI6OBnDsqXNcXBzi4uIwYsQIzJgxA9XV1TCZTGdsdN4LRUhICIqLi1FcXCzerPkLwNOmTcMll1xyyts/GwE4LCwMV199NR588EEMHDgQcrkcRqMRCQkJeP75573687lcLrS2tkKn03kF4IqKCpSUlPg0G1YoFLjpppvw0EMPISUlxev7pKWlITU1FUVFRSgvLxebHwLAVVddBQA4evQoVq9e7ROAg4ODMXnyZFx77bV9th82btyI8vJyr2VSqRS5ubl46KGHMGnSJPFBVFpaGm677TY4nU688MILaG1tFd9jtVqxceNGVFVVYfjw4b36bIlEgmuvvRaPPfYYMjIyIJVKodPpkJCQgEWLFnk9qAOAgwcP+tSKU2BSq9V44IEHMGvWLDHcaLVazJ49GzabDc8884zX79LTumjGjBkIDw/v1Tnmt56HHA4Hfv31V+zdu9enf3BkZCQeeugh3HXXXQgODhY/S6lUYsCAAcjMzMTFF1+Mw4cPn9JIxkajEStXrsTf//53n/Cr1Woxd+5c3H///V4PAZxOJ/bs2YPS0lKfchYWFuLpp5/2qjlPSEjA73//e9jtdsybN8+rWXdlZSW2bduGoqIi8Vo7c+ZMAMf+BosXL/YJwGFhYSc9r9ntdp+H2jExMRgzZgxycnLEc5RGo4FGo0F2djYmT56M2267DWVlZeKDeiI6NQzA1G81Njbiww8/xObNm73Cb0REBKZOnYonnngChYWFPrWenukPTrzhTElJQXZ2Njo6OtDV1eX1mtPpxJAhQ7wCsGfAoerqaowaNQpqtVp8LSsrC1dccQWWLFkiXqhtNht2796NXbt2ISkpCVKpFA6HA9u3b8eRI0e8nk5HRkbi97//vdeNikqlgkajgUwm87qYl5SUYMWKFcjLy0NkZCRCQ0OhUqmgVquhVqsRFhaGIUOGnM4upj52NmrgBw0ahOuuuw6DBg0Sa1giIyNx9dVX429/+5vXseN2u2E2m71uqN1uNyoqKnyOSeBYULz77ru9HswcTyKRQKPRYMKECWfgm52aDRs2+PyO1Wo1Ro4ciVGjRvn06VWpVLj00kvx+eefo62tTfzunsH1Kioqeh2A4+Pjcf/993sNThMbG4uRI0dCq9X6BGCdTtdjf2EKHDk5OZg6dapPzV54eDjGjx+PzMxMVFRUiMs9U5PpdDpkZWWdtB95X9QAm0wm7N6926fbDgBMnDgRc+bM6bY1g0wmQ1RUVK+6jHh4Ave6deuwY8cO8Rwmk8mQnp6Oe++9F7fddptPDbjFYkFlZaVPtyEAYq3via+5XC7ExcUhKSnJKwDbbDZUVFRAr9eLAbgvhIaGIjQ0FAaDQVym0+mwZs0ahISEICkpCRqNRryeq9VqKBQKREdHew2QSUSnhgGY+q2amhrU1dV51ZyGhYVh5syZ+NOf/oSCggK/A9eYTCaxj97xOjs7sWTJEqxYscLnBsHlcqGystLnPe3t7WhubhbnEvWQSCSYM2cOVq1aJV5EPc2gN2/ejMmTJyM4OBgGgwHbtm3zuSEuLCz0aTYVERGBAQMGQK1We/VzLi0tRW1tLTIzM5GYmIiYmBjExMQgOTkZqampyMnJgVar5VzA54EzHYClUikGDx6MvLw8n+aFqampPp/vGfX1+BoIt9uNw4cP++1jNnHixNNukny2lZeX+7SWCA8PR0FBQbc35wkJCcjNzcW2bdu89klXV5dP7U5PioqKMHDgQK9lnjmM/Q1WZLFYehwhnALH8OHD/R4jnu4Hubm5XgEYOPYwuKdZDE7czm8NwEajEQ0NDT4PmADg97///WnNMd4Tm82GLVu2iKMqe+Tm5uLuu+/GLbfc4ndwya6uLhw5csSnGwQA7Nq1CwsXLvT7wECv16OlpcVneXV1tde1ty+kpaUhIyPDq1VMW1sblixZgvXr1yMtLQ1xcXGIjY1FXFwctFotMjIyMGjQoF7X+BORLwZg6rf8TS+QkZGBP/zhD8jPz+921Fabzeb3yXV9fb1Ps+iTsVqtMJvNfmtvhg8fjokTJ+LLL78Ul5lMJmzbtg1VVVXIz8/Hnj17/DZ/vvbaa32eMntqAH7++Wds3LhRvEF3u91oamoS+xHJZDIEBwdDo9EgJiYGubm5KCoqwrRp05CdnX1Ko9lS3zrTNysSiQRJSUl+ayiOb454vBOnHxIEAe3t7V794z3y8vL6zUjFJ/arA44NGNdTX3i1Wo3Y2Fif/eRwOLy6M5xMfn6+zwMIiUQChULht99jT9M4UWBJTEzs9hztOX5P1NnZCavV+psDcG+PQavVio6ODr/TIw0dOrRX2zgVnunPjieRSHDZZZdh5syZPU7jZjKZ/HYvWL9+PdavX39K5TAYDH3eVSE1NRXXX389qqurxVpgQRBgNpuxb98+7Nu3DxKJBCqVCqGhoQgPD4dWq8WQIUNw6aWXdjuzBBH1jHfCdEFpb29HeXk5hgwZ4vdGFjh2w9/TXHunwjMnqb8bh4iICNxwww1Yvny5GCY80zWVlpYiJSUFZWVlPk2wtFotLr/8cp+bdJlMhuHDh+NPf/oT1Go1tmzZApPJ5HdO1I6ODnR0dODIkSOoqKjA+vXrUVVVhXvuucenZorOnu5q+frymAwODvY7MMqpPPhwOBx+y9qfBmnyd6MqlUp7HFXa8/qJ5w1PTXlvRUVF+Q3ZJ05XRnQilUrV7THS3fHb09y+J+pparye5vk+nmf+a3/bOZvjTOzbtw+VlZWIiYnxe37zBOe+al1ht9v7vKtCSEgIZs2ahfb2dvz3v/9FdXW1z/lXEARYrVZYrVYcPXpUHDl6y5YtePDBB3HDDTf0mweTROcLBmDqt5RKJRQKhVf/xSNHjuCf//wnXC4X7rzzTr+jYspkMgQFBfnc0CYmJiInJ8erKXNvDBgwoNvRLMeMGYPRo0d7PWluaWlBaWkpsrKyUFFR4TVfq0wmw2WXXYaEhAS/2wsLC8O0adOQnp6OrVu3oqysDJWVlWhubkZ7e7vfKWY8NcTLli1DVlYWtFotgoODT+k7Ut9wOBx+bxrtdrtPM/jT1V3IOpXa56CgIJ++5gD8tpw4X/kL606ns8cpwTyvn/g3kkqlpzTaancPG9hckU7G31RZHi6Xy+/xq1Qqex2AXC6X35pbAGhtbe1VWJTL5VAqlZBKpT6BsLW1FZmZmb0qS295pi5zu93i9U0QBPz000+w2+148cUXMXLkSJ/fl+eBgb9z2YgRIxATE3NKv8no6GhERkb+9i90HIlEguTkZDz44IOYNGkSSktLUVFRgbq6Ohw9ehR6vd5vKzOXy4Xt27fjnXfewfjx45Gamtqn5SK60DEAU7+VkZGBoUOH4pdffsHRo0fFJ9uHDh3Cu+++i9DQUNx0000+/anUajXi4uJ8+vJkZmbikUceQVZW1ildFGNiYroNlNHR0ZgxYwbKysrEoN7V1YWysjJoNBrs27fPq6lpdHQ0rrjiih5voENDQ1FYWIhBgwbh0ksvRWtrK1pbW8W5ARsbG7Fz506sXbtW7PskCAKam5uxfft2TJ8+vd/04+yvuguhFovFby2LwWA4pT6mZ5JUKkVcXJxPX3MA4gA0pzJ9ybmi1Wpx6NAhr2UWiwWNjY1wuVx+f2NmsxmNjY0+IUCpVHb7UIqoL/mb6s6jq6vLb9P+8PBwv10c/B3jLpcLVqsVTqfT63XPlErdhePjqdVqREREQKFQ+ASzLVu2YPTo0X36sCcoKAjFxcVwu91e3X8sFgvWrl2L559/Hs8//zyGDRvm9blKpVKcs/3E7zVjxgxceeWVpzQ2hlwuF2dw6EsymUycM3nMmDHiyPxtbW0wGAxob2/HgQMHsGHDBhw+fFj8Lk6nEwcOHEBpaSkDMNEpYgCmfis+Ph633HIL4uPjsWTJErEGzTM686uvvgpBEHDPPfd4hZHw8HAMGDDAZyCshoYGKJVKceqYk7FarWhpaYFCoej26btSqcRFF12ETz75BLt27RLLt3//frS1tUGv13vVNg0ePNjvk+wTSSQSBAcHIy0tDVqtVuwP7ZkqSafTYcGCBfjoo4/E9zgcDjQ3N0Ov1zMAn2FKpdLvjZXnpub4EVAtFgu2b9+OPXv2nM0idsszH3Z4eLhPAP7111+xa9cujBgx4rS33V1TRZfLBbfb3WdNhEeMGIG1a9d6/b6MRiPKy8vR0dHhtybnyJEj2L17t89NfUhICHJzc/ukXEQ9KS0thcFgQHR0tNd1QBAEtLS0YPfu3T7vSUlJ8dvs3l/fUIvFAp1Oh66uLq+HwzU1NVi3bl2vmvpHREQgNTUVwcHBPmMFfPvtt5g5c2afBkW5XI7i4mIMGzYMZrPZK6jb7XasWbMGDocDr732GvLy8sT9FhwcDK1WC41G4zOlW21tLZKTk3s1FZMgCGhsbOy2CXpP5zVPE+zenNfkcjliYmIQHR2NnJwc8b0OhwOdnZ3YuHEj/vSnP0Gn04nvsdlsOHDgwEm3TUTe2BmJ+i2ZTIasrCzcfffdmDlzJsLDw8XX3G43ampq8Morr+DDDz/0ahYcFRWFUaNG+dTaHjlyBJ988gn27dvXbT8ft9sNvV6P9evX46mnnsJLL72EqqqqbssolUqRkZGBK664wusCaDabUVdX59P8+eqrr+52eogjR47g888/x+rVq8WRpz2foVAoEBQUhJCQEERFRSE9PR2JiYle7/f0Y+R0K2deRESE1/HoceDAAXz99dcwGAxwuVzQ6/VYtWoV3n33Xa9j4VySSqUYNmwYMjIyfG7qWltbMX/+fOzcudNvU0nPTfpnn33mdxRVqVQKjUbj84DHM8pyb5tg9saUKVN8ukDYbDaUlpbihx9+8LlxN5lMWLp0Kaqrq73KIJPJkJaWhsGDB/dJuYh6UldXh88//9zr4ZPnd/Xf//7XZ6BGuVyO3NxcxMXF+YQsf3PEGgwGrF27FmVlZbBYLLBardi/fz9eeeUV7N69u1e/v7CwMAwfPhzx8fE+r23duhXz58+HTqfz293D6XSirq4OK1as8Fub3Z2QkBBccsklePjhhzF48GCvh85WqxVr167FY489hj179oifq1arMWjQIL8PfFetWoVvvvnGJxh7CIIAm82GqqoqfPzxx7j33nuxcuVKv4MDeqZ/O1FHRwcOHToktlDzp7S0FG+++SYqKyvR0dEBQRAgkUggk8nE6Qw1Gg2SkpKQlZXl0/rG0z+YiE4Na4CpX5PJZMjOzsYDDzwAg8GA//73v159hOrr6/HXv/4VarUas2bNgkQiQUREBIqLi7Fs2TKv6SScTieWL1+O1tZWzJkzB+PGjUNKSgqcTifa29tRWVmJ7du3o6SkBDt27MCRI0cwYsSIk44KGRISgqlTp+LTTz9FXV2dWDZ/I1gXFxd3W/tsNBrx9ddfY9u2bcjPz8fIkSMxbNgw5OTkICEhQRx8pLGxET/99BO++uorn30VGhp6Sn0Z6fTExcX5bTJrNpvx6quvory8HImJiWhpaUFJSQnq6urOq2lwcnNzMX78eFRUVHjNT+l0OvH9999Dp9Nhzpw5mDBhArRaLdxuN+rr67F161asXLkSZWVlyM3N9blB9jQhlEgkXjeEHR0d+M9//oN9+/YhKSlJvLkdNWoUZs6ceVrNKT3970+cu7uqqgqvvfYa9Ho9rrzySkRGRqK2thZLlizBp59+6jNlSnBwMKZMmeI3TBD1NYfDgXfffRd2ux233XYb4uPjUVtbi48++giffPKJT/NojUaDsWPH+q3J9Dcis8PhwIYNG2AwGFBYWAiJRCLOT+9vuiB/pFIpxo0bhyFDhuDw4cNeZbJYLPjkk09w9OhRzJw5E8XFxYiOjobNZkN1dTXWr1+P//3vf1AoFJg/f77Pg9qehIWFYcaMGTAajViwYAFqamrE84jNZsMvv/yCZ599FgsWLEBWVhakUiny8vJQXFzsM7VZU1MTXnjhBVRXV+PKK6/E4MGDERwcLHaD2L17N7Zu3YrS0lLs3bsXJpMJRUVFfs/TUqkU6enpPsvb29vx0Ucfiec1zwOKCRMm4He/+x0UCgWqq6vxzDPP4KOPPsLw4cMxcuRI5OfnIy0tDVFRUVCpVDCbzSgvL8cHH3zgM1aETCbr03mJiQIFAzD1ezKZDPn5+Zg3bx4cDgdWrVolPhH1NF164okn4HQ6MXv2bCgUChQVFWH27NmYP3++V82b2WzGzz//jE2bNnkNLOJphuT55+lv3NsBQwYNGoSLL74YH3/8sd8aWJlMhmnTpvmdq9XD86S3trYW9fX1WL16tTitikwmE0OCpxn0iU+F1Wo1Bg4ciOTk5N7tWDptaWlpGDJkCNavX+9Vw+CZYuirr74S/15ut/u8mwInNDQUd955J3bs2IGffvrJq1mkxWLBxo0bsXXrVqhUKvGBjdPphN1uh91u99s3EDh2DI4dOxZKpdLr+PS02PA8IPLsm1tuuQUzZ848re8QHR2NF198Edu3b0dra6u43G63Y8eOHXj00Ucxb948SKVScfCrEwcpk0qlGDp0KO66665THhyP6HRoNBq0tLRgwYIF+Mc//iEO4OQ5Po8nlUoxadIkTJw40e84FBMmTEBSUpLPTANWqxXbtm3D9u3bAZzeOSg2NhZ33HEHqqurUVZW5vV77+zsxDfffIMVK1aIo1p7mgPbbDY4HA6MHTv2tM57wcHBuPnmmyGTyfDss8/iyJEjXt9r5cqVsNvtWLRoETIzMxEVFYVrrrkGu3btws8//yw2nfYMDvnGG2/g3Xff9Rr93el0itf640e77q68crkcEydOxLvvvuv1N3K5XKiqqkJNTQ0AeJ3zL7roIvE8aTQasXPnTuzatQuffvqpeE333H94Wm9ZrVafYyA0NBQTJ0485f1IFOjYBJouCFKpFAUFBXjyySdRWFjo0yf3yJEjePHFF/G///0PTqcTGo0G1157LW688UafyeTdbje6urpgMBjQ1tYm9tXt7OyEzWYTbxZ6mk/xRDExMbjooov8NosFjvVLnjx5cq+nkPAE8q6uLhiNRrS3t4tlNRgMPiPZSqVSDBo0CFOnTu3zUSzJV2hoKMaNG4dBgwb5faDhdrvFPtsSiQTR0dHn3fRUqampePrppzF8+HCfZndutxtWqxVGo1E87oxGIywWS49N7OVyOQoKCjBx4kSf36inVYRnlNq+mL6ksLAQzz33HOLi4nx+4xaLBXq9Xiy73W73+5t55plnoNVqf1M5iHrr+uuvR3Z2Nlwul3gN8nd8SiQSZGdn47rrrkNmZqbfa1FSUhJmzpzpd9C6439vgiBAoVBg5MiRvZ4uTSqVYsKECXj44YeRmZnp83t2uVzo6uoSf2OeQRo919DfIjg4GDfddBPmzp3r02XIarXil19+wUsvvYSamhpIJBIMHz4cd911F4YMGeJTTqfTic7OTq9rqNFoRFdXl9cDsZ6u954pCouKik77vOZZzzPH8vH3H+3t7ejo6PAJv0FBQbjsssuQn59/yvuQKNAxANN5TyKRiKPqnvjv+AuSTCbDmDFj8PLLL4u1TMevV1tbiyeffBLffvstXC4XsrKy8Oyzz+Kpp55CXl4egoODvWpSuyuHQqFAaGgoMjIyMGrUqF4NohEUFIQRI0Zg7Nixfrc/dOhQjBgxoscRKaVSKdRqNdRqNeRyufi9/G3Ps9zT7HncuHF44oknMHnyZE7Fcgp6c9z5I5fLcdFFF+HWW29FVlYW5HK53yk6goKCMHz4cDz77LO4+uqrT+mzuvtd9FS2U/k+UqkUxcXF+PTTT3HrrbciLi5OrM3p7piTSqWQy+UICQnpdmC4pKQkPPfcc7jqqqsQHR2NoKAgyOVyscbjxLKd+Bn+1umu1YRMJsMdd9yBf/7znxgzZgxCQ0PF3/iJ38GzTC6XIzIyEhdffDG+/PJLXHLJJX2yP3t6T0/nHbowdff7zc7Oxttvv43x48dDpVL5PU6VSiXy8vLwl7/8BVdeeWW33VpCQ0PxwAMP4PLLL4darfb7e5LL5YiLi8O9996LefPmISQkpNe/L6VSieuuuw4ffPABZsyYgejoaCgUipOeIxQKhd/ydLdf/P0+goKC8Nhjj+Hhhx9GeHi413mhq6sLX375JZ577jlxcMsZM2Zg0aJFuPbaaxEXF3fSch7fDzcqKgqjR4/udspDiUQCrVaLl19+Gb/73e8QFRXldV7raX8qlUqEhoaK9ys9Be3j9190dDRuv/12PP/886c0kjURHcMm0HTeCw4O9tvEZ8iQIX4v/OPGjcO8efPwzjvv+IxiK5VKxWka0tPTER8fj3vuuQfFxcX47rvvUFJSAp1Oh46ODvGJu0wmEy/YGo0GWq0WY8eOxYQJEzBw4MBe16gmJCRgypQp2LBhg1e5VCoVLrnkkpP249Fqtbj33nsxYMAA7Nq1C83Nzejs7ITVaoXNZhOf5HvmaAwNDUVcXBwmTZqEq666Cvn5+X5HsCT/lEolcnJy/B57/uaXPlFwcDBmzZqF8PBwLF26FJWVlejs7ITL5YJSqURUVBRGjhyJO+64A9nZ2Vi2bJnfz/I3uI2nz9mJ60skkh5HXy0uLvaZRzQjI6PbgdeAY9ODLViwADNmzMCyZcuwc+dOGI1GmM1msYZELpdDrVYjLCwMGRkZmDJlSre1pgqFAqNGjcIbb7yBTZs2obS0FDU1Nejo6PCZqiQnJ8fr/4ODgzF27FifgWsKCgr8zvsLHHsYccUVVyAnJwf/7//9P/z8889obGxEZ2cn7HY73G63eKOr0WiQlpaGmTNn4ne/+x2SkpK63S8AkJ2d7fdv1t37wsLCMHjwYL/NGNk3P3BIpVIkJyf7PXY815e3334br7/+OrZu3Yq2tjY4HA7IZDKEh4dj6NChmD17NiZPnux3pGcPiUSCjIwMvPjii8jIyMAvv/yC9vZ22Gw2SKVShISEICMjA9dffz1mzJiBo0ePYty4cejq6vLaTm5ubrchSyaTYfz48cjMzMTatWvxzTffoLq6GkajUWyyK5FIxGtoREQEBgwYgGuuucbvOcLfb0qtVvs9r4WGhuK+++5DZ2cnSkpKfF7v6OjAxo0bceWVVyIkJATjxo1Deno6fvnlFyxfvhxVVVViiymn0yk+EFCpVAgJCUF0dDTy8/MxceJEjBgxAikpKd3+TuVyOcaMGYO33noLmzdvRmlpKerq6mAymfyO9+E5pxcXF+PVV1/Fxo0bxf3W1dUl7jvPCNKec6xGo0FOTg5mzpyJiy++mC26iE6TRDjfOp8RnSOCIECn06GqqgoNDQ0wmUxwOBxQqVQIDQ1FfHw8tFotkpOTTytIWiwWfPvtt3jyySe9RvIsKCjAokWLMHHixF7Pr2qz2dDS0oKGhga0trbCYDCIfSpVKhXCw8Oh1WqRkZHBATLOA83Nzdi7dy/q6+ths9mg0WgwaNAg5OXl9auHEoIgoKGhAYcPH0ZTUxM6OzvhdruhVqsRGxuL9PR0pKWldTsv9rkmCAL0ej0qKyvR0NAAvV4vPpCIjo5GRkYGsrOz2d+XzgtOpxN79uzBvn37YDKZoFarkZmZidzc3B4fWvljtVpRWVmJgwcPQq/XQ6FQICUlBQUFBYiNje2z6cccDgdqa2vF0Y/NZrM4f318fDwyMzNP+xral2w2m1jOtrY2dHV1idMLRkZGIjk5GVqtFpGRkX22b3oiCAJMJhPq6+vR1NSE9vZ2dHZ2wuFwiK1qYmNjkZmZidTU1F43VSci/xiAic4wQRBgt9tRU1ODt99+G//+97/FWji5XI4//vGPmDdvHlJTU9kMkoiIiIjoDOIjJKIzpKamBjt27IDb7YbJZMK2bdvw3XffeTVBjY2NxaRJkxAfH8/wS0RERER0hjEAE50hGzZswP333w/g2KizNpvNax5CpVKJiRMnYuTIkez/R0RERER0FjAAE50hdrvda47h48lkMgwbNgzXX389UlNTz3LJiIiIiIgCEwMw0VnkmfqmoKAAd911F6ZMmXLeDhhERERERHShYQAmOkMSExMxefJk8f89I83m5eWhuLgYQ4cO5RQGRERERERnEUeBJjpD2travKY7kkqlCA4ORnR0NMLDw8/K1ApERERERPT/YwAmIiIiIiKigMAqKCIiIiIiIgoIDMBEREREREQUEBiAiYiIiIiIKCAwABMREREREVFAYAAmIiIiIiKigMAATERERERERAGBAZiIiIiIiIgCAgMwERERERERBQQGYCIiIiIiIgoIDMBEREREREQUEBiAiYiIiIiIKCAwABMREREREVFAkJ/rAhARERH1RwaDAbt27UJ9fT1cLte5Lg5Rn1Or1Rg/fjwSEhIgkUjOdXGI+gQDMBFRH2vX69Gga4KDN8TUDblUivioGMRER0Mu46W4v6qoqMBrr72GPXv2QBCEc10coj6nUCjwyCOP4I9//COUSuW5Lg5Rn+BVl4iojzVZDdgu6CBoeLNA/gkWO3L0ToSFhkEezEtxf9XU1ISKigo0NTUhPjkBwcHB57pIRH1CgIDGuiPoCZCKkQAAIABJREFUMHVg7969bOFAFxRedYmI+pgDLnQpBSBMca6LQucpt+CEtcMOt9t9rovSZxwOB8xdZjidznNdlD4nk8oQFhYGudz7tsntdsPlciE+MR5z75uLgYMHnaMSEvUtl9OFN+f/HVs3lsLpdLKFA11QGICJiIjoN2tta8Xhhioogi68Bz8OmwPamBSkp6X7fV2lDkJmThYGFw45uwUjOkOcTic0ERpIpOz3SxceBmAiIiL6zRwuJ6QqGSISo851Ufqcsc0Ai8XS4zpSmRQymewslYjozBLcAqQc9IouUAzARERE1CckEgmksgtvhkWJRMImoEREF4gL7ypFRERERERE5AcDMBEREREREQUEBmAiIiIiIiIKCAzAREREREREFBAYgImIiIiIiCggcBRoIiIiOufcLjc6TB3Qt7XDarVCKpUiVBOG6JhoqIJUvd6O1WpF+9F2dJo64HK5EBQUhIjoSERGRZ7B0hMRUX/BAExERETnjNvlRn1dPb786HOs+u4HtLe1w+FwQCKRIEgdhMTkJNz/xAOYePEkKFXKbrfT1dWFn7//CV989Dkq9x1EV1cXBLcAuUKOkJAQTJvxO8y5949Iz0g/a9+NiIjOP2wCTUREROfMkYYj+Peb/8LSDz5FQ30DrFYrBLcAl8uFTlMnDuzZj6cfegqrlv/Q7Vy8VosVq//7I95e+Ba2biqFyWiCy+WCIAiw2+xoO9qGLz76HK889Te06lrP8jckIqLzCQMwERERnRMdpv+PvfuOj+uq8z7+uffOnV4kjTTq1bLce4tL4sQxKSSkQiAkLJDQlqWEfYBll332gYXdZx92Awuk0BKWlpDNboBsOilOsWPHPbYsybYsy+q9Tp977/PHJHZsSbZsy5bL7/16QezRvWfOHY2l+51zzu8M8cKTz/HHR/+Apmlcdd3VPPDbn/DKrtd4btMLfPVbX6Ni6hT6e/v55298l7176kY2YsHOrTt49KFHaKw/yJSqSr76ra/x9IZneb12Az//r4e47ubrUVSFN1/bwC/+/WcMDw2f/YsVQghxTpAALIQQQoizzjRNDtY38Mrzr2BisfKKlfzV17/AZWtXk5ObQ3F5CR/7zMf5wje+SEZmBv39/fzXbx8nGo0e1U44HGbz+reo2b2HopIiPvmFu/jwJ26nrLKczKxMVqxeyd9/7x9YdcWlJBIJ1q9bP3qQFkIIcVGQACyEEEKIsy4ei1P7dg17q+soLCzkqg9cw7TZ01G1I7cmul3n2pvez6VXXoZlWax/eT2tza2Hv25ZFo0HDrJz806MlMFl71vNpVdehsfrOeq5MrIy+PQ9nyE3L5eO1nbeePl1TNM8a9cqhBDi3CEBWAghhBBnXTQaZV/dPiLhCFOqpjBt1rRRj1MUhSvfvxany0l7axsNew8c/pqRMmhpbKG5qRmf38ec+XMI5gRHbWfKtEqmz55BLBqjvm4/gwODZ+S6hBBCnNskAAshhBDirItGojTsa8DhcFBYUkhmdtaYx1ZUVZCdm0MymWRv9ZHpy/F4nM72Dgb7BsgrzCevOB+bbfQNLtxuN7Pmz8IwDHq6euls6ZjwaxJCCHHukwAshBBCiLMuGU/Q3tqO3WEnmB3E5XaNeWxmdhaZWRmYpklzU/ORNpJJ+vv6iUQiBHOyCPgDY7ahaiqlFWVYlsXw8DB9/X0Tej1CCCHODxKAhRBCCHHWpVIpBvoH0vv0+jzY7WPv8evxePB4vFimRV/3keBqGAaRcIREPIHH58XlGTtEq6pKdk42lmURj8aJDEUm9HqEEEKcHyQACyGEEOKsM02TeDyOoqrY7Dqapo15rN1uR7frWJZ1VBVoy7JIJpMYhoHD7kDTR5/+DKCg4PK6sCwLI5UikUxM6PUIIYQ4P0gAFkIIIcSk0JRx3oYoR/6oHnOOoiiggKVY427DUt45TwghxEVHArAQQgghzjpVVbE77GBamCnjuNsSpVIpUqkUiqLgdDmPtKGo6Hp69NhIGhiGMWYblmWRiCVQFAWbzYau6xN6PUIIIc4PEoCFEEIIcdapNg2Pz0vKSBEOh0kmkmMeGwlHiEViKIqCL8N3pA1Nxelyous64XCYeDQ2ZhuWZdHb0wsK2B12XK6x1wsLIYS4cEkAFkIIIcRZZ7fbyc3PIZ5I0N/bTyw2dngd7BtgoH8AVVMpLCo8/LhNtxHICOB2u+nv7WdoaGjMNkzDpLWpBVVR8Xq9ZGRmTOj1CCGEOD9IABZCCCHEWedyuSgpLyMeidHa3MrgwOCYxzY3NdPR1o6maUyZVnn4cYfdQXYoB6/fR2tTC13tXVjW6GuBU6kU1TuqUVWVQEaA7Lycib4kIYQQ5wEJwEIIIYQ461xuF1UzqnA4HRzYd4ADdfVjHvvan18lPBwmlBuiambV4cdtuo2i0iIKigro7+2nZtce+vv6R23jYH0D1W9X43A6qKiqICuYNeHXJIQQ4twnAVgIIYQQZ53D4aBy+lSKyoo5VN/I+nVvpNfoHmP/3v08+4dnsCyLuYvmkV9UcPhriqJQXF7CtNnTSKVSrH95PXW7akmlUiPaefKxP9HUcIiMzAyWrFiKqsktkBBCXIzG3jBPCCGEEOIM0WwaVbOmsfbatfys7qc888TT2Gw2brjtRvKLCkgmkuzZWc3P/v2ndHd248vw85G7bsfr8x7VTkZmBiuuWMnG1zey5+1qHrj3fv4i8nHmLpiH0+mku7OLF5/6M7/5+a/RbBrLL1/BvCXzJ+mqhRBCTDYJwEIIIYSYFIGMAKuvupytG7ey7a2t/P7hR3nj5TfIyQ2SSpgcrG+gu6sbt8fNrR++lQVLFo7azuz5c3jfde+jr7uXrW9u4VB9I0VlxbhcLjo7OjmwLz29unJqJR+880MEMgJn8zKFEEKcQyQACyGEEGJSKIrCjLkz+dI3v8yjP3+EzRveormxiYZ9Bw7v+VtcXsItH72FO+7+GJpNG7WdYHaQ2+++A7vDzjNPPENrUws7t+7AMi1sug2/38+cJXO563N3M3/JgrN8lUIIIc4lEoCFEEIIMWl0XWfewvmEvhliy8Yt7N6xi96uXmw2GyUVJSy8ZBHzFy/A7XEft51gdpDb77qD+YsXsOXNzTTWHyQWj5MdDFI1ZzqrrryUvPy8s3RVQgghzlUSgIUQQggxqTSbRlFZMUVlxdz0kZtPuR2f38fSVctYumrZBPZOCCHEhURKIAohhBBCCCGEuChIABZCCCGEEEIIcVGQACyEEEIIIYQQ4qIgAVgIIYQQQgghxEVBArAQQgghhBBCiIuCBGAhhBBCCCGEEBcFCcBCCCGEEEIIIS4KEoCFEEIIIYQQQlwUJAALIYQQQgghhLgo2Ca7A0IIIYS4MKQSSSLDkcnuxoRLRBNoDt9kd0MIIcQEkAAshBBCiNNWEMrH7/aRSqUmuysTTisqxOcbOwCnkil6Ontoa2k7i70S4swxUwaxaBwssCxrsrsjxISSACyEEEKI06brOpmZmZPdjbMqlUphGAZdLV386F9+iMfrmewuCTExLDhY34BhGMTj8cnujRATSgKwEEIIIcQpSCaTJBIJYrEYBxsPoqpSWkVcGCwskrEklmURDodlFFhcUCQACyGEEOK0GYZJMpnANC+8G2VFUXA47CMCrt1ux+Fw4MrxUL52Gp6iwCT1UIgJZljU/081vfu68Pv9KIoy2T0SYsJIABZCCCHEaevvH+LAgW4SicnuycSz2SwqK4MEg0dP8dY0DVVV8eUEmPf5lRStqJikHgoxsUzTZKixn/4DPei6PtndEWJCSQAWQgghxGnr64uyd6+JZeVPdlcmnGX14Pd3jQjAQgghzj8SgIUQQghx2kwTwI2ueye7KxMulYpjGNHJ7oYQQogJINUahBBCCCGEEEJcFCQACyGEEEIIIYS4KEgAFkIIIYQQQghxUZAALIQQQgghhBDioiABWAghhBBCCCHERUECsBBCCCGEEEKIi4JsgySEEEKISWVZMDjYx969G9i79zV6elrQdZ2iojnMmrWWkpI52GzKuNpJJg1isSGSyRiWZaHrTgKBC2f/XtM0SQxESYWTJzzWUkB36zgzPSO+ZiRSRPvC9NZ20rWjlb66TmK9EVSHDW9BgMIVZeQuLcaT60MZx3iJhUlyOEFyOIGVMkFTcPid6B7HKV3n2M8DqViCzrdbaV3fQE91B8mhGDavg6xpORStrCB7fgF2j5MTvWOGWvpp3nCA1vUHiXWHUWwqmTNClFxWSWh+IbrLPua54fbB9HWeBEe2G905dpuJoRhdu9toeeMAPbWdGOEEisuGryhA9vQ8ClaVk1EaPKnnFEKMJAFYCCGEEJPGMODAga089dT32LXrBeLxMJZloSigKBoez/e4/vq/Ye3az+NyjR6mYrEEbW11HDiwmfr6zdTXb6Kn5xCpVJyZM9fw9a//6Sxf1ZkzcLCHDd96nn1/2HXCY212jSk3zObaX370qMeHWvvZ/fAm6h7bQf+hXoy4AaaFZVpYCqiKwvb7dELzClj0pcuYctNsNPvIW0YLiHQO0rWjlbath2jbeIiu7S1E+yK4gh6WfWMN8z+3aqIuHYD++i623fc6e3+/k0hfGAwLy3qn35qKM8NF1Q1zmH/PKnJmFozahpky2P90NRu//QLddR1YSRPTsgDQVJUdueuZ8dGFLPjcSgJlowfO/1z7AAONfSfV92sfvp2pN89BtWlHPW5ZFt2729j6/Vepf3YPsf4opmGiWOkPMRRVQVVV5n3qElb/2w3YHPpJPa8Q4mgSgIUQQggxKSwLDh3axeOP/z3V1S+iaTrBYDEeTyaGkaKvr5XBwS4ef/zvCIf7uO22f0QdZTDy9dd/zeOP/z3RaD+pVOKdttOBJpGIns1LOuMs0yIVS5IYjoMCijL2OKeZtGHEUyMeD7cO0vjiXjp3t6HZNBxBF55sDzZ3+gOG+ECMwUN9NL/ZwFDLANG+MLPvWoamH33bGOsP88zHfkfrpkaSQwlMy0RBwbIsNLcNI3lyI6QnMtTaz4ZvP8/e/36bZDyJO9uDN9+PzaFjxFMMtw8S7hpm5682Ee4e5vIf3DhixNTCpPrXm9nwrecZbO5Hd9sJVAWxeeyYCYNI+zCRtiG2//gNkkNxlv/DVXhzAyP6kowkSUYSx++wBVb6//Dk+rD57KAe/f0yLYPW9Qd57W+fpvXNg6i6hjvkxZ3tQbPbMA2TZDhOrPfCeh8LMZkkAAshhBDnKdM0icViKIqCzWZDVVVUVT1uKDqXDA8P8tZb/0119Yt4vUFWrLiD1as/SX7+NBKJGDU1r/L00//Cvn0bee65f2fevGuYPn0Fx15eIhEhHh/G6fSRk1PGlCnL2LPnZdra9k7OhZ0lldfNovSqaeiuMUYENYWMsqyRj9sUdI+D/CUlVFw3g6JLKwjOyMOV7cFSLIabBtj7XzvZ8cAGBpr72P3bzWTNzqNo5ZSjphWbpkmsPwoGeHK9hBYWkT0zj83fXzfh12qmDA48vYfm1w9gxFNUXjeLBX+5kvzlpTgCThKDcdq3HGLng2+y/8ndtG1qZP8fdjHv8yvR7Uden67dbWx/cD0Drf0Ep+Sw+OuXU/GBmXiyfSQjCVo3N1L9803s/dNuGp6qITS3gJl/sWTEdOjL/u/1JIZix+1zpHuYusd20LmzlYKlpWROzUY55hOccOsQb37nBdo2NuIrymDG7QupvG0OwSkhdK8DM2kQ6woz0NiL5tFHHYkXQpwc+VckhBBCnKcaGhr48Y9/jKZpLFiwgLKyMoqLi8nIyMDlcqHr+jkbhg0jPfq7bdufsNkcLF9+Ozfc8LdkZmYD4HDoLFlyPTk5pdx77w10dx/kz39+gNLSBbjdrqPaqqxczsc/fh+VlcvIzi7Dbnfxwx/eSnv7/sm4tLMmd2Ehsz+xBIfPdeKD38Ob7+eSv38f/tJMvPmBEe+RjPJsFn15Nb7CDF665wn69nXT+kYDBUtLjxoF1l125n1mOd6CAKGFhbgyPaQiCbb84NUJub73ig1G6dreQqRzmJzZeaz6p2vJmV14OJA7/C5K1kzDV5RBuG2Qtq1NdO5oIdYdRi/IACCZSFL/x90MHujB4XZw5f23UHpV1eE1zg6/i7Irp+PPD5BKpAN3w7O16Q8IZuYf1Z/pH15wwj4feKqaut9vx+bSKXlfVfq1fs/XjUSKmke20vjSPjLKgyz72yuZ/tGFR60TVh0q3qIMvEUZp/X6CSGOkAAshBBCnKdeeeUVfvvb39LT04PL5aKoqIjy8nLmzZvHwoULqaqqIiMjA7/fj8vlwuFwYLOdG7/6k8kEzc276OysJxSqYM6cqw6H33cpCpSXz2HRoht54YUfs3//Rrq7GykpmX7UcdOmLWHatCXHnHtuBv9zgTc3MOq03vdS7Tbyl5aQu6CIpnX1DB7qw0yZaO8ZbLa7HMy9e/lR56XiJy7OdSrMpEGsP4oRT5G/rOyd4lxHUwBXyEvBijKa32wg1h8lFTvSn/hglO7qdhKRJCWrp1C0qmJEgS8F8JVlUbp2Ki0bGujY0UJPXeeIAHwi8f4I7VuaGGztJ6M8i4IlJdjdR69hHzjUS+3jO7A5dUqurGTqbfOOWyRLCDExzo3fgkIIIYQ4aZFIBNNMr7OMRqPs27ePffv28cILL6CqKsFgkLlz57JgwQKmTZtGRUUF+fn5ZGdn4/P50HV90qZMx+NhDh3aSTIZp6hoFkVFc8Y8dvHim3n99V8xMNDGoUM7RwRgMfEUwOax4wn5MA0TI26k17NOVn9UBVXXUFQFxaaM+Z5VFAXFpoKqYNNtKNqRgGtGUkTahzASKfIuKUHRR69urbt1AmVB3EEPfQd66NvXRSISHxFgj6fvYA8tbzaQHEpS8tEqfOUjK5G3vdlIT3UHvoIAU2+ai9PrwsLEMt9zLfJBjhATTgKwEEIIcQEyTZOuri5eeuklXnvtNQKBADk5OZSWljJ37lymTp1KaWkpeXl5BINBAoEAbrf7rN1wx+MROjr2Y7e7CQZLcLvHHpHMzi4hIyOfzs4DtLRUn5X+nQ8S0STD7YNEeyPpwlM2DZtbx5nhRh2tWthJsID4cIzh9kFsLh1n9um3eTp0l51ARRb2TCddb7cRbh7Ele05agTXwmS4dYCu7S04vA78pZnYfUdCq2lZGCkTLLA77WOHaFQUXUVRFSzDZKipn8RAbNwB2DJMOre30F3djifPR/6yEhyZ7hHHtb3VSCqRwleagX9KFkNNffTu7SLcOYiVsrC5ddwhLxlTsvHk+Sf19RfiQiIBWAghhLjAJZNJuru76e7upqamhueeew6Xy0V5eTkVFRVUVlZSWVlJRUUFhYWF5Ofn4/F4sNvtZ2zKdCoVp6+vBV134PNl43CMDAjv8vmy8Xqz6OjYR3d34xnpz/moY2sT26PJw3vv2jw63rwAWTND5MwtILMyZ8SWO+NlJlN072ija1cb3jw/2TPzUPVTa2si6F47JasrObRuP51bW9j9q7eoHJpD1tQQmstGKpakv76H+j+mC2BlTQtRurYKZ+aR9dGqTUX32kFTGGjqwzBNVEZek5kyiPVHSMSSmIZJrCt84orP7zHcPkj7xkNEOoepvG4WufMKsdlHFirr2tmKZtPwhHz07+2m4dlamtbtY+BgH2bSQM9wkFGcReFlFVTeNJv8S8qOKuglhDg1EoCFEEKIi1A0GmXPnj3s2bMHp9OJ1+slOzubKVOmMHXqVMrKyigvL6e4uJiysjICgcCEjkAZRpJIZBBVteFweNG0scOVw+HB4fBiWRbDw70T1ofzXcv6g7RuaMRMGliWhaqp2Bw6riw3eUtLmPaR+ZRfO+Okpu6+q3dvJ9W/20JiME7xpVPIX1YyqSOQCip5y0qZc/cl1Dq2svcPu2jb0kTOjDxsPjvJcJyeuk4G63vJmVfAjNsXUnRpBapy5H1l89rxF2eiO3Ra1zcQbR9CLxlZJTvaF6Z7RwvRrmEsyyIxnMAcZTup0ZimSU91O+3bm9DsNvJXlOIryxqxXhlgqG0g/Z5uHWD7/W/QvP4ADq+TrBkhNF0j1h+ht66LnrpOut5uZfk330fR6koZCRbiNEkAFkIIIU6TkUrR39JBPBqDUW91jxFN4I26CEQU3K6Tq+D7Xu3t7RiGccrnvysWixGLxeju7qa2thabzUZWVhb5+fkUFRUxffp0ysvLKS8vp6qqitLSUnT99EaiLMsklYqj6y40TR91f993aZqKptkAi2QyflrPe75TFAXdbSezIpuMyiC+4kwcASeKBdG+CP313XTtamPfn3bRX99NKpJk+kcWjNjD93jC7YPsuO8NmtbtJ6Mii6oPziOjMvvEJ55hNpedwlXlDO7voXt3Oy3rG2h+48DhryuKgjfkJ3dxMUWXT8HmOTr4O30uClaUceC5Grr3dLDjwQ3M+dQy/MWZ6T13TZNozzAHn6vjwDO1JIbiYIGRTGGY49vTODkYo23LIfr3dZNVlUPuoqIxP4CID8YwkwadO1tRHRqFK8qZev1sMqZmozo1op3DtL95iNondtL82gG2Z7xBoDKbQPEoW1sJIcZNAvB5zrIswpEI0cT4p+YIIcCuaQT8/snuhrgAWKbFgbd28sZ//IlwTx9w4tEZxTTwGDoBu+u4I58n0tjYSDQaPeXzx5JKpejs7KSzs5Pdu3fzyiuv4Pf7yc3Npaqqim9+85vMmzfvNJ9FQVXfvfbxFFey3jnn4r51sWc4mXrDbMqvmUHW9BCekA+bVwcLEkNxws0DNL6yj90Pv0XX7jbefngjwRm55C0uGVf78f4IO3+ygZrHtmN3OZj+0YWUXVX1zgcQk8cChpr7qH10G/XP7CE+HCM4I0TGlGzsbjuJaJKhA330N/XQ+Oc6bA6duXcvw1cePPyRlKqqlK6t4sAze9j/ZDU7H36TgQPdFKwoxxF0Y0ST9NR00LyunqG2AVw5HqKdYVRbuvjWeAy29tO6/iBGwiBvaTEZU3PGPFax0j8/ksMJ8meXsuwbV5K/rBTdaccCLNOkaNUUVIeNHQ9toOHPdUzf1CgBWIjTdHH/FrkADCeT/FvTIb5XWDDZXRHivHJ1ext/lAAsTpNhGNS/uZ2X73uE2nWbAdCd45tuqqFgU05vKmM8HieVGt/UzFNlGAaRSIRIJEJHRwfd3d309p7+NGRVtaHrLgwjQSqVwDRhrM8CkskUqVQSUHA6x14rfDFwZbkpvWY6NrttxPpeZ8CNvyiTzBkhvHl+Xv7rP9JT08GhF/cSml94wvXAscEIm/7pRfb8bguKTWHmnYuY84llODI9Z+RaWrc3UvPLLemR1mP4SjOYc/clh8Neoj9Cze+28vbPNmImDBZ8cRUlq6fiK/CjOm0Y8RThtkFaX29g139sZtd/bEK1qcz7/Ao8oSM/6/1FmSy6ZzWaqrL/2T3s++Numt9oQHPYsAyT+GAM3aUz5ZqZxPuj7Puf3ehu+7jWPxvJFF07W+nc0YIv10/h8nK8uWP/ntHdDiCMw++g/P3TKVpZcfh7pACKquLJ81N12zya36in+c2DHHppH1UfXDCeeSZCiDFIAD7PxQ2Dh2JRkj4f45p2J4QA4E/Nze+MJwlxakzTpGn7Hl554FH2vr4VT6afpR+5jqyi3BOeayVS5CeclGXkYNdPfd/PdevW8dRTTxGJRE65jeNRFAVVVcnLy2Pu3LnMmTOHKVOmTMDoL2iaDY8ng76+VmKxIVKpJJo2+rTqeHyYWCycnuLqDZ72c5/PVEXD7j5+GHMG3JS9fzoFvy+l8dX9dL7dihFPHTcAxwYjbPvx6+x6aCOJaJLZf7GE+X+1Em/B8fcLPh3DB/upfXwHke7wiK/lzStk6s1zDwfg7poOGp6tIdobZt5dlzDvMyvwF2ccVQU6OCOXrJm5mIbF1vteo/7ZPRSsKsez9ugQWnBJGa6gm9DCIppeSb8+kc5hNLdGaF4BlR+YTe6SYnb/ajOoCs4sN7rrxP9Oo91hWtc3Eu0OE1pbRc6iQjT72Lfa7pCXgcZedJ+T/EUlY35/sqbm4C/JRHurid7azhP2QwhxfBKAz3MWMASMZ8qdEOI9ZG9FcRos06J+/TZevO937HtjO96cLN7/vz7JrGtWYXc7T3i+ORRjWtjF4sIqvB7vKfdjeHiYF154YUIDsK7r5OfnU1FRwYwZM1iyZAnz5s0jMzMTn893uGDW6T+Pk+zsUjo76xkc7CAeD+NwZIx67MBAB0NDnaiqRm7ulNN+7ouBI+Aic1oODS/WEe0OYxpjr2GNDUR4659fYtev3iI+HGf6h+az/P9cha9g9O/HRPHk+SldW0VicOQIcKA8C2fgyPr43rpO+g704A35Kb1mOr7Co8MvpAtleXMDlKydyv4nd9F/sIee2nbK1k476jhVVQlOy8P7lwGmf2QB8aEYZtIEDRxeJ86gm/693Qw39aPZNPxlmTgyj79W37Is+vZ30fJGPZrLRt7SYjIrx57+DBCcFqJt8yE0XTtu+5rbhs1tBxXiAzH54FaI0yQBWAghhDgJVsrg0M5aXvnJY+x7bSve7Eze94U7mHvDFbgDvnG1YRoKTsOFx+M9rTDpcDhOa99eRVHQdR23201BQQErV65kyZIlTJkyheLiYrKysvB4PKf9PKNxONzk5VWxY8czdHU1Mjzci98/euDq6Kinr68VTdMpKpozof24UFmmhRE3UBQFxaaOOd0l3h9h+w9fo/rXW4h0DVN18xxWfvuaMx5+AfIWF7PmhzeDOXINuGbT0ANHlhMkh+MYsSSugAtXlhtlrKppioI904nucZAIx0kOjV0jxeFz4fCNDJ5GMkXvvk76Gnpw5XjInJqNw3P8D7aS0QTt25ro2dtF9vRc8peWYnMef9Q4NL8Q5XdbMZIG8YHYmMelYilSsWR6/2KfQ2YvCXGaJAALIYQQ42RZFgfr6HZnAAAgAElEQVS37+H5ex+m9tUt+LIyuPZrd7HgxjU4/ac/Knq2+P1+pk6dyvz585k7dy6XXnopJSUlOJ1OdF1H0zRUVZ3w0PtedrubkpK5uN0ZNDfv5uDBbRQUVIx67MaNj5JIRCgpmUth4awz1qcLSaw7TOuG9NpWb0EgHYKPPWYgwtYfrGPHT98k0hOm/H3TuPKBW/GGzty05/fSdBvurPH9u7G5dDTdRnw4TrhjCNNIjVqYyzLT+/bG+iM47HZsrpOvVj7cMkDj83sZau6n4prpBGflnfCcSNcwB5+uRVEUQvMLyZlbcMKQmre4GG+ej/hglLbNjSNGqt811NDL4MFejJRBcPaJ+yKEOD4JwEIIIcQ4WCmDprfrePGHv6Hm5c0E8oKs/eKdzLtxDc5xjvxOBl3XD1dwnj9/PqtXr2b+/PkUFBSQnZ2N3W6flH1F7XYbxcVzKCqaxd6969my5Y+UlS0kP7/i8AoF04QdO15g587nUBSF2bPXkpVVeNb7ei5JRhNYCQN7YOwps5HeYTb/2yt01rTjC/nJW1qMfsxoZGwwwrYfvcbbP99ItDtMxdXTueKHN5218HuyAiVZePJ8dO1qY/8Tu8iZV4C/+Oj9dS0g3DnI/j/upq++h8yKIIGy8VdMtoBo9xA1j25j35924Q35qLh6BoGy4687N4wUXdtb6Hy7FWfQTf6yEryFJy6ymDUnj/xLytj/5G4anqml/H3TyV1cdNTU7mQ0wZ7fb6Onuh3VplJ61TQZ/RXiNEkAFkIIIU7ANExa9uzn+e//kuoX3sQbDHDlF+5g6Ufej9N3Zirkjsd7R2jfHbHVNA1d18nNzWXp0qUsWbKERYsWMWPGDLKzsycl7I5GUSA/fzpLltxKff0mtm9/EtM0uOKKT1FSMo94PMqOHU/x/PM/Yni4F58vxJo1f4ndPrJQkGVBKmUetSfyu382TYNYLHn4cVVV0HXbeVsGoP7Janb9xyZK10wld1ER/oogzgwXiqIQbh+kfWsTex7eTNPrB9BsGnmLi6l4/8yj3ivxoSg7f/YmO3/6JsPtQxQtL2fFt67GWxAgGRt9yrCqqai6bUT4Mi0DI37kdU9GEphYKBaY8dRR7am6esrbKQVn5xFaUERPbSfVv9lCMhxn2kcWkLe0BHvASXIwTse2Zuoe3U7dE2+jKAq5C4rImTdyl4zax7ZjqRY5s/PxhHxoDhvRvgjdO1qpfWw79U/vIRVLMe1D0ym/ceYJC2AlhuI0vriPWE+EglVlFF5WMWJ98mhcWW7mfn45B1+qo31LE+u++kfmfWYlhavK0T12+vZ3s/fxnVT/dguxgRiV18+i4JLSU3r9hBBHSAAWQgghjsNIpWjeVcfz3/8Ve17cSEZRLpd/9jYWf+jqSQ2/ACUlJYRCIdxuN4WFhZSWlrJkyRJWrFjBlClT8Pv9OByO09pr+ExyuRwsXHg9TU272LTpP9m8+b/YufM5dN2BZZnEYkMYRoLMzCI++MFvUVhYOWo77e2N/OEP/8jbbz93+LFwuBfDSLJ373ruuafs8ON5eVP53Od+TV7e+PbFPdfE+sI0PFdL08v7UZ0amtOGTbFhKiaWYZIMJ0lFk9g9DgpXlrHi/1yNryjzqDb663tofLaW4dZBLMuifUczT3zgF6jH2eu2/JoZXPrP1+HJO3pkc//ju3jj288S70vvR22aFpZhEu2JsP47z7Pl++sOH7voK6vTWxDpJ3/76c0PMPuupYTbBml6rZ66/36b+mdqsHl0NEXDsAyMSIpkJIFq1yhYXsqcTy0bdfS2+qFNNG88iOpUUVUNVVEPn5+IJXBmuph+43wWfn4V/vzMUXpzhAWEmwc5+HwtutdOwbKyE44Yv0tBpeCSMpZ9bQ077t9A0/qDtG9pwebVUVAw4ikSkQSqqlKwrJRl31yLN/fcHKEX4nwiAVgIIYQYg5FK0bannpd+/Eg6/OZls/LjN7L0Q9fgzpz8G9E1a9Zw7733omkaFRUVh9fxnk9CoTKuu+5ruN1+tm9/muHhXgwjjqJoeL1BsrIKuPba/8XSpR8cc9TWskxSqRiJxJFq2LruRNfTr8V7H08kIljW2BWRz3WODDdZlTkk40mMRAqSJkkzPcqq2FWcQTfuLDdl75vOnM9eQlZlaNR2NKeO3X+kyFTqPaPkozESKSxrZLEqI2WQiqSD2uE++o+8B9/7uJE00onxFBWuKGP5P1yF/5ebaXp9P/HeGEYiSdI0UFUFu8eBt8hPwbIyZn9yKUWXVaCMMmHYXeDHle0hGUlPJ09YSTRVxe5zEJwWovz6Gcz++NJxBVnLMmjf0UysJ0zm1ByKLq0Y15ZJ73J4Xcz73ArsARfVv9lMuHkQI57EsCxUh0YgK5OiyyqY+5nl5C4qPqnXSwgxOgnAQgghxCgMw6C1ej/P/L+fU/PyW2QW5nLp3bey7Pb3nxPhF8Dn83HddddNdjdOi6pCUVElt932z6xa9TEaGrYxMNCGptnJy5vK1KnLCQRyON7Mba83i4ULbyQvr+qEz+f3h/B6jz+qdy6rvGk2oQUFDB3oY6htgFhvhEQsgaZpOAJO/GVZ5C4uwhPyjTkN153npepD88hfMv5R8MwZOdh9jhGPZ8/MY97nlmNEUydso3B52ajFuMZLQaVgWRl5S0roqWmne1c7Qy39GJEkNpeOtyBA9sw8grPzjrvn8eX33kBvbSd9e7uIdA+TiiWxue1klgfJXVyMtziAqoxz1oSl4HDbWfTly/CXZZG//OSmKCuAO9vHgr9axdQbZ9P2ViMDDb2Yhokn5CN7Tj7BWXnY3SNfeyHEqZEALM55ZlcHVjwGHg9aZvZkd+ckGViDQ5ixGKSS6TVYNh3F4QCvB0U9+eqUE81KxLB6urEMAwoL0ZRT/7FgDQ9i9veB3YEWkkqV4vxlWRZNb9fxyn2PHA6/yz92A0s+dDWecyT8XmgcDp3y8rmUl8896XP9/gCrVt12Bnp17tGddoLT8ghOO/Wfsb68DOZ8YtmE9CdnfiE5889uYTJVVcmZVUDOrJHre8fDFfRSuNJL4crRq46fbF+m3jKPqbfMO+12/CVZ+EvGX7RLCHFqJACLU2bFIphbt0LKgCnlaEVnpjCD9YtfoO2rx1y0AP7qi2fkOSaeiVG/H3VXNdTWQEcnRCKgKCheL4Ry0EpLSVZUoEypQM3KZrJ29TPr6lAeehhtcAjju9+GgtOYYrXuVbQn/oBRXIT1t99AcbonrqNCnCVWyqCtroHn/vln1L6+layCECs/cTOX3PkBPJknruwqhBBCiHOXBGBxysy2Vvjf/wDhKPzlZ+ATd52ZJ3rqGYwNG2Cg/7wIwHo8SmzdqygPP5z+gKCnO/0aGQYWYOk6uJyYgQBKSSnWLTdhfPwvJm90+1AT1u8fw+jowPbX92AdE4D1gT5iBw6Ax4uzuIika+yiP+b27fDLX8LcOdj/+iskJQCL84xlWjRs3c3LDzxKzbrNZBaGuPTuW1l82zUSfoUQQogLgARgceqSBhw6BMNh6O+f7N6cM2LPPY/6f/8F8623ICcH5s2HkmIUry9dQCQcRunqhKZWrLo6eP0NuOEDMFkB2OlECeVgqSop3c6xq54S23fAd/8JdeYMYp/9DNqsOZPSTSHONCOVomlHLS/8+6+oeXEjmYV5XHr3LVxyx/W4MiT8CiGEEBcCCcBCTCCjpxN++lPMbdtQqqZifebTcOmlKHm5WF4vimVhRSLYevtItrRC/X4UlwsrMHlrCpXZs1C++12IRXEU5HNsHVCtox3zpZcww8Not31oUvooxJlmmRYHN+/ipfseoXbdZtwZfq788h3Mv+FKCb9CCCHEBUQCsBATSN26HXN3NSST8JV7cN55J0mP7+iDssAsKkWbOx8rFsEej5MMTN4NtpqbDzfciAIjwq8QFwMzmeLA5rd5+f5HqXnlLTLyclj9mdtY8sFrJn2fXyGEEEJMLAnA4iwyUHbsxNi7FwYGsBwO1KJirDmzUXNyT6IdE6PhAOrWbVh9fdg8XpKzZuKcPp2kwzXuVvSBPmI7dqIcqMeyLNSCQswli9CCo++ZOK6eHWyAaDj9lw99cGT4PYbidI97nazZ1YG1bTtKcxPY7WizZmGbNWvENRt1tSjbt8HAAEowiLl4MVpZGYyxHcaZZWG0t6Fu247V0ozlcKBVVmLNnYvilVE1Mfks06Jx+x5evv8RatdtweXzsPbLf8GiW9ZK+BVCCCEuQBKAxVlgYbz+Gvz85yg7dmINDUE8gaKpmF4vSlk55k03wC23HD8Im1Y6tD70EOoTf8BsaYF4gpRug6wsEldfjXn3XWhTqzi2orKxayd86R4oyIUvfBESSYyHfgGbt8DwMJgWltsNVVVYn/4U5geuQ9PGv5H9uxTLwnrnz9refViX5Jx0GwDG5k3w9W9AMAu++XfQ2pZ+/ar3YEUioGmkMjMwb70V6+5PohaWYPR0ot7/IMqTT2F1d0I8geVyQlkZ5h0fxfHRj45awMrY9Cb8y/fS67h/+RBaWXpbCKNhP3z28xgtrekDa2swvvglyDhm/8y/vgftAx/gvQFbsSxiAwMozz8Pv3gYs+EAhCNgs2H4/LBoAXz5S2iLFjE5wVwIMA2D+g3befmBR6l7fSv+3CBXfeljzL/5Slx+72R3TwghhBBngARgcYZZGH/+M/z9P8DOHVjJJDgcYNOwDBM6u7DqD8C+vdDbi/mpT40dgsNhYr/6FfzrvZgDA2BLBycrkYLmFszWNlRVxfzKPSPa0AYGMF59FUqKUefMxXz+z7B1a7oys6ZCysDq6IDGRsxDh9AryjHnzj/pq1WKS7DsTgBS3/zfqF+5B9Zcgelyntz+ut098OqrEArBunUoj/4nVm01lmGBpkAiBS0tmJ1d4Pdhfvg21PsfxPzFQzAwALoNDBN6eqCpGSscJRYKoX3geji2zFV3D7z5JnR2YhsePhzgGQ7D669DLJb+e/8g7NgJyjHbNd3+YQzLRFOOBFkrGkV59ll48Cewb3/6wff0mwP1kEhgfO//oZWUjf91EWKCmIbJoe01rPvpY+x9dQueTD9Xfv52Fty0Bpf/+DM3hBBCCHH+kgAsziijtga+9W3YthV0HeWLX0C54QbMKeXQP5AOeb95BHbugPsewMrPx/jYnaOPvu7YDg0HYOFC9Ds+SnLJYgCUDRtQfv4LzM1bMB/+JeratbAmxHtHgQ3LAsuCjk6sh34Juh31ni+jXn8dqVAoHcp++zt44g9QU0PqgQdx/OD7x93yZ1SrVsLMmdDRAa+9hrnrbSguRlmyBPPSVVhXXomWVzC+tiwL+vpQfvozLJcL/vEf4corweWGDetRf/Kz9DZLP/0ZyqEmzCefhOWXoH7605gzZ2AbHsZ86inMf/8RvL0zvT/vkiVjP79lHfVXJSsTPnYn1t698OprEAqhLFwI+XlHnzZt+lHhF4CWVqwf3gcBH9z7r+grVpD0eVGrazB//nN48SV45hlYfRnG5z57ch8OCHGaLMvi4JZdvHDvf7D39a34cjK55qt3Me/GNTj93snaklsIIYQQZ4HcdYoz67H/hF27wG6Hb/wNyte+iuJ0p8cgS8GaMQOqpmF+57uwcSM89TSsXAlTp41sq68fFi9G+dmDmIVFaO9MnTUqyrG53Zj/+F2orsbc/BbOZUtHX38bi2FZJvzd38AHP4j1bl/KKjCrqrB6euDJ/8F6801ih5rQpk0/qctV/Bmo3/w7rL5+rG1boasbunuw3t6F8l+Pw8LFGDfdAKtXo5aWnngdbPKdslTf+hbqddei2Bzpay4vTW+p9J0O2Lcfs/1huPoalHv/FaWwBA2wADM/D3p64b77sWpq0fbvh3EGcLWwBOPB+1F+/xjWq6+hlpfD176KecXqo47TFI0RiSGZRM3KgO9+B3P1ZZiKLf06l09JB+juHti0CV54EfXjHwe3TDcVZ4dhGLTs2stL9z9CzaubCYSCrPnincy94QrcARn5PR2qCpbVTyx24d1aKMoAun7hXZcQQlyM5Ke5OGPMtmZYvwGiUbj8cpx//ZURBZ8UuxNr7RqUulqoq8HasQO1eg/WlAoUVT+6wVAI9etfQyksOephTbOTXLkCZe4crLo6lD01xMJhtNECsNOJctllWHd8FOWYUUc1Jxfz2muwXn8D2tpQW1rgJAMwgHL5FZhPPA73fj89ynmwEUwTq7cfXnwx/b9AAPPy1XDXJ3GuWTN2sSynE9asQbvxRt4bMjXNjrF6Nfz6t1B/ANxetC/8FRQWH31NmZlw6aWYjz+O2dkBTYdG7PN7PJpmR7XZSAKmAppdH99obVYW5m0fQrv8CrSjwrGCc+ZMYiuWw57d6WnxiQTK+OqATRrDMIjH4xiGMa7jw+Ew8WgExX7ioURLUVB1G6qmoagKyjtTzJVjp5qL02aZJm3V+3nuX35B9UsbCeRksfZLH2PpR66VglcToKIiRElJFqZpTnZXJpyqZmKzjf2zz7RSxPujRHqHz2KvhDhzzJRBMpEEKz1rRogLiQRgccZojYcwOjuwTBNuvnHMkKfYHJgLF6JWVmHV1WEeasQZjZH0HBOAK6dgzZ0z+uzE3Fys7GxQVazuHpRkYvROBQJYq1aOGeLUqVMx3C5obkkXxzpFWkkZ1g/uxfybr8HmraibNmHu2QNtHdDZDj3d6dHujZuIfekL8JlPj1592uvBtvoyzFGu2pmfT8z/zgjyrFkYJSXHhE1QVB0lLxfT7YXenvS087NA8fvRLrsMa5R+J10uKCkGhws6OsEcX6icLH19fTz44IM89thjDA4OjuuchGmQsAxQxnfToLuc5E4ro3ThLAqml+PLy8aXFcAZ8GFz2NFsWjogSyg+ZUYqRfOuvbzwg19R/comMovyWP3Z21h46/sk/E4QVVWx20++eOD5LJlMkkql6N3bzXN3/R6bQ26rxAXCgkhPGMMwiEajEoLFBUV+UoszxuztS1d8tiyYN+/4B+fmYeblwvbt6anOqdTIYzIyULOCo56uaXYshwNTUdJFm8YagXA6UAsKx+yG4fGgqBpWMoktmeR0opmi6mgFxXBjMdx4E6qZxGxvR63dC+vWYT31FNaeGpQHHsRWUYFx6y2HpzgfuTAbZnHxqO0nHU4Uu54uWpWTBb7RpxGnHA4UmwqpRLoI2VlgOZ0YhYVj1HdWwfXO1k3nwS/VoaEh9u/fT0dHB/F4fFznmJZJivFdl2VZmD39dDe2svu5N9A0DV9OJpkl+QRLC8irKiOvqpTsihKcPg+604Hu0FFt6VFjVVMlGJ+AkUrRXtvAn3/4G6r/vIFAbpBVn7iJZbe/X6Y9i9OSSqVIpVJYpkUynMCIj/K7S4jzlJk0wIJoNDrZXRFiQkkAFmdOIoGSSqUDjv8Ea12dDhSHAyuVQk0miVvWyPBkszGuLXOs40y/U1VMXR9zGrBNUUipClgWKWu0cddTdzgQFxRjXLEaddUqrO98B2vTWyT/5ymUyy9Hyc0/5iQlvX569BaP/FHTcaoao8VbXVFIKgoK6e2JzgpVwWG3j9ofSE/vtRRlROGtc1F+fj6f//znWbx4MeFweFzntEf6aUz1Y9pPPOE8GU8QGxwm3DfIYGcPA209RPr7aaneT8Pm3WBZKJqGy+shWJZP4axKciqKySzIwZ+bjS83iMvvw+FxobucaLaTmeR+4TMNk9bqfTzzrw9T8+JGsgpyuexTt7L4I9dK+J1ghmGSTCYvyCnQiqLgcNhR1aN/BzmdThwOB54cH5W3zCZQMfqHtEKcdwyLmke20rW7nYyMDPmgVVxQJACLM8dux9L1dIg70dTRWBwrHk+HXLsdh6KMGZ4uBJpiw1qxHC67DHZXo+zZgxWWtWPnIl3XWbx4MYsXLx73OTva9rMh2gTB8RX3skyTeCTGcG8/Qx3d9Da301nfTNf+Q/S3dRLpHyTWH6bnYCttNQdIJVPYPW782ZkE8oJklRaQW1lKTkUhvpwsnAEfLp8Hu9uF3enA5hx5434xME2Tlup9/PlHv6XmxY1kFIRYduf1LPrwtXizMia7exec/v4hGhr6SCQuvFsLTUsxZYqf7Oysox5XlPS6fXe2lxl3LKJoRcUk9VCIiWWaJh1bmune04GmyQer4sJy4f2WEucMM5iF4vWmR/q2bYOVl455rNraitnWAW43ZmYGCV2/4HciUbweyMoEhwMrHE7v2ysuSoqq4vS6cXrdZJcUUL5kLpC+AYn0DtDT1EZ3fTM9TW30Nbcz0N7FQFsP4f5BmnbtpX7jTgzTRNM0AqEgwfICcsqLyCrMI1CYS2ZhCE8wgDcrA3eGH92ug6oeVXTrQmMaJq01+/mf7z7I3nWbySjMZfXdt3LJHdfjyjjBjBRxSnp6otTV6dhsYy8zOV+lUj14PJ0jArAQQojzjwRgccYoJcVYBQWwpwblmWcwPvxhtFDeiOP08BCxbVuh8SBKbgiltAycjpENnges4UHsmjau/YPN3t50sa14FDVnCqZdP+E5k0JVQdPABCtlXPAfTJxLVFXFm52JNzuTkvkzSCVSxIeGiQ6FGersoae5nd7Gdvpa2xnq7GWoo4fh3gHa6w7SuHUPiqLi8LpxZfkIhIJklxYSLMrDn5+DL5SFP5SFK9OP2+/F4fVgu0C2eUnv87ublx94hLp1m8kszOPSu25myYevlfArhBBCXOQujLsdcU5S8/MxVq6ENzdibdwE9z+A8aUvQFbWO1WYLazBAWKvrEP545NYvb1Yl6/Gmj4d7dgtkM4T5voNxGtrUGbNxpw7B9Xvx3TYj6o6bZlJrJ5erKefhnXrIBrHXLToxOukJ0nS7gCfB4aGsDo7MI0EmnZxVXo9FyiKgu7Q0R3pQJxTXkTFsnnp6dPhKENdvfS3dzHQ1sVAazd9rR30t3Ux1NZFf3sPTdtrObBpF5Zh4PJ78eVlkZGXQyAvh4yCEBkFuQTyswnkBfHnZuP0uNHsOjbdhnIeTZ82k+lqz8/d+zB1r2wmoyDEqrtvYcWdH5DwK4QQQggJwOJM0uCmG+HV19JB76c/g95elMWLMEK52CMREnv2wAsvYG3bnt4a5/3X4iwtOW/X/yq1NVg//BFkZaPMnY05ZQpKSTFGRgbYHajxOFZHO1TvQVm3Dqu2DmX6NJSrr4ZAYLK7PyotmIVZWILVcgjriT+gxOMYoVzUd9YEWbNmoOYXTXIvL16KquL0eXD6PORUFGOkUqTiSRKxGNGBIYY6exls66G/vYu+lg4G2rrob25nsLufg5urScTi6A47drcTd9CPPxQkIz9ERl4OmQUhMotC+HKD+EPZeLMz0R3n7ocflmlS/9ZOXvnJY9S9tgVvdiZXfvEOFty8VsKvEEIIIQAJwOJ0vLeC71gjRDNnwNe+CvEYvLUZHnoY65lnwOslkTTe2Zu2HyqmwMfvhKuuIulwnZ3+nwGWJz312Xp7J+zYDpkBrEAGuNxg0zBTBgwNpq8bUObOg89+CmvFctRzdNTbLC3BWn0p/Oa38MyzsHUbeD2Y73zP7X/3dxi33gxj1tYWZ5Nms6HZbDg8LnzBTEIVJWBBMpEgOjBEdHCY4e5ehrr6GGzvpa+1g96mNnoaWxns6KGpbS8HN+5CsWm4/F7cmT58wYx0AM4LEizKJ1iSR7CkAHdWAIfHhcPlRJ3k6dOpZIqDW3bx8v2PULtuC5n5IVZ/9sMsue0aXP7xFSMTQgghxIVPArA4dYl4er9dVQV99PCmKTasK69A8bgx/vQkyiuvYh08kF776rBDYSGsvRKuuxZlzZWox24DdL5Zuzb93+o9sKcGmppROtuwmprTr5XLBdlBWLYcdclizCuuwLl0CclA5uT2+ziUwkKsT3wcVdOw1q3DamqChgYw0rskJ7u7sCwLTRYHn7sU0B129FAQfyhIqKIYyzBJ/n/27js+rqvO///r3ju9aUZt1GW5yl3udhLHLbbTK+khISwQCLBL+S1f2IVdYJcaYIHQEsjSEpKQAOlOc3cS99iWZVVbsnoftZE05d77+0OOE69cZFu2rPjzfDz8SDS65dzRaDTve875nHicWF8/fR3d9IQ6B5ZhqmsZKLZV00BbVQPt1Q00llSiqCqqxYLT68bl9+JOOlKBOiuNQHYaSblpJGVnkJidjt3tHKj+fp6YhjEw5/cXT1C6aRdOn5vVX/wYM29YJuFXCCGEEMeQACzOkIHa1obRHwGnA+Uk81cV1QqXXAKTJmLedSdqKIQRiaJqGqrPSzyYihpMQ3G4jru/5ccPYbSHMNIHF9A6pkWf+ATq8uWoiQGM4LHbKtOno7z8ErhcWGfOIH6iY4wfD48+ihoOY8ydc9p9mtqYsVjvvptITw9mewi6OlHCYcxIFNU0wWLBcLsgEMBMTYFAgJgy+NdQWTAP5eWXMOx2rJMmnXBIuPa1r2Lcdx9aVib9Pu9x26uNG0fsV7/E7O2DieMHn2vRApTH/wzRKJa8vEHnUlQr6pzZGJkZcN+90NEJ0SPXAxgzpr0/x/muO1DnzEHxeU/YHgCuXA1j8lAjEQhcuOH/w0pRVRRVxW61YHc68CT6STGzMeJxopEosb5+Ij299HZ109fRTUd9K00Vh2k+WE3roRp6O7oJFZZyeHd8IFg7HTi9bpx+D54kP4lZaQQnjiE4IYeEtBTciQm4Az60E65pfeaMWJyKbXvY8OunKN24E38wmaWfvYuZNyyTdX6FEEIIMYgEYHFGzGgUo7gYenpQUlMw007Vc6uiJaVCUioAGiagYHLqgbPmwktQMNFOUX9YmzgJJk7ERBm0pepPhKuvBpQThl8AxeNDW7IUhnC+E4k53ahON6QE328b7w0XV4YUqtXEFLj6ajROvh6yWTAbpcDEOMlxY24v2qWL4chzftxzXbESMImd4JoV1YqWkQ0Z2e+d+ej3Pvg8aeMmwrgJnOo61Y2VxWsAACAASURBVMwcyMw5YZvECFBAtVpwWC04PC68KYmYpolpmuixONG+fqK9/YTbO+hqaiNU3UhrVS0NpZU0llTRVtOAcSgOqoJmtWB3ObG7XXhTAiRkpJCYlUbquBzS8vNIn5SH0+9DPbIU05kyDIPqvcVseORpSjbswOnzsPyzdzHr5itwSc/vqGSax86ugRPPsDnR/h/873sU5bwOShhV3nsXNjHAPPIkKSagfujfnY/cxn3/uhkoODjUv0xH9z/6wLHHEUJcmCQAi9Nm9nRhbN6C8tgfMPv6MHNyUKbkn+ZRTvcPw1C3P9l2p3PO4f7DdSbHG45rPp3thuv5GcnnWQwnRRlYJ1i127Dabbj9PvxpKWRMGose14nHY+iRGNH+CJ1NbTSXHaauqIzmimraaxsJ1bcSqmtE2VeKatGw2KxY7DbsLieJ2UEypkwgbfI4UsZmkpieii89BZvLMaQPjoZucGj7Xt746Z8o27yLhGAKq794HwXXL8WR4JW0M8rE41BdvY9du56ntHQzoVAdFouVzMwpzJhxJfPm3YLbffzl5QwDOjqaqa3dT2XlLg4f3kNz8yH6+jqwWBwkJ+eSlzeXuXNvIitrKpZR/skn2huhbX8jPbUdp95YVfBm+kmbl3PMwyYGvS09tB1oonl3HU17aukob6W/vRfVruFNTyBz0RiyV04kODd7YO3wU4jHY3RXhuisbCfWE0G1W0iaEsSfl3yml3pS/V29dB8K0VUTwojpqBaNnFUTsTpOPtLE1A1Cla20H2iifuth2g800Xm4nXhfDFuCg8D4ZLIvH0fOyokk5CWiKse/nRtu7KL0r3toO9BEV22IcFM3se4IiqbgSHKRMjWdnOUTyVo6FnfK6Rfh667roK2okVhPBIDU2Vn4xgRQGD1V+YW4UI3yPwPifFL27Cb+rf+Cnh44dBDzcDWkpsLyZSjB4KkPIIQY9RRVQVEtqFYLVuxwZJRxICNIzsxJzLppBbFwH12tIbpb2mmprKGusILawlJayquJhPvobe+irbqBg1v3oVmtOH0ePMkB/BkppI7PIXdWPpnTJ+JLTcLisGO1WY9WHQcwdJ3awjLWHxn27E3xs+wzdzDj+qU4E3xyX2WUiURi7N27hlde+TGVlTuJxSIYhoGiQG1tEXv2rKG09G1uvfXbJCamDtq/puYAL774fYqK1hIOh9D1GIZhYJoGiqJQU1PIvn2vsnXr0yxb9ilWrfocVuvofZGEG7t49+HNlP593ym31WwaE26YzlV/uOuYx0MVrez60UYqXimiv60XI6Zj6AamYYICbUVNVG86yIGndzP1o/Mo+PQlOAKDb0CYGDTtq6NmbQV1b1fSUdFKd30n8Z4YrmQ3C766goLPXDZs1x4LR2jYVk3Nhgoath+ms6qd7oZOzLiJzWfnozu+hDXr5AH44JoD7PjxelqLGoh2RTHjA9dtmiaKotC8u45DrxQTfCaLOZ+/nLHXTUU9zjCE1gMNbPzqSxhxfWD/I8dAGbh52LithrJ/FDLu2qnM/sJiUqZmDLlXuLe9h72/fZvC326jv6MPgCsevpkp98xFs0kAFuJsSQAWQ2Y0NsFzzw18oSgDxZw+eg/2++4jfoFWMBZCnB+KqqCpAxWobQ477iQ/6ZPymHjZHDDBxCQc6qK5rJKafWU0llTSVFFF88Faupra6GhoprawFF5jYDi2qpKYFSQtfxzZMyaSOjGPtHFZJOVl0V7TwCvfeYQDG7aTkJbEqi/cz7zbVuPwHr+HUFy4TBMqKrby17/+O7W1RbjdCYwffwnp6ROJRnspL3+HpqYKNmx4lHC4nc9//ulB4bWnp526ugOEQvXY7S4yM6eQmTkZrzeIaZo0NBRTXv42tbX7+cc/voVp6qxa9XlsttFZud40TGKRGLHe6Km3jVswIoMn/kQ7+mkraaS7pgPNbiEwIZmkqWm4g14URaGrKkT1pgraipvZ+aP1xMMx5n91OTaP45jj9LaFee3eJ2naWz/4HP1W9Lgx6PGzcWjNATb/+xray5oHfU+xKAMB9BS6akK0FTfR19KLzWcnZXYWSZOC2Hx2IuEIrYUNtOxr4PDacvrbe0GBvGsmo2mDPzI7/A4S8pJwp/lwJLmwuK2YhklfYzdNe+rpONjK/j9sJ9LVx5IfXDek3nDTNKlZV07Jk3uI9PRjGibx/hh6XMfAlPUWhBgGEoDFkKmJAYxLLoEEH0yahHrNNbBwAXGPrK8phDgJBRQUPIkJeBYWkLdgJkYsTl9PL32d3XTUNlJbdJDavcU0H6ymu6WD/u4wHU3thOpbOPDG21jtNuw+N06vByMep722EZvLybSVlzJm7hQMwyD2XnE9Tb1o5t8ZhkFHRweapuF0OtE0DU0bPR+R29sbeeedp6ivLyYjYxKrV3+B+fNvwedLRtcNmprKeP7577J169Ps2fMi27c/w6JFtx0zL9hisZGaOo4xY+Ywf/4t5OTMxO0OYLUO9AT29XVRUbGdxx77FG1t1Wza9Afy8y9n/PjZI3TVw6fggUVM/9gCbD77cb9vKmBPGLy0oGbR8GT7mfrRuUz6yExSCzJxpLixOgduZke7IjS8VcVb33mduq1VVLy8n/RFuYy7Zuoxx1FUBbvfSeL4FDyZPjIuySNlRgYvffTx4b9YQLNacKV6UC0KiZOCZCzKpaehi53/s3HIx7A6baTOyCBtVjaT7pyFL9OP3e9EsSqYcZPuhk5Kn9nDjp9upK2oibK/7SN5evqg8JpxSR53vvXP2Lx2LC4bmn3gvQcg3henvbSZPb96i9Jn9lD1RikTrp2GN9OPZjv5R+/WAw2UPr2Xvo4wE26cTuve+uPeYBBCnDkJwGLIzPkL0d56a6SbIYQY5RRFQbNZBwJxYgIpeVlMWDwX0zSJ9PTRXlNP2+E6GsuqaTlUTWNZFa2V9YRDnXQ1tQ3MTVZVYn0R9r64gZrCMlLHZpMyNpv0ibkkTRyDLymAxW7FarehWSygqh/KYFxcXMxDDz2EruvMmDGD2bNnM2HCBDweD3a7HZvNhqZpxx3COdIG5v3up6hoLQ6Hl4UL72Dx4ntxuQYCm6apZGfnc8cdD1FZuZu6uiK2bHmc6dOvxPeBlQcyMvK5886HSEzMPG6vrsfjo6DgCm699Tv86U+fJxSqo7h444ciALuDXhKnBrF7B4fck/GNTeTS/7oKd6oXm2tweLb7nOSsnoShwmuffJquwyGadtQwZtUktA+s+W33OLjkW1fiTvHgn5CCZrUQ6e47Z+WzUudkseyh63Fn+PBk+VFVlcL/3Xpa0x5yl08gb3U+7nTvoPm0igUSshOZcu9cIm1hdj/8Fk27auisaBsUgK0O2wl7dK1OG8GCLAo+eymdB1s5vOkg9buqyb0mH3fSiavT94fCVDy/n7otlYxZPpG8K/PpPNQ+9IsTQgyJBGAhhBAXBEVRcHhdZEwZT8aU8UxdZaBHo0TCfZRu2clrP/o9DcWH8CQnkjImg0hvhHB7B83l1dQWlmMaBharFavTTmJWOsGJOWROm0ggO4gvNQlvSiKuBA82lwObw4FqHf1/Ajdv3syLL75IKBTir3/9Ky6Xi7S0NObOncusWbOYMGECWVlZBINBfD7f0V7iC0E02kdNzV7a2g6TmzuLadOuOBp+Pyg5Ochll93DM8/8O5WVO2lqqsDnez+8er0+vN5Tj0SaMmUpqal51NUV09JSNZyXMurYfU7svpOHZlVVSc4PkjEnh4qXiuhp6MKIG2gfmPGkWS3kLJlwjlv7Pl9WAF/W2S2d58tJPOU2rkQPafNycacX0tPSTV8ofEbnSpyYijcnALpJ5Mhc6xPRY3HqtlRS8vS7uNI85N8+C2+W/4zOK4Q4udH/118IIcSHkqqpYLPSeaiad59bS3NFDUk5Gcy//Spm3rCMSLiPUE0jrYdqaa44TFtNI70dXUS6w7RU19NUUcWu59diszvwBRPxpyeTmJNBcFwOKeOz8aenYPd6cHndWFwOrDYbFvuxBbcudNFo9OhyVdFolGg0SkdHByUlJTz11FMkJyczZswY8vPzKSgoID8/n7S0NAKBAF6vF5fLhc1mG5Ge8Uikl9ra/ZimSVraBFJTx55w2/z8y3G7k+jt7aCmppAJE06/99Zmc6JpdsAc0lxRAYpVRXNefB8VVVXF4rCivldwyjyz3w8jpqPHdVDA4rIdHSJ9PB2HWil+ajf9LWGm3T+PrMVj6W7oPKPzCiFO7uJ7VxNCCDEqGIZBfVEFL373N5Ss30EgPZXLP3UrC+64GncgYWCjOdMwDBPD0OnvDtNeXU9LVR2tFTV0NrYSqm+iq7GdcKiTmsIKDm0tHKgObNHwJPpJzssgdVwOSdnpJKSn4s9MwZuciNPvxZOYgMVuP7pW8WgbPh2Px2lsbKSxsZHt27fz+OOP4/F4GDt2LDNmzGDixImMHz+e7OxsMjIySEpKwul0Hl3+6lyLRntpairHbveQlJSD05lwwm2TknIJBDKory+mrq7ojM7X2nqY7u5mrFYnycm5Z9rsC0p/Vz9tFc1oiga6iWa3YPPZcQW9aHbrWQ9E7g/10nU4hNVjw53mOWmA+zCJ9UcJ13US6ezHneTB4T+9IeYw0KPbsL2azoo2bG47KTPSsbqPP1c72tnHoRcOULm2lMyFeUy8dRbOJI8EYCHOEQnAQgghLjiGblD9bhFv/PxxStZtJ5CVxqX33sD82696P/wCKAqqpqBqKp5EP55EPzkFU4jHYvR3h+kNddHTGiJU00BrVQPttY10t7TR1dpBuK2TpvJqqveUggkOrxtnopfEYAr+rCCp43JISEvCnZqIN8mPJ5CAzePC7nYNrIs6igKxYRhHC2bt3r2bd999F7fbTUpKCmlpaUyZMoWJEycyduxY0tPTj+kltlrPTZX/eDxKZ2cLmmbB5UrEanWccFu3O4DL5cc0DUKhutM+l67Drl3P09FRT3JyHuPGzTubpl8wajcfovNgG5GOPoy4gc1jx5ORQGpBJimzMwjOyjrt+cHvifVHqX+7itYDjXiyEkiZnvF+j+iHmAn01HVSs/kQkVAfWQvz8OaefCiyHovTeXhgrq6pG8S6o4TKWij72z66qkJkXpZH5uKxx51vbeoG9VsPDwx99ruZdNMMkqemnYtLE0IcIQFYCCHEBUWPx6ndW8orP3yMkvXb8aencPknPsLCu6/FlXDiAjIfZLFajwbi1HE5sGAmpmkS74/Q1dxOqL6ZUH0TnXUtdNQ309HQTFdjK53N7VTuLCL2zh7QdaxOBwlZqQTSUwhkBPFnpBLISMGXnoIvmERCMBmH141qtaJZLsxiU8djmiY9PT309PRQWVnJO++8g6qqpKWlMXbsWMaOHcv48ePJy8tjzJgxTJgwAa/Xi81mw2IZno8OhhGnv78TTbPicLiwWE783NntLmw2J6ZpEg53nNZ5dB1KS99i48b/BRSmTbuCMWNGfwEsRVFoK2ykvbj56CgF0zCJR+NoT+4mdVYmk++eQ/4dBbhTTm+1BtM0adxRTdEfdmDEDbIW5pG2MHdQ0agPo0hnL5Vriql6vRRXioeclRMG5vGewHuBefO/vTzwddwk2tlHx6F2Yn1RshePY+anFpGUHzzu/t0Nnex99B06a0NMvmM2Y67KP6bQmBBi+MlvmBBCiAuGaZhUbt3Lhkf+StmmXSSkJbHiwbuYc9vqIYffE1EUBavTQVJuBkm5GRi6Tqw/SrS3j76uHrqb2+hqbKW9tpmupjZCtQ10NLTQ2dzO4V3FlG95d2A5JrcTd6IXbzAFf3oKgfRUEtJTCWQm4/B5US2nnkNs9kWh34nS2I3TceKez1OprKwkHh+8zuuZMAyD+vp66uvr2bZtGx6PB7/fT2ZmJpMnTz4ajMeMGUNBQQE2m+2szmeaJrquo6o2VFU7aYe6poGqaoCJrsdO6zzl5Vv5xz++TXt7LRMnXsbll9+P2+05q7aPJEVVcCa7ybw0j+T8IN6sBKwJA6+hvvYwXYfaqXuriqbdtYSbutGjcWZ++hLs7qG/ztrLmtj1440076snZXo6E28vwJt14iHqHxaxviiVa0oo/MN2IuF+pt4wh9xVk7Aep+f2gyLtfZQ+s/eYxxRFwZPmxZXhxZHqRrEMfoHH+qKU/X0vNevLSZmZweQ7Z+NKHb2vTSFGCwnAo5ymKCyPx3muuXGkmyLE6BI+s6qe4tyJx+JU7y5i7S//QtnGnfjTUlj26duZf9c1OH3D/6FQ1TTsbid2txNvSuJATzEQj8Xo6woTbgvR0xoaCMGN7XTWN9FW20ioupGu5jZCtS1URKJomoYnwYMj0YfD5UI5SU/mexQdnKaG1+ZAU8+86FZdXR19fX1nvP+JxGIxQqEQoVCIyspK3n77bfx+P8FgkJycHP77v/+buXPnntU5FEVB06yAiWGcvCiVYXCkcJWCxTK0IdmGAYcPF/LCC9/nwIH1ZGVNZdWqzzNmzIzRNHp9EGeSm/w7ZsHtEBibjD3JhdU5cDMiFo4Qbuqm7p0qCh99h9p3qih+YhfBgixyV0wc0vHbK5rZ8aP1VL5Rii/bz/RPLiTj0jHnpPc3Fo0RCfWCMfh7qlXFkeg+b6MqYtEYNWvL2fOLLYTKW8hZOoHJd8/Bn5t00v0UwJ3h49JvrMbAwIyZREJ9hMqbaStu4tALB4h29DPnny8nZXYGqvL+73v9O5UUPrYNq8fOpNsLSJuTfVH0sgsx0iQAj3Jeq5VvjMnjTvvJ704KIY6Vmpt3jlaqFGfCNAwqt+9jw6+fpHTzLtwBH1d84T7m3Lj8nITfk7FYrXiT/HiT/JjjczHiOvFYnGhvP70dXYTbO+hqDhGqbSRU2zgQig830HSwGj0SQ7MP4U+rCRoKqnJ2H3aj0Si6fuKlVYaLYRi0t7fT3t5OV1cXvb29Z31MRdGw2ZxEo/3E4xF0HU40ujoejxGPRwAFu909pONXVe3l+ee/S1HRG7jdAW688evMmnUto2SU+gk5ElxkXTYORWVQWLJ5HNg8Dnw5ARwBJx2ffIbOqnZq1leQdfnYUw6t7aoL8fZ/vsrBlw/gDLiY+cAlTLx5BjbnufmM0bSzhr0Pb6G/q3/Q9xLykpj75SUnXGt3OJkY1G04yLYfrqVpTx1pc7OY87nFBOfnDGl/V5qHeV9ZBgzUL4j3xuip66R6YwVFv99G+T8KcSa6mJ+5AnfawHD0SHcfu366ic6qdvJvncW466cNafSIEOLsSQAe5ayaxuzkFEb/bCYhzrOzG00rhlE8FqNy+z7W/+opSjfuwJ+WwtJP3z4Qfv0j+4NSVBXNpqLZrEd6igNALnpcJ9bXT6S3j/6uMOFQB93N7cRjcbQh9ACbfTEyI04mBNJxnMUQ6FdeeYWnn36a8Dka0WCz2fD7/eTm5pKfn8/s2bMZN24cM2bMOOtjWyw2vN4UmpsP0dsbIhaLYLEcP2j19nbS19eFqqr4/eknPa5pwqFDe3jxxe+xd+8aPJ5krr/+a8yZcyN2+7kp6HW+napXVLNayLokj4xFYyh/aT9tJY0Dc4NPEoDbypvY/oN1lD+3H6vDwux/WcyUj87BkeAa7uYfFW7s4tC6UvqaB79+gwWZTP/kgnN27g+qfK2Ubd95g8ZdtaTOzGDOF5aQeflYLLahvV4UVGyeD/weJ4AnPQH/uCSi3f28++u3OfRaMRNunoEr6EVRFMqe2Uv1ugqsHhvpl+TS29xDf9uxN5ZCJS3Ew1EAumpCtO6tx+Kw4k734kqWP2JCnCkJwEIIIUaMaZrU7Clmw6+fomTjDhweN8s/dzezbliOI+HCnQunWTQ0rxuH140vNQnTzMY0DBRzaEuGGt395Hc7mZ89Cc9ZzEetqanh73//+xnvfzyaphEMBpkzZw4zZ84kPz+fadOmkZSUhN/vx+FwDEshLKvVTlJSNnV1RXR2NhOJ9OA8QU9jZ2cj3d0tKIpKauq4kx63pqaYl176IXv3vg7Atdd+hcWL7/vQhN+hsrhs+HL8mHGDSGc/pn6cccZHdNd1sON76yj92x5M02Taxxcw/ZMLcfqH1tt+ppImB5n/pWVEeyODvudO8+FOO/chr35bFVu+8Qot+xpIyE1kzhcuZ8yV+ViG4fXiCLjJWDCGir8VEjrYRrilG8PQ0TQLzfvqiYYjGDGdHT9Yj2YdfFMj3henp7ELgKLHtlPxt0IUVWHeF5cy7Z8WnnX7hLhYSQAWQggxIvS4TuWOfbz5sz9TvmkXCRmprPz8Xcy8fjkuv3fUrLt7dN3c0xhbq2gamqZhsVjPapkhVVXP+nlyuVyMGTOG3Nxc5s6dy8KFCxk3bhxerxeXy4XD4cButw/7z8Ph8JCVNY3du1+gqamMjo56/P7jz7c8fHgPoVA9DoeXMWNmHXeb93p+X3jhu+zb9ypWq4vrr/8qixffh8t1ZksBjWZ6NE5faxhUBavTdsKfX3tFM+98+3UqXtiPHtFZ+LUVzP7c4nMefgESJwVJ+Fzikfndx1I0FYvz3H5MrXy1mE3/9hKt+xtJyEvisv+6knHXT8PqOLsCbx9ksVtRrCqGYcAHZisYsYEv4tE47WXNpzxOd0MX3Q0DYTjc2jNs7RPiYiQBWAghxHln6AZ1+8tY/+unKNu4E08ggaUP3MbMG1bgShg94Xe0UVUVq9WKy+UiPz+f5cuXM2PGDMaPH09WVhYejwebzYamaef8Z2CzOcnKmoLXm0xdXTGHDu0iN3f6oAJVug7vvPMk8XiUYHAiqanjBx3LNKG+/iBr1vyEvXvXALBy5We5/PKPjeqKz2ejq66D2i2VWB1WvDkBNNuxH/lMoKumne0PrTsafqffN585X1yCw3fuhj1/kKqqqO7zX8PEBBq3H2bTV1+iubAeV4qHRf9vBRNumjHsSxC1VzTT2xrG4XdiddtQjsz7n/ax+WQuyjvpvp3V7RT9cSftZc1Mu38+WYvHYrFaSJ2TOaxtFOJiIwFYCCHEeWUYBjWFJbz0nUcGqj2np3LFF+5l7i0rz3vBq4uB1WolLS2NyZMnM3v2bBYtWsS8efNISko6GnSP9mKfRxaLSm7ubMaOnc+7777I228/QUZGPhMmLEQ7UgsoGtV5883fUFy8EVXVmD//RhITB88Brqkp5h//+Da7d7+Aptm45povs3Ll5/B6/aO64vPxdDd2EOuKkDAuCU07/se4lqJ6NnzpeTqr20nITSRzSd6gIb3d1e28/Z+vUvrsXvRInNkPXsbCb646b+F3JB1+s5SNX3mBlv0N2Lx2lv/0JvJvLUDRhj6Ko+6dSlKmpx879/cDjJhOzeYKDvx5Fz11neQun4AvL3B0/nbavFzS5+We9Bwte+qoXFNCe1kzGfNzmHznbKwOGyevmS6EOBUJwEIIIc4bPa7TcKCCN/7nT5Rt3ElCWjJLPn0bs29aIeH3DHywGJKqqqiqisPhICEhgWAwyPz581m6dCnTp08nLS2NhIQENO3CqDSrKJCamseCBbdSVraFkpLNPP74F7nkkrsZO3YekUiYHTv+xvbtzxKN9pGePoklS/6J/9v81tYGXn/9F+za9TzxeJSCgquZMOFSurqa6eoaPLRUURQcDh+BQHBUVoSuerWUrd9bS/qcLNIXjSE5P4gjZWC4ck9NB7WbD1H67F66qkNYXTbGLJ/I2JX5xxyjp6mTXT/bRPnzhcR6o+QsG8/Ya6bQ09hFb2P3cc9r8zlwp/kGFeCKdPfR29iNcWSOcbQrgmmamDGDvvpu2kreX6bRkeLGleQ9qwr8PU2dRDr6eC8F9tR3Dvy/Du1lzUeLRqlWDVeKB7vv2OHvTXtqeeubr9Jc2ICqKMy4dz7J09NoLz/+MGRFVXCnerH7j70xsPZzf0PRVLKvGE/azGwScgNY3DZivVE6q9qoWV/B4TfK6aoJ4Uh2kX9rwTFLKg3lOTA/+CldVQb+DXFfIcSJSQAWQghxXhi6TnN5JS9+9xFK1m/Hn57K5Z+6lYV3XYsrQSqanomxY8cSDAZxOp1MnDiRgoICCgoKmDVrFuPHj8flurB786xWlenTV7Fy5WdZv/53VFbu5ODBbUfnhCqKiqZZyMqaykc/+rPjzhFuajrIwYPbiEYH1kPetu1Ztm179oTntFhszJ59Aw888Afc7gv7+TkeM6rTcaiVjooWip9695j5s4qigAKKRcWR6GT89dNZ+M1Vg8JbT00nTbtq6A8NPGeH15ZzeG35Sc876cYZLP/FzXgz/cc8XvH3QtZ/6Tl624+tYNwf6uPt77/B299/4+hji76xkoVfX4V1iNWVj2fL11+h6I870WPHLv8VDUd45orfHP06ISfAom+uZsb9xxaLqnunklBFC2bcQAd2PLyJHQ9vOuH5LE4rS753LQWfufSYYeSGYdBe3ETju7VgmAM/hyM/CkVRUFQF1arhyw4w/RMLmHDLDCyu4ZtbLIQ4cxKAhRBCnHOGblBbWM7r//MHStdtI5CVxuJ/uoUFd14t4fcsrFixgieeeAKHw0Fqaioej+esllUaCX5/MqtX/wuJiTns2PEsLS2V9Pf3oKoaHk8imZlTufrqLzNmTMFx97dY7Hi9yadcHuk9mmbF7Q4cnYs52nhzAoxZPoH+UB/Rrn70vjh6XAdNQbNbcAZc+PMSGXfNVMbdNA2bd3ABMM2i4Uh0401LGPJ57QEnHGfwgNVpw5XmRRtCqLV7HahnOSbdnuDEk+bDiJ24qjWAM9WD1Tk4cFrcNjwpXjRlaCMhNIcFq9s2qNv1ip/eTMVLRTTvqaOvpYf+jn6MuI6qqVjdNpwpbpImB5lwy0wyL83D6jr9uc6aRcOVNPBzsrhsZ/3cCSEGSAAWQghxThm6TlNZFa/96DGK3txKICPIonuuY9E91+JK8I1080Y1u93O7NmjeyV4RYGEhADLln2cgoKraW6uIBzuRFU1AoF0jiDyQgAAIABJREFU0tMn4XSeONSnp0/kuuu+RjjcPsTzqQQCmdhso+tGwXtyV00idU4m4aZu+tt6ifVEMWI6iqpgc9lxpLnxj03GdpLA5c0LMOcLl9N799CrCXsyE3AGBleGDi7KYcn3ryMejZ/yGElTgqjHWe7ndEy+Zw6Zl+ZhGiefCWt12Uiemjbo8ezLx+FKcqP3n7q9AKqmkjwjfVC7s5aMJ2vJeMKNXXRVh+hrC6NH4qhWDYfXiSvTizsrAZv9zHt9PZkJzP7i5fS1hkmbk33Wz50QYoAEYCGEEOeMaZrU7S/nlR/8lgNvbsWfnsyST93G3DuukvArjqFpkJycRnLy4NByMj5fAtOnLzlHrbrwqKqKO8WHO+XMf38cCS6yLx9cTftMJGQnkpCdOCzHGoq0gmzSCrLPeP/AmGQCY5KHrT0D6xWfm/cyu9dJzpIJ5+TYQlzMJAALIYQ4J/S4Tm1hKa//+A8Uv7mVQGYai+65jgV3XY3TL+FXCCGEEOefBGAhhBDDztB1qvce4LUf/C8H1m0jIT2JJZ+6lQV3XYNT5vwKIYQQYoRIABZCCDGsDF3n4Na9bPzNU5Rs2ok/I4VlD9zB/DuukoJXQgghhBhREoCFEEIMm3gsTtXuItb94glKNu7El5rI8s/dzYI7rpZ1foUQQggx4iQACyGEGBaGYXBo2x42PPJXSjfvwpecyIov3M28m1dL+BVCCCHEBUECsBBCiLOmR2NU7tzPhl8/RenGnfjTUlj66duZd/MqnH4Z9iyEEEKIC4MEYCGEEGfFNEyqdhex/ld/oXTjLlwJXpZ/7k4Krl+BQ+b8CiGEEOICIgFYCCHEGYvH4lTu2Me6XzxB6cadBDKCLH/wTmZevxx3wIeiKCPdRCGEEEKIo9SRboAQQojRyTRM6ovKWf/rJylevwOn18OSB26j4KYVEn6FEEIIcUGSHmAhhBCnzdANDu8p5rXvP0rxpp0EMtNY9c8fpeCmFbh8XpDse9Gx2UDT6ujraxvppgw7qzWCy5Uy0s0QQggxDCQACyGEOC2GbtBYcpA3f/YnijfsxJOWyOWf+Aizb7oCR4JUe75YZWUlc+21HnRdH+mmDDtV1XC5nCf8vm7E6W8N09PUeR5bJcS5Y8ZN4v0xMME0zZFujhDDSgKwEEKIITN0ncbSSp771i8p3bCDQGYqSz59BwvvugaHLHV0UbNYLHg8F9drIBqNEovFaCtu5rmbfi8jH8SHx5Hga5om4XBYQrD4UJEALIQQYkgM3aCuqJzXfvIHyjbsIJAZZPHHb2HBbVfKOr/iomQYBoZhoGkabo8bq9U60k0SYliYmHR3dRONDNzkEeLDRAKwEEKIUzJ0naaKal767qOUbNhOICPIpffdyCUfvV7W+RUAxPU4kUgEwzBGuinDTlEUnA4nmqYd87jdbsdms5GSlsotd91C3oSxI9RCIYaXrus88dvH2b+nEJ9PihqKDxcJwEIIIU7KNE1q95fx2kP/S8m6bQTSU1nyyY8w785rJPyKo0KhEJW1VZh8CIdKmjAmI5dgMHjMw4qioCgKXq+XS5ZdypyFc0eogUIMr3gszro1b1K0b/+gGz9CjHYSgIUQQpyQEYtTW1zBmu//juK1WwlkBll0z/UsuOc6XAkSfsX7eiN9xC06yVkfvmrJHS0h2trbBgVgIYQQo48EYCGEEMf13lJHr/749xS/+Q7+1CSWfvp2Ftx+FU4Jv0IIIYQYhSQACyGEGESP61Tu2Me6Xz1J6YYdJGalc9n9NzH/jqsl/AohhBBi1JIALIQQ4hhGLE7VriLW/vwJSjbuwJviZ/ln72Le7VLtWQghhBCjmwRgIYQQRxm6zsGte9jwyF8p27yThGAyyx+8k7m3rZbwK4QQQohRTwKwEEIIAPRojMpd+1n3yNOUbdhJQmoSSx+8kzkfWSUFr4QQQgjxoSABWAghBKZhUrlzP+t++QRlm3bhSfKz7PN3MeuGFRJ+hRBCCPGhIQFYCCEucvFYjKqd+1n3y79QsmEn/oxUln7mDmbdsBx3IAFFUUa6ieIioOs63V3dhFrb6Qv3oaoqHr+XlNQU7A77KfftDffS091Db28vsUiUeDyOqqo4HA68fh/JyckoqryWhRDiYicBWAghLmKmaVK3v5y1v/wLJeu34/V7WfrAbcy5aQUuv0/Crzgv+vv62brpHdb842XKisvp6uhEtWikpacxc85M7n3gPlIzTrwG77YtW3nhqedpaWoh1B6ip7uHaDSKRdPw+LxkZGaw+IrFrL7xKhKTEs/jlQkhhLjQSAAWQoiLlB7XqXn3AGt+9L+UbNhBYlYaKz5/F7NuvAJ3ghck/IrzoL2tnb8/8SxPPvYXmhqb0OM6hmGgKAp1h2vZu2sP297eyte/+x/MnFdw3GOUFpbw8t9fQtd1TNM8+g9AURXKi8vYuuUdXn3hVb72nX9j0tR8ubkjhBAXKQnAQghxETINg+byKl7/+Z8pWb8dd6Kfyz5+M3NuXiXVnsV5E4/H2b11F3965E+0NDYTzEhj6eqlTJ85nXA4zNo1a9mz410KdxXy3a9/h8ee/T0e7+DXp8frYdrs6YybOI7s3GxSUlNwedxEo1EqSspZt2YdB8sqeHf7bh75ya/5t+99g5RgyghcsRBCiJEmAVgIIS4yhq7TUHyIF7/1Sw6s305iVpBlD97F/DuvwnmccCHEuWCaJjWV1Tz/1HO0NDYzc24Bn/3Xz7FwySKsVisAt9x9K7//5WP89mePUrhrH0/9/i/c/+A/oVm0Y4516323c+t9t5/wXA9+5XP855e+wcvPvsTOd3by1vot3HjHTef0+oQQQlyY1JFugBBCiPPH0A0aSg7xykO/o2TjDhKzglz28VuYf9tqCb/ivIpFY5QVl1G4p5BAYoDV169m/uIFR8MvgNvr5t7PfIzJM6ag6zobXttAS3PLaZ/L4XDwsU/dT2ZuFuGeMKVFJcN5KUIIIUYRCcBCCHGRMHSd5kPVPP/tX7L/1bfwZwRZ/PFbuOS+G3D6fSPdPHGR6e/rp+xAKa1NLYzLH8+cRXOx2wdXe/Yl+LjhthuwWCyUF5dRffDwGZ0vLSedxKRE9LhOT3fP2TZfCCHEKCUBWAghLgID1Z7LeOnbv6Jk3XYS01NZ/E+3sOCe62SdXzEient7OVhyEIvFQk5eDqlpJ67yPKVgKonJifT19Z1x721Pdw99vX1YbVYCiYEzbbYQQohRTuYACyHEh1w8Fqex9BAvf+cRijfsIDEzjUX33cCie6+X8CtGTLQ/Ql1NHXaHndRgKm6v+4TbpqYFSUpNJtQWoupQ1ZDPYZomsViM3nAv69espbGugZTUFGbMnjkMVyCEEGI0kgAshBAfYqZhUrPnAK//z584sHYb3tQkln36I8y941oJv2JExWIxQm3tWG1WfH7fcYc/v8eb4MXr82IYBk1NTSc9bm11LS0NzeiGjh7TCYVCHCo7yF//+FcURWH51SuYvXDOcF+OEEKIUUICsBBCfEjFYzGq3y3mjZ//meJ120jMTufSj93I/Luul6WOxIjTdZ3e3l4sFit2ux2L5cQfSRx2B3abHROTvu6+kx530+sbWPPcGsLhMKZhEu4J09rcgifBw7W3Xsdt998hQ6CFEOIiJgFYCCE+hPS4zuGdRbz58OOUbNiOL9HPFZ+/m7m3XYnjJENNhThvjIGq5FhBVVUURTnhpqqmoqoqmAPB+WTaWtqoLD9Ed3c3mGAYBrquE0hOxOl00tfVi27oWFT5CCSEEBcjefcf5eK6TlVTE42R/pFuihCjik+zMCMnZ6SbcU7o8TgHt+5h0yN/pWzTLvzpQZZ86iPMuXW1hF9xwVA0BZvNBqaJYRiYpnnCEKzrOrqhoyjKSYdKAyxdvYzM3Cyi0Sh6LE6oLcThg4fZ9vY2nn38GWqqqrnvM/dTMG/WubgsIYQQFzgJwKNcTzzOw81NPJyeNtJNEWJUmdnczG5yOHGf0+gUj8Wo2rGfjb95mpKNO/GmBFj+4B3MvWWlDHsWFxRN03C4nPT2hOnv6ycei2Oz2467baQ/QqQ/gqIouD0nv4kzffYMps+eARwZZh3upa21jRmvz+CPj/6RzWs3k5SaTN6EsST4E4b9uoQQQlzYJACPcnHD4ElM1GAQWdVKiKHbEwqNdBOGnWEYVO4oZN2vnqRs4068qYmsePAuZt+4AocUvBIXGIvNSlJKEp2hDro6u4hEIicMwF2dXYS7elBUhdT01CGfQ9M0vL6BAloJtyXQ3t7OIz/5DYW7C6k6WMnMOQXDdTlCCCFGCUlMo5wJRAD5UQpxcYvHYlRu38v6Xz9F2YYdJASTWfHgXRTcuAJXYsJJ51cKMRLsDjtZOVn09/XT1NBMT3fPCbdtbmiiubkZTdXIG5d3RudL8Ccw79L5GIZBV0cnrU2tZ9p0IYQQo5ikJiGEGOVM06S2sJS1Dz9BybrtuBMTWPrp25l10wo8En7FBcrldDFu4jgM06Cmqpqm+sYTbrt/dyGh9hBur5sJUyee2QlNMOPmkS8U+b0QQoiLlARgIYQYxfR4nEM797PmR7/nwNpt+NNTuOIL9zH75pW4AxJ+xYXL7rQzceok0jLTKSspY9uWrfT1DV7iKNQW4u9P/h09rjNl+lRy8nLP6HzhnjDrXl+Loir4/D6Sg8lnewlCCCFGIQnAQggxSpmmSUtFNWt/+kdK1m7D5fdy2cdvYt5HVknPr7jgWa1Wxk+eQMGcAro7unj9hdd5a8MWIpGBiT2madLZ0cnvfv4oFSXlWCwWll+zgsTkxGOOU1tdy/Yt22htbT1aTfqDTNMkFovx+O/+xMvPvoTVaiU3L5e88WPP27UKIYS4cEgRLCGEGIUM3aD+QDkvfPNXFG/YRlJ2Ois+fw/zbr8Sxymq5ApxIVAUhaycLK6/7Qb27thD0d79/Mc/f51FSy5h8vTJ9Pb2svGNDZQUlqDrOgsvX8Qtd39kYD3gD6irruWH3/gB9TV1TJ05jUnTJpEaTMVut9Pd20Nl2SG2bdpKbXUtmkVj2szp3PWJu/H6pDCcEEJcjCQACyHEKGPoBo3llbzyw8co27yTQEaQSz92E3NvXS3hV4wqqqoyY+5MPvbZ+3n8d49Te7iGV/7xMi/97UUURUHVVOx2O7PmF/CVb3/tuGsAO5wOEpMTOXyoim1btvL2xreOWVdYVVVUTcUf8DNx6iQ+8/89yLSC6SNwtUIIIS4EEoCFEGIUGQi/VTz3Hw9TumEHgYxUlnzyVhbdcx0OWedXjEIJ/gRuvucjjJmQx+svvEZxYTGh9hAWi4XM7ExmzZ/FR+69jdTg8Zc/mjJjKv/6ra+wY8t29u/bT01lDe1t7cRjcax2K0lJSaRnp7PoskVcumIxKcGU83yFQgghLiQSgIUQYpQwTZP6A+Ws+cFjR8PvpfffzPy7rpV1fsWo5nA4WLh4ETNmz6S7q5tIJIKmqDjdLnx+Hzbb8dcHhoG5xBOnTGLcpPH0hnsJ94SJRqMYhoGqDvQgu9wuPF6PzIsXQgghAVgMFwOztxebrhN1u1BU6+nt3dSAeegQuFyoEyaguEZvT5bZ24PZ1orW1g79/cR1HSwWcDjA5wW/H9XtQbE5RrSdenkpNDdDYiLa5HxAO+NjKVvfxozH0cfkomWdWYVWcXJGLE5jeRXPf+uXlG3aRSAjlcvuv4lLPnYjLgm/4kNAVVU8Xg8e75m9/2uahtfnlbm9QgghTkoCsBgWRl0tvPoa/fUNWG+4HmNGwWntb65ZA9/6Nowbj/HQD9BmzTlHLT13dDOOpegA+oYNsH0H+v79mO3t0B8BpwMlKQUzNxt10iSMKZNh8WVouSNYhfTnD8Mzz8KqlRg//xmqP/HU+xyHacTQP3ovdHbC//sKfPlfh7mhwjRNqt4t4o2fP07J+u34M1K4/FO3seiua3BK+BVCCCGEGDIJwGJYqIerMX/7GObu3cRzslFPMwDT3w9tbZCcCvH4uWnkOWQaMVi/kfhvfwvr1kFnF2YgAA47uJxgGJh1tXCwDOPV11CSkzC/9U342MgFYK2nB721Fbq7sZkmH3zWdT2KunEz5uEqzLHj0JYsPeFxDNNECbVjtoWgd/AanuLs6NEY1YWlvPmzP1O8dhtJWelc+vGbWXTPdThlzq8QQgghxGmRACwuDOPGw403omZkYCSdWU/kSFIPFGP8/OfwxpsQCMBHboJZs1GSkjAddohEUTo7URoaMSsrMcvKUI6sdTlS9Hlzoa8P5swmZrfzwZlxSncPxqOPwvMvoN1xO5wkAItzx9B1KnftZ90v/kLx+u24Awms+Od7mHvragm/QgghhBBnQAKwuCCoixZiTBiPYbNCMDjSzTktuh6FN96AHTvB54N//TJcex2OzAxiTiegAgbWSIT+3jC0tkHVYczcEZ4re/ttcNWV4PaguAYvnaPoOmY0iq7Hz2J2sDhTejTGoR37WP+bpynduIPEzCCL779F1vkVQgghhDgLEoDFBUHx+NA8viFta8YjEI2BYQBg0zSidtsQCm+ZmNEItliMqGliUxSiViuKzQ6ceWVQR28fkcL9mKEQrLwC5fbbUNOziB2zlUrM7kSzOyGQDBMmDfn4phEbmEdsGNg0jZjTwfEKVpnR/vevzWolZnee9LhaUiokHX9ZkeHwf9vd77CjKfKWMxRGLE7lzv1s+PVA+PUkJbDsM3cy+5aVEn6FEEIIIc6CfBoVFwS9ugp1fxGG14M6cyaKzz9oG6O9BevGzUS3boWGeujuAU2jPykJddxY9FmzYe5stEDyscfWo1gK9xPfsweKDhCpr8fs7SPicqJkZmLMnoV5+WK0jCzOJAib8ThmqAOiUUhPB6frTJ8GlK1vE29pgbQ0tHkL0IuLYM0a2LMXwmH6k5Nh0UJYtRItIxsAa1+Y/g0bYcMG+isrwTDoz85GXb0ali5BcRy/Pfred1FralHSgpizZx29gaAXF6Hs3o1SV49pmlBdg/7i88fsq3p9MHcOyv+5aaGaJroZx1q4H/2VVzAOFEM4TCQQgBnT0VeuPOuK0x92elzn0Pa9bPj1U5Ru3ElCWjJLH7idghuXy7BnIYQQQoizJAFYXBje2oL5g4cgbyzGt7+JNv3YAGw0NWB+/RvENm+GpqaBYkvxOCgK2GwYPt9AkHvgU1jvuYeYN+HovuqLL2P86EcoNTWYXZ2Y4T7QdUxNw3Q7UZJT4YoV6A9+Bm36dAaGLA9dTNPA7RpY6mj7dsziYvT589C0E69beSLxX/0Ktm1HWbIExWqFr3wVCguhvX3geu12WLsWteIg+qc/hd3tof+Pf0R5/EnMg+UDNwUAXC6MLW+jfOJ+lAceOP41/eVJzOefx1i2DMeE7xFLCAw8X88/j/HobzFbW8A0Yfdu+NKXj9nVHD8B8yc/Qps89ZjHjVgM9bU3iP34JwPtDoUgHse02WBNIrz9DsoX/gVz4QIkBA+mR2NU7So6Mux5J77UJJY+cDuzblqBO5Aga5gKIYQQQpwlCcDiwtDZNbAOsNU+UBH6A8x4BOVnP8d8+inMvgjk5qBcMQuCwYEeyrY2lLIyzIqDKKVlRPr7UT8QgCkrxdi5CzIzBoo5BYNgs0F7K+zZj3noIDz1FFgsGF/9Cmpmzum13eVEy89H9/vhQDF86cuoK1eiL16Mkj8RNTuXIfcs19RBxUFMj4f4t/4L9rwLM2bChPEoXV2waxfmwUMYTz4JY3KJdHfDo7/FNAy48sqBols1NbBpI+x5F/N3oMybhzl77qBTac3N6BUHYfLkgf2PMFpaobLq/Q27e94P1u+xO7FEIpj/96D7izDWrYeDB1FmzYTcMRCNYr777sBz8+JL6ImJkJuDmp41tOfkImEaBjX7Snjz4T9TtmkXnpREln3mDmbdtAJPol/CrxBCCCHEMJAALC54RmMjPPMM9PbDsmVYf/wQ8fR0lCOVi41YFLOzE3XPPnA4wHns3Fdj8mSU3z6COW8eSiCA3eEAVSUSi6JV16D/4Y+YTz4Fz/4N5aqrIDOT0+mdVCx2lGuvgc1bYMMG2LETo6gI5Y9/hEAAffFiuPejOPLzj+mZPqmiAwPr6v7sf2DxYlRfAmY8hvnONvjhD+GdrfDr30BfBGXaNMwv/AvkT8Jus9MfDsNLL8GXvoRSWYHx0sswbRqKzTG0c3/5i6hXXYXx3e/Cxk0oq1Zh/ve3j9nE4nSijRv3f+Y5AxvWwfhJWB/+GbFLL8Hh9mAaBnp5OfFf/AKeew7z9dfhppsGhotLLzAwMOf38J5i3vjpnyhdv4OEzCBLP3MHs6XnVwghhBBiWEkAFhe+3n6orhnotb39VowZBccM6NVgoJjT2HFHHjl2uK923bUf3PJoaFMBMzEF85NWOHwYXlmDsWMHjsWXDT2oHmEWzIJ/+9rAMOUtW6C75/9n777D4zjPu99/n5ntBYveARIAwd5JUSIpqlISZRXbKlEc23GPTyK3HJfYSWSf45pYfhMXJY5t2ZIVy5JtWZKt3qxKiRRFsTeABb0Di45tM8/7x1KgIIAERIJcgrg/18XrImdnZ+7ZXRD7m6eh+wegvgH2H4AnniC6YgX6wrVwzXswyytPfEDLwvzoR+EDHxiuWwHOi9YR27UTe++e5Ljg5StQt96KXrMaUzmIA2YwhPOWW4jcex960yb0vn3Q3Y2Zmz+hazELS7C8XshMLkelszIxV5w3Yh/76J/RdWvUF7+AffPNmBjHAvKqDLjxJti2AxrqYP8+9No1KJ+MadVa03aojqf/8272P7eZYFYG6z5+A6tuvBJPKCDhV0wZDsNkoKOfno7uVJcy6QxtUDBraq1QIIQQYmwSgMXZz2FAWgB6+mDz61g33jBqoquk443dHaeVcf48mDsXnnsOdu0i2t83sgv1hCjMiy/BenoNrj8/Suyhh2DbdmhoSLbkHjqMPnQYHvgj/OcP0f/Pp9Ef+xhGznG+UFXOxvqbv8Z8R+3xYBBmz4GcfOgMw4Yr0UuXjJpdOeb3YVx6CfZLL0FTE/T1wgQDMIBSBiiV7OJsvIsAduFa3FdfTXzUe2HAsqVQXgb790NdPc5olMQUCMBaa9ra2mhoaCAWi03oOQe7W6iJtaD9Jx4HrrWmp7mdjXc/xP4X3yBrRiGXf+7DrLp5A57AyU+mJkQqFBUUUZhfmByacg460c2o6FCE6r1VmKb0ahHnBitu0d3Vg7bPzZ9nMb1JABZnPU9OLpELL4JHHoHf3geHDmFdfDFcdilUlGOkhcDnPeEySM6+HiIHD8Lzz8OBKujshGhkuBlTVVWhhyLQ2YWOJ066VtN0Yb3/Boz3XoddVw/NzajDh1Fb38Te+BrqUBW6vgH79ttBa/Stt46aSRmAwgI8Re9cSgnAgEAA3M7kBGAV5ejQ6OfbSkFOdnISq0gMEmO21046Y+5cImnBMW85qLQ0CATQloUaGiKm7Xc53VhqtLa2cvvtt/Pwww8zODg4oedY2iY6dhv5CBpNLBIl3j9EqCiXCz96g4RfMaUppaZVrwWlFIZh0FDfwH9++z9wOsdbjk+IqaO3txfbtjEMY1r9XItznwRgcdaLB0Pwzf8Pujph547kWNsXX4JvfRtyc7HPX4Vafzn2+iswKitGBWFj53Yi3/0e/OnPyaWKlEr+eRtt28l1hQeHhtcXPhXKcGLOLIeZ5bB6LXzww3iGBog8/Qzc8V/w0kvw2/uwFy7CvOZqRrVS+7zHXcfXNk0wktHRFUzDGmNtXVMpLLcbtEZZFtq2TvmaJsIOhY671q/b6SRimsngb1nJcD4FaK1JJBLYto09wc+GrW3Q1qjP2TspwO1ykVGRzeoPXcfaj90g4VeIKaSwsJA5c+YQiUQm/P+DEFNFKC2E0+lk0aJF0rtBnFMkAIspwVy0BOvOX8Bjj8Ezz0FLc3JpoP4+ePIp9HN/gccex/7Hf8S49GKUww2A3ViH9Y9fTAbOgB9mzYLMDJTPi3Y4QB1tgzxwAA4fQWmN1qfnS0zc68d873XJ5ZeaW9B19bBvL/rii0a3Ak/0TqtxlrWhnm31TILc3Fy+/OUvc8sttxCNRif0nEM9reyNtqH9J24NsgGlwen3kF8xA2/QPwkVCyHOlJUrV/LDH/6Q1tZWCcDinOTxeJg/f770bhDnFAnAYsowK+fAF+bg/NSniBw+jKuqmljVAXhjK2x5A/7yPHi92BVlxyaZevyJZLfnUBrqIx9B3/JXqPJyVEYGhstNsg3OwvqX2+AnPzkTV4E9bw5qwTw4sB/aO7DjMZkL+SxmmibFxcUUF0982aaM5oPEhuoh6+wf4yyEOHler5e5c+cyd+7cVJcihBBigiQAiykn7g8mW4QXLQErBo1NGD//Bfadv4SNr2K2tMLRAGy8+hqW1lBeDl/+IuYYa/za7R3Q1ganMPb3XbF1spu1YWCYJk4UZ+jMQgghhBBCTGvnXn9FcQ6y0f29Yz5imi7M0hLM+fMhlAY9Pei3zdRrDQ0l/+Jw4fKN7l6qYxHUxldh+87k+OCToO04xt7dWDWH0ZETT5LkjA5h7NgB+w5Aejp2fh5xt/ukzns6uZVCe5PrBqtoDB2LpLgiIYQQQgghTp20AIuznt3ejv7Vr2DpMpg5E6MgHzsYwFQmzoF+EtXVxF97DcJhyM/D8Pl4a3olo7w8ORdvfR3R3/0O9d7r0fn5GFpjt7RgbHod+65fwd49Jz35lauvn+jPf4Hq7cU+byXmokVYxcV48vKIez2AgR4cwG5sxNq8GXXvfejqKli+DBYsRPnGnuwqpRwOyMkFpVCNjRhvvom9fDnK5Ul1ZUIIIYQQQpw0CcBiclkW+sGHkmvenoBtmhiLFqFuuHHcQ+quMPzgB6iSUvSMGdiFhRjBIJZpYvX3Q3V1cs3deAJ19dVYRYXDXRvUtdeg7r0X3dQM/+c/4LXNkJ+XnHyhn8GYAAAgAElEQVSopQV7505U/wA6Pf2kW4AjtgXVB+HZZ+Gpp7FmzkQVFxEtKEB7vRhKYQ8MJNcE3rs3OflVUSHcdCPu5ctInIUjgGNeD6xcDj4vev8+Et/8Fsb8+VhHr0fn5cJNN2HkFaS6VCGEEEIIISZMArCYXLYNf34E+8+PnHg/lwv7lpsxJxCACfph+Ur0tjdhz16wrGOzbSqVbK3MykLdeAP6Ex+HwsLhp+pV56G/9EX48U+gtg59+Ehy+R2l0E4nFBehb7kFag7DI4+e1CUbbg9q9QXYjQ3o2lp44w305s3J82idbIFWCkwT/L5ky+9f3Yy64f0kMrJO6pynmzKcsHoN6qqr0M8+A08/g/3kU8PXoxYsxFy7Fi0BWAghhBBCTCESgMWksDIyYPUFqIyMCe2vnQ5YvPjYhpJSuHw9Rkkxdnr6iH2N/HzsH3wfV1U11r592IcPo8PdYFsQDGKUlqKXLkGvXIExcybqbevQKocb4yMfgYpZ8Mor2AcPJlt604IwYybGeeehVyxLLqMUiUFJCfjf3cy9yufH+vhH4dJLcNbWYR08iN3cDO3tEI2A6YC0IEZ+AfbcObBoEZ7Zs4mHRr9WxvmrsL0eWL78uOdz5mQTX7MG8guI5ecdp/1YQVExasMGVOUsdHD0NVmLFsJVV2EsW4ZyuUbXUlqC/fXbUJdcDDt2ots7IBpBaWBGKYlQGibJWZKtyy5H9fXjqKjguB3JHQ5YvAi1YQN6wXw8Ljfx416lEEIIIYQQk09prfX4u4mzVfvQELMO7GNg6fED05mgYxF0awt6aGLrpKJApaUNd6HVvd3Ybe0otxNVUDC8ju87zoLu7cHu7UmGWBtwOSEYwAiFkq2Wx68QK9wJ3d3JVmqnC3cwSCIjHTBxhDuJdnWiXC50cTGmOtl7Qxa6tw890I+ORMDSRxd6daECflRa2nGuLclurEMPDqECfoyCsZfdcUaHiLS2QjSKUVSE8o0d2J19PUSaW1BeN6qoaNTrY7W1QE/P0XMVkVwSaozjDA0QCXdBJAKWDRpwO6G4GNNMBmfrUBVYGndO9glatTV2awu6pxeVkY6Rk0Mq5+Gz9u/Fnjv/OFd9arY3H+RVWQZJnIDdO8TcPi/nl84jGJDPiRBCCHGmSACe4s6WACzEVCMBWKSSBGAhhBAiNWQZJCGEEEIIIYQQ04IEYCGEEEIIIYQQ04IEYCGEEEIIIYQQ04IEYCGEEEIIIYQQ04IEYCGEEEIIIYQQ04KsAyyEEEKIKUFrTW9vL4lEYnib0+nE5/PhcMhXmnNVIpFgYGBg1PseCAQwDGnLEUK8O/LbQgghhBBTQjQa5Wc/+xn19fXD2yorK3n/+99PSUlJCisTp1N9fT1/+tOfOHTo0PC2efPm8eEPf5hgMJjCyoQQU5EEYCGEEEJMCfF4nPvvv59t27YNb7v00ku58MILJQCfw5qbm3nwwQd5+eWXh7dt2LCBG2+8UQKwEOJdk34jQgghhBBCCCGmBQnAQgghhBBCCCGmBQnAQgghhBBCCCGmBRkDPMW5lOLTls3tNYdTXYoQU8rlAwOpLkEI8S45nU6uv/56lixZMrxt7ty5ZGVlpbAqcbrl5uZy9dVXU1FRMbxt0aJFeL3eFFYlhJiqlNZap7oIcfISlkVdOEyblRh/ZyHEsKBSLMjNOy3H3t58kFeH6iErcFqOL6Y+u3eIuX1ezi+dRzAgn5OJsm2b1tZWYrHY8DaPx0NGRgYulyuFlYnTKRqNEg6HiUajw9u8Xi9ZWVmYppnCyoQQU5G0AE9xDtOkPDub8lQXIoQQQpxmhmFQUFCQ6jLEGeZ2u8nPz091GUKIc4SMARZCCCGEEEIIMS1IC7AQQgghpgTbtqmvrx/RFdbn85GTk4Pb7U5hZeJ0GhoaoqOjg6GhoeFtfr+f/Px86QIthHjXJAALIYQQYkoYHBzkU5/6FLt37x7etmbNGr7xjW+waNGiFFYmTqc9e/bwne98h82bNw9vu+SSS/jxj39MdnZ2CisTQkxFEoCFEEIIMSVoreno6KC5uXl4W1dXF/F4PIVVidMtFovR2dk54n0Ph8NYlpXCqoQQU5WMARZCCCGEEEIIMS1IABZCCCGEEEIIMS1IF2ghhBBCTAlKKYLBIKFQaHib3++XiZDOcQ6Hg0AgMOp9NwxpxxFCvHsSgIUQQggxJbhcLj72sY/R2to6vK20tFTWiD3HFRUV8aEPfYiLL754eFtZWRk+ny+FVQkhpiqltdapLkIIIc4l25sP8upQPWQFUl2KOEvZvUPM7fNyfuk8ggH5nAghhBBnivQdEUIIIYQQQggxLUgAFkIIIYQQQggxLUgAFkIIIYQQQggxLUgAFkIIIYQQQggxLUgAFkIIIYQQQggxLUgAFkIIIYQQQggxLUgAFkIIIYQQQggxLUgAFkIIIYQQQggxLUgAFkIIIYQQQggxLUgAFkIIIYQQQggxLThSXYAQQgghxFQUi8Worq6mrq6ORCKR6nKEmHTBYJBVq1bh8/lSXYoQk0YCsBBCCCHESXj++ee57bbb2LVrV6pLEeK0UErxzW9+k89+9rO43e5UlyPEpJAALIQQQghxEsLhMG1tbSSsBGlpaThdzlSXJMSk6Qn3MDQ0RE1NDZZlpbocISaNBGAhhBBCnLJ4Ik4kEkGjU13KpFMoPG4PTufogKu1pnRmKZ/96udZtGxRCqoTYvLFrQT/9rXvsvGFV1JdihCTTgKwEEIIIU5ZW3sbBw5VwTnYCGonbCpLZjGjdMaYjzucTvIK8ygpKz3DlQlxeiTiCbx+D6hUVyLE5JMALIQQQohTlrAtPOlesotzUl3KpOtuDzMwMJDqMoQQQkwCWQZJCCGEEEIIIcS0IAFYCCGEEEIIIcS0IAFYCCGEEEIIIcS0IAFYCCGEEEIIIcS0IAFYCCGEEEIIIcS0IAFYCCGEEEIIIcS0IMsgCSGEEGJK01qTiCeIx+MkrAS2ZaO1RqEwTAOX24Xb7UYpWdRUCCGmOwnAQgghhEi5/r5+Go7UU3ukloG+fmw069ZfRG5e7rjBdfe2Xfzl8edoamikrbWdnnAP0WgU0zRJz0ynvKKci668mPPWriKYFjxDVySEEOJsJAFYCCGEECkxNDTE7jd38crzL7Nnx24a65ro6eomGo0CUDKzhJycHJR54gD85qat3P3Tu0gkEliWhW0fbQFWCsMw2P76Nv7yzHNcdOlF3PrVz5FfmC+twUIIMU1JABZCCCFESjTVNfLft/8XmzduQtsarZN/3mJZ1oSOYzpMcgvzKJlRTG5BHhmZGXi9XhKJBHVH6tiy8XVaG1t5/OHHMRwm/+/Xv0R6RvrpuiwhhBBnMQnAQgghhEgJpRS+gI/yygpmls9k6XlLicViPHzfQ9QeqZ3wcW780M1ce/P1uFwuHE4HpmliGAZaa+KxOJ0dnfzr577Kppc388pzL7Pusou44rorT+OVCSGEOFtJABZCCCFESuQV5nPrVz6DL+AnvyAfj9fDi0+/wOMPPf6ujuP1efH6vKO2K6Vwe9wUFhdy61c+R83BL9Lb08uubTslAAshxDQlAVgIIYQQKeEP+Jm/eMEZOVf57ApyC/LobO+kq7PrjJxTCCHE2UfWARZCCCHEOS8aiZKIJzAdJsGgzAQthBDTlbQACyGEEOLcpMHWNvFYnNdefJWWxmYyMjNYsHRhqisTQgiRIhKAhRBCCHHO6GjvoDfcQ8K20Amb3p5e6o/Ucc/P7yEWi3HJlZew/IIVqS5TCCFEikgAFkIIIcQ5Y+NfXuHFp19gcHAQK2HRE+6h9nANLpeLK665gg99+m/JL8xPdZlCCCFSRAKwEEIIIc4Zh6sO8dKzL9LX2zdie+nMUgpKCvEF/CmqTAghxNlAAvAUF0skeKOpkb1ap7oUIaaUQsvmPeXlqS5DCDHJLrhoNf6An1g0RjweJ9wVpvZQLQf27Ofh+x4i3BnmAx//G2bNrUx1qUIIIVJAAvAU159I8KOOdv5QUoI2VKrLEWLqqKvHBuSnRohzy3lrVyXH+GqwLIu+vj7am9t4+pGn+ONvHuCJhx4nLT2NT33+0/j8vlSXK4QQ4gyTADzFWVrzpGFg5OSluhQhphSrvSPVJQghTgOHw4HDcezrjc/vIy8/j+y8HIaGhrj3zt+wZeMWrrj2yjO2BrEQQoizh6wDLIQQQohzXk5eDuvWX4Rt2XR2dNLa1JrqkoQQQqSABGAhhBBCnPOUUjhNZ/IftkbbMneGEEJMRxKAhRBCCHHOi0aibN38BkopfAE/ocxQqksSQgiRAhKAhRBCCDFltbe1U7X3AP19/cfdx7ZtHnvgER743z/gcDoonllMWaXMAi+EENORTIIlhBBCiJTpDndTe7AGrZJdkg9XH2JoaAiAQ/sP4vF6MIzk/fqc/FyKiotGPL+m+gh3fP8nDPQNsGzVMhYsXkBOYS5ut5uBgQEO7TvIxuc38ubrWxkaGqKsoozrb34vGZkZZ/ZChRBCnBUkAAshhBAiZTa/tIkvfPxz2LY96rFvf/VbI/79ic98kq9866sjtilDEYvG2L9nH3t37sG2bbQ+Nr5XKYVhGDgcDsoqyvn7L/0DF162DqVkETQhhJiOJAALIYQQImVcbhdZOVljBuB3Gmvd3gVLFvK5r32el555kaq9VbS2tNLf24dlJTAdTtLS0sjKzWLF+Su4+v3voWxWOYYpI8CEEGK6kgAshBBCiJRZtHwx//Zf3x/uAn0ixSXFo7Z5fV5WX7yGlavPo7Ojk862Dvr6+rAsC4fDQTAQJDM3i7z8PJQhrb5CCDHdSQAW75pORNHhbnRvD8TiOLUm7nCivG4IpqGDAUzTleoyJ4Xd3YXZ0EDC6YLZszDVVPiRscZ5XCHz3wkhzhbZudlcePm6Uz6O0+UkvzCf/ML8SahKCCHEuWoqfJsXZwltx7EPVKE2bUJt2w7VB9HdYeI24POi8/MwKirQc+egZs/GsWgRca8/1WWfEsczzxD/7vdQ+Xlwzz2Qk5fqksZl/vEh4v19I7ZppcAwcDqdxANBSA9Bbi4qJwcjPYNkKBZCCCGEEOLcJgFYTJAFjz8Jv/wV+rln0JEYeFxgmiTDk4ZYAjseB7+fxPLlJO74Mea8Baku/JTEOzpg+w4oLUHHY6kuZ0JiX/oS1NSO3KgUmCZxrwfSM1C5eVBRhl64EL1uHXrpEoz0zNQULIQQQgghxBkiAVhMiLXlDdQ3vw3b3oSCAjhvJcyahZGRjm2aGEMR7HAYmpsxamqxW1qh//hrMorTTCnIy0NVVg5v0paFiifQ/f3o+jrYvQueeBL70cfh2vdgf/RvMUpmpq5mIYQQQgghTjMJwGJczoE+9P/+BnvHdsjOhn/9Z1i3DqOkBBXwY2JgWXHcvX1EO7uwa2tRDfXokpJUlz59mSZccD76q/90bFsigY5EcXV3E2tqhJ27UJs3o3dsh5oj0NmJ/bWvYuQVpK5uIYQQQgghTiMJwGJckY522LwFEgm4/jqMj34U5fKM2Mc0XSQysjAzsmBWJdqOYxjOFFUsUAqVl4dx/upRD1nYGIk4urUVtWUr+uc/h+dfQP/6HigqhC9/BRkTLIQQQgghzkUSgMW4nAODxDvawLZRy5eNCr9jUccNvxZWUxPsOwB790BdPWpgAO12Q2EBxrLl2CuWYWZkj/lsbcexd+3G6XRiFBQQDwYw9h8g8corGFXV2NEoRl4e9ooVeC5cSzyUceJr6wkTeWMrxpbXoakZHA7s4iJYuxZjyZITP7evh0hjI1gWnpkzibld2Pv2w8aNUH0QenshNxfzO999q3rsrg7MqmqsPXvQh4+gwmG0aUJuLsaCBdirVmIWzxjn1T1VBsrhRhWVogsKMHNzsCIReOll1K9/g3XddZhz54/5TG3HsY8cwfnGVqx9+9EdHckJtnJzYfFi1JrVGONMFKYTUcyqauJvvIFRVY3u6kKbJkZRIfay5bBq5XHffyGEEEIIIU6FBGAxrrjpQDmdyaDz6mtYn/zESS9zpN7cBrf/AHbvgY4OGOhDR+PJLrvBILqoEGP9eqx/+HvMmeWjnq/bO+Dv/p54Vgbqbz+MDqZh/+xnqG3bsDu7wLbRAR8qv4jILTfj/sytJDKyxqzFaqrHuve3qD88iF1zGPr6wTAgGISyB7BvuhFcx7/O2Nat8MMfwcAgsX/5GnZzE9z9v7B7N3R3QywGsyrgaAC26moxfvB/SGzeAs1N0N2NjkbBMFB+LzojC7VmNdbnPou54ryTen3fLWU4Yc1q+PjH4I0t6IPV8PzzMEYA1oP98ORTqPvuI7F9B7qjA4aGkscJ+CA7B71uHcZnP4O9eOmY59O93eg//pH4Hx6Affuwu8MwGAHDwA4GUIWF6Msvx/r0pzFnzzmt1y6EEEIIIaYfCcBiXCozA105Cw4eQv/5EdSnPo153XXEFizAKCxABdImfqzqavjzIxAMoopL0JkZ4HTCQD/U1aH37Ye6WlQshv1PX8YoKB55gFg0ORFXZib4/ajWNjhyGFVUDAsXoIci6P0HYP8+uOO/iKUFMT7/j6PqsLu74Nf3wI/vQHd2Qk4OrFyBCvjRXT2wZy/U1kFZ2fEvpiucDLudXei77kbt2YdubICZM2DpUnA6UPnH1qM029qwHnsMentQBYXoykrweCAaRTe3wOFD8MAfMQ4dwv7dfRhFpRN+XU+NibriimTX9e07YOOrOD/+ceJu7/AeerAffe+96B/fAYcPQ1oazJ2DSs8AbGhsQldVQ1MTiYZG9L99F3PJshFnsbu70D/9KfzqLmhoROXmoBcugrQQyk6ga2qT711jA7S3Yf3rbRKChRBCCCHEpJIALMZl5GRj33ADvPYaujOMvu9+Ys8+h1FcnAxx112DXr8eIz0dME54rHhmFupTn0RfdRVmSTGJ9BA4nDA4AEdq4a670I89Cg8+BJdfhnVtPqYa42Pa1YV++RXU7Nnw9duwL7wQlR6CSAT1wovo//gh7NsHd92N/tjHUGnpw0+1dAI2vw6//wN0dsLatfB3n4DzzgevG2dPL9ajj6J/cgd6y5bxX6D+fvQTT0DlbPjOt2DNGkhPB6cDl2GSeOu8aSF43/twrliBnjuHRFYmyuOFWBTd1Izx0MPYd/8ae/PrmHf9Gv71tom/SadIZWWilizB2rYdDlQTi0ZRwwHYhk2b0XffA7U1sP5y1Af/Br14MYTS0FrjaGkl8dRT8P3b0Rs3wq/uwvn9ucMh2tIJnM88Q/y390NHO9x8I+qvbkHPnQsBP9q2oLYu+Rr84ufw9LMwZy7WV79y0r0NhBBnloHCtm0S8cT4O08xtm2jlMyNIIQQ5wIJwGICTNSHP4Td0gI/vgNaWqChAbupCbZuRT/1FCxeDBetw7r4Ioxly47fKrz+MtwXrSPudqMxMN/+WHkFRkE+8YEBePIpjOdfwHXZZcT9wdHHSSRQ2Tk4P/85Yu+7fkRI0iUlye653/0uurYWveUNzMvXDz+uwmH0X/4C+w+gFi5Af+mLGFdfNTxu2S4CZs1CBwJw62fHf3kSCcjKgn/+Gp71l49oOX3710BzdiXO736HiMuJqRwjr71kBnrRIujrgzt/ifXIY/DJT2DmF45//kmgHE6smTOTf29pwrYSw/VZbW3w1FOwdzdcvh7HN24jsWTxiBsTurAYY/587IQF3/s3ePYvRPbvP9YKXFuH/fgTUHsE9dcfQH/tn1BlZZhvfxUKi7EqKiAeh//5GTz/AtxyC8w6tpSTEOLs5XF7MAahZX9TqkuZdC7TSXalzE0ghBDnAgnAYkKUw43x5S9hXnMN8Z/+D+rljei2FujphdZWePZZrBdfhDsy0FddiXHrP2CvXDFqMixTOYi7j/exM4jPmY2xZAn2Ky9jb99ONBrBGCsAB3yw5gJil1w0qoVQOdw4r7qK+H/+KNnCW3UA3haAdXsnvL4FnCbqkktg9fmj6lQuD54PfpDIj34MVdUnfnFcLrjyStTKFSPC75jX5/aODL7HzojyBeB974P/vQfqaqG+Hs5QAAYDQsmbFjoyBLY9/IijqYnE61vAF4Ar1+OYNw89qlVeoTw++Ku/Qt15J7qzA/Xmm3A0ABtV1dg7dkBuHuo970HNmAGjXgmFmZuLvu467PvuT05Ktm9vygNwIpGgqqqKnTt3Mjg4OKHnNA50cSjehXXcz3qSxsaKxsEwmbFiHsHsTLxpAVxeD4Z54t4UQpxtcrJzyM7KRqNTXcqkU6gxW4C1Tl5rZ1sHv7/7fl565sUzXZoQp4Vt21Ttq8a2bCzLSnU5QkwqCcBiwpTDjb14KeZP/wcr3AE7d6OqDqAOVGFv2w579iS7Jv/mXhL7q+A/bsdcu5Z3dou2dAKam2Hrm3DwYHIsbSSCoTUGYG/ZAgNDqKYmdCw+djG+AHrunORY4DEkSkvB7Uq2znaFRz7Y2wOHDkFmFnreXHQoNOYx4qEQXHbZ+AHY54Mli1EZJ55xOsnGCndh7NiFvXcPtLZhDL0tcLa1QTQO8W6McPcEjjeJ3voFZzhGfNFLtLZBVRXEY/D0s8SO1GC/7XFDa+yjXwLV0FByPLel0Q2NR/fQ6Po6dGMTmCb2Aw9gvPoq1hjHMLROTnQ2OJi8sdDaetovezxNTU18+9vf5uGHHyYSiZy28zi9HrJKCsirLCW3cgb5c8soml9BVkkBDq8H0zCSE6YpBQrpjinOSkop1DRaRi0SiRCJROjs6ORPv/9TqssRYlK9dYOnu7t7+O9CnAskAIuTYmZkw8WXJP9gYQwOYVRVYf/mXvQf/oB+cyv87OdYM0pHLOtjN9bB3ffAL3+ZnAU6Ek2GVK2x33mSgQGUHrUVAOV0oNPSxh4fDCiPJzlrtW0nZ2N+e+3RKFZ3FxTPQGVlYxx3jKkB5SeYBOstLhfk5KBc7hPu5gh3EnvwQfjV3cnwOzgEiQS2PcY1GgacxrA1moXR3pF8D9KCuJQx3H3bNThILBxOzvj88MPHwu/RX4Zvr37412MwiDEwMLxV9/ZCTw9Eo/Db+4495x3HGPFK+Hxn+DUYm9/vZ/HixTQ1NTEwfE0nNmTFGbDjaGO8IKBJJOLE+gaJDUQIN7bSXtOAfvIVDIeJy+3Cn51O3uyZlCydS/7sGYQK80jLzsCfGcLpduFwOlEOUwKxEClgmiamaeL0ugjNzMAZOPHvASGmCq01vYc6Geoewu2Wz7U4t0gAFpPARPkC6KXLcZWVEVEK7rwTXn0Vs6YWiksAA8uKwbe/m5x9WWsIhZLrxzqdKPNYF2Td0Q4dHeiENRyQ3kkrA2WO3ZkYwKUUx4tOltYQS4BSyaB5Is7jrWf8NkphuD1wglYPPdhP7IEH4Jvfgrb25CRZGRkolwttOofDi44MwpEasG1srY/TXXryOYciRA5UJf9RXELc6Ry+moSVSI7L9XggL3dCs35rvx87L3e4fiMex04kIOhPdoP2+MY/RlbGBFvVT6+srCxuvfVWbrnlFuLx4/RIeIf9nQ28GW1CB8dfM9uKxRns6WMo3EvbkUaa9h2mvbqG3vYw8aEIA509VL30Bvue2wRKEcrNIlSQRWZJIfmVM8mfV0ZOWTHeUBCn143T48bhdGA4HRimBGNx5sTjCQYHY9j2udd9XymNz+fA5Rr5O8HlcuF0OkkrTWf1N64kf+WZmr1fiNPLTlg8/49/ovaZKgKBgPwuEecUCcBiUsVDGRiXXor95FNw8CC6K4x6q11w02a4+9fJ0HnVVThvvon4ihWovFyUz4ftdCRbbL9/O/zwx6etRofTSSItCLEIeqAfhcXo8agAGqOtfXTL9EmwjxzBuOvX2G3tsHIlfPADsHo1urQEwx8AlxNbKczXNmFtuDq5JvEZFKmrR725NdlqvnQJ+N42ltnlhoAfikswvvVNuPY92Ce4+fAWUx3bx/Z6k8dctBi+/2/oC84f/+YDYKgzdQvgxILBIMHgGGPRj2Ow2aBhSEFW4F2dR2uNtm0S0RjdLR20VtfQur+Grvpmuhpb6W3uYKCrm9ZDDdTtqEJbyZlpXT4PWTMKyJtbRm7FDLKK80kvyiGYl4UvLYgn6Mfl82AYpnSfFqdNfX0Hmze3EItNfGm8qcI0B7jgggCzZo3dK8jhdBIsySCjIucMVybE6WHbNu6A50T39oWYsiQAi8nncMAYXT/N51/AisWgtATHN27DXrp8ROw0AWekj1hnF3YsCp4TTSh18pTPBwUF0NqGrqvDOTA45kzTzmiE6Lbtk3BGG1pasasPQEE+fOTD8ImPj5q8ywSMmlosazIi98Tp/l64/350WzuEghjr1o2YFMwOhaCgCDo7sevr8MQTxB3vpjuUgcrJQWdlQXMTqrERpTXqON3XpzOlFMo0cfm85JaXkFtewoIr1hIbjDDY1c1AuIeO2mbaD9fTdrCOntYOhsJ9DIR76Wntov1IIzrxIqbXQyAzjbTcTHJmFpEzq5SsmYWkZWfiTU/Dn56G0+/F7fXg8LgwJnAzQojxJBJg2zl4PEWpLmXSJRKdRCLtqS5DCCHEJJBvoGJczugQkcYGjMKi5Lq1J+rqGxnE3rUT2tpRuTmQlja8v9XZmezS7PHgKCtjrM6kiV27khNqDQyetgAcz8yAJUuS6wBvfh3r0CFYvPSdV0LkjTdg06uTcEaNEY1i9/aj8gpRhUWoMcYdW51t2I89NmrM8umjsbvD8Mc/wm9+A/E46pKL0JdcNPIdLiqCJYvg4T/BCy8SufBCzGVLGbvVPMnSiRHjs41Zs7AqZ8PLL8Ozz2GvWI5ZUcnxP0ua5Ijgs6MFOJUMw8AT8OEJ+MgsLaRkyTwAbMumP9xNV10z4doWuhpaCDe2Em5qpa+1k/7OHpr2H6F2237sRAKlFBkFuaSX5JE9s4iMwlzSi/NJL8wmmJ2JPysdf1oQ0+PCcJgYb024JYQQQj3DwHQAACAASURBVAhxDpEALMYVaahHfe/fsRcugAULoaIMd0Ym0bQgpukENHpwELu5CV7bBA8+nJwN+uoN6OJizLdmgS4tSY677e4h8sgjcOWVmLk5gMLu7sasqiJx192wc3tyzOlpYmRmodeuQT/7HGzajPXb+7BNE6OiIjl5Vn8/9rZt8MMfQXfvJJxRJSd0yshAd7SjN26EhQugpBjTdKIHB7Bra+HBh9DPv3BsNubTQNtx6B/ADnfBwcMYGzdi3/97qK2DylmoWz+DyhzZhc9TkE/k0ktg82Z4ZSP8/BdYf/3XqPnzUFmZR1uLLXT/AHZXV3L5po5OrGvfM9zK7aioSK4TvXMn+tHHMDIz4aYbcVRUkMhIB0wsncDo68fuaMeoqQPAvvTi4050Nt0ZpkFadiZp2ZnMWDYfKxonMjhEtG+AvvYuwvXNdNa30N3cTk9LB72tXfR3hGmrrqNu614wDNwBL960AOkFOWSU5JNZlE9aQQ6hgkxCOVn4M9PxpgfxpgUwJtDtXQghhBDibCffLMW4nAODxJ94MtlSWF4O8+YRLSqC3Bxsjwdt28klew4ehC1boLYOVTYTfdONGMVv6wq3fj3k5SVnf779B7D1TeyZM9BKYbS0ktj6JlRXgeGY2ORTJ0n5AtgXXwzrX4U/Poh9z/+ijhzBXroE/H7o7IIXX4QdO2HmDKipPcUzGtglRbD6Anj8Cfjd71Dt7ei5c7A8Hgh3o3bvhldfRfu8yZsEp7rcgG2j9+zB/tlPj21LJNDRKEZXGLOxEb1vP/aB/RCNoRYugM9+BjZcOepQcX8QrliP2rsPfd/9cP/9sP8AatlS7OIi8HhQ8Ti6K4xZ34BVXQVuD8all0BaMgAnMrKw3nt9cjmlRx7F/uWdqB07iS5ehCosQDudyRmiO7ugrg6qqlHz5uJZfQFxr/w3NR6lFA6Pi4DHRSAzRNaMQmauXIi2NZH+Afo6wvS3d9Hd0k5PcyfdDS30tHQQbmqlt7WLpj0Hqdm6B9vWeAM+grnpBHKyyMjPIVSYQ6ggj4yibNLycwjlZ+PxeTE9bhwup3SfFkIIIcSUIt8sxbjiwQAsXwqbNsG27bBrN3hcYDrANFCAHUsku+66nHDeSvibD6Dec/WI2X7NRQuxbv0H+MUvYPceOHgI7XKhTIUdOzrL8IYNqGgU/fQzp/WajNmV8PGPYff2wosvoB/+Ezz9FGAca4G98gpUcTH6R6c+IZenuITYhz+MbmxG79iOvve34HGjTAMdS6DRsGIl5uWXYX33e8klh06FZcGWN9D79w1vUlqDpbGtBERjYJowoxR18cWoa6/Fdfllxx3ba5aVY33qkxgeD/rhh9GvvYb9+utw9P3TlgbLSo7x9nphw1XJseBvt3ABjs/cSiIYRD36KPovf4GNLydnwT56DNtKQCyOnZ6OsWb1hCbKEsenDIU3LYA3LUBueQlWwsKOx4lFY0R6+ult66CnrZOepg66m9qOTrTVRndTB7Vb93IoFsd0mLg8HgLZ6QRzMwjl55BWkENmUT6hohwyC5L/DmRl4HQfb0kxIYQQQoizgwRgMS6jqBjjttuwDhxA19RCdTW0tEK4G52IoZxuSA+hZs6ABfPRK1fiXryYeDD0jiOZqL/7FI6yMhLPPouurobBQfAHki3GK1fguPRSrNdeg5YWMEyUc+QXau10wYL5kJWNysg8bs0x00DNmY32ByAvd9TjynDiXL2aeCCAdf4q2Pw6qqkF5TDRRYXotWtwXnYZib174bmF6Pz8UbXYoRCqcnayC3MwcMLRqnG3F9cV64l4vfDss7BjJ6q7B+VyQlEhxpIlWJdegvL7MR59DHtgACN0kjOpzp4DgZGTeilFMpB6fZCVmRzXO2c2VM5GL1qILikmfsKuxgbmggXYn70VdcEF6M2bYd8+aG1FRyIYbg92bg5UVMCihZiLFye7fb+NqRzoVedBTjasuxDj9S3YB6pQ7R0Qi2D4/NgF+TBrFmrhAuzly4m7x19GSEyc6TAxHSZOrwd/ehpZMwrRWpOIxIj0DzDU209/uIe+9i76WsN0N7bSUddEV00DPW1hmvcd4ciWvZhOE38wgCs9QCAzRDAng1BeNpnFBWSXF5JRnI8/Mx1P0I8n4JPu00IIIYQ4a0gAFuNSLg961QXo81ZiDAwmx3kODEAkgmlZWKYJHg86lIYnI5O410f8OJMbGTl5xG+5GS66EGdXmHg8jna5IBTCk5ND3OtH5+bCypU4lMLOGhlyjdwc1C9+juV0okuKjzuFknK4Mf/934lHo1BUOOY+cbcXVp6Hp7KSyE03ofv70YYBwQCegsJkLUWFyVDncqHeUYtn5Qqsf/8eccvCqKwc93WMB0Ow4UrUyhU42tvRkQgJ04RgAGdOLgTTcEQjJP77DmzLgjlzxj3mWJy3H73ut9GQbE11OJLBNBjESE9HeTzARFtZDYyiUqzCQrh4HXR04hgYQCcSKIcD2+dHZaSjMzNgjEm+kkzMslnoGTPQl18OXWH04EDyc+R0JpdbysxEhUIYxunrBi+OUUol1w/2ugnmZJKjNbZlY1sWsaEIkZ4+Brp76W3torupna76ZsL1zbRW19FV10TbgRpQyWVg3AEf3vQ0AplB0gtyCRXkklGST255EVllJWSXFuL0vpsZxIUQQgghJpcEYDFhpnJAIA0zMLJl8u1tOxOZuso0XVA8A7t4xpjPNXPzITcfzeg5gpXhhJWrJjQ3sL146QT2U8RDGZihjBFbh2vJyoWs0S3IkFzzmMUZ72qeYlM5ICcPOycv+e93nC/u9sLylac09/HErvvkmcoBGdmQkf3WCs9o3t18zcpwonLy4OjrwLt8vjh9lFLHWordrqMtxUVYiQSJaJxYJEp8KMJQXz+Rnn7CTa20VdXRUlVDuL6Z3tZOGve0UbejCofTidPjwh3w4w768WUGyC4tpGBuBTkVxaQX5OLPTMefFcLlccus00KcYRqI9Q0x2NZPpHOQRCQOpsLj9+AvTsOb7UdN+CbpmRUfiNLX2E2kYxArYeHwOgkUhfAXBN/1GvLxoRj9Dd0MdgxgxRLJoR9+N54cP95sP6bbKcvhCnEOkQAshBBiXKbDgelw4PYfW55Ma40dTxAfihAZjDDQ3UtPSzu9zZ20Haqj+cBhmncfore9A6upFW3ZHHHswunz4PX78GUGSc/NJlScR05ZCQXzy8mfU0YgMx2H04HhcKDGWFNcnFtsGxIJi97edmpq3qSmZiv9/V1obXPVVZ+noKCck703MjAwyOOP/4D+/k6UUmRmlnD99V+c3As4wwY7+jj8yF5a32wYd1/DYZC7tIgFH1k1YrudsOjc3ULt89W0bmugv76bgY5+EgNxDNPAHfKQXpHFjMtnM+uGRXizgydYtM7GjttEugdpeb2elq11RNoHcQbclF09l5KLZk3CVY+svWVrPft+s5W2HY0MtPZjxy1cfhdpZZnMXD+HeR9cjicrMG5otW2b5s217Lp7M+H9bQy29mNFLQyXiSvNjT83SOX7FzH75iV4QiOH9XRVtbLtjldgAnNWmn4nS/9uDenl2SO2W1aC3XdupmN3y4SuvejCcipvWoRpytd3IU6F/AQJIYQ4KUopTJcT0+XEEwoSyssmv3JGsgt1IkEiliARi9HT0kHLvkM07jtMx6E6Omua6WxqpbupjSZ1GHW0xdl0OXF7PWQW55E3eyYlC2eTWV5IZkkhmUV5eIL+VF+ymGT9/X28/vqDbN36MI2Ne+jv7yKRiGDbNqBZteom8vNPLgDH4zbPPfc/PP30T4hG+wGDGTOWTPkAHO2JUPtcFQf+uHPcfQ2XwZz3Lh4VgDt3t/DyN56g/vmDJGIJbMsGS6O1BpX82W7f1UzNC9XUPlfFBf96JTmLRg8nSkTj7Lp7M3VPVtG6u5FY1xCJqIVt2Xhz/ARLQpMagK14gj33bGHbT16mq7oDK5pA28m6laHoPNBG4+YaWrc1cP6/rCdz1tg9uACsWIJN33uG3b98nYH2ZIh+61hvvQaGaRAsCVF+zXx4x7QmfQ3d7Lxzc3L/cbhDHiquWzAqAOuE5shTBzj8xL7jPHMkrWHW+xZKlykhTpEEYCGEEJNCGQrTcGA6ALcL99G8mpabRdGCSpYdHVc80NVDf0cXbUcaaNxRRd32A4Trmxnq66e/vYue5nZqtu7hdceTuP0+gpnpBHIyyassoXjJHIoXziazpACX34vL68HhlF9lU1VPTxuvvfZb9ux5DqUULlcAh8PD0FAvlhU/GoRPzqFDr/Pii3diGCbBYA5dXQ0kEtHxn3iW01onby5F4njSvXhDvuP2lDCcJu4M76jtVsIi2juElbBIK0qn4PxSiteWkzYjIxl+9zSz7743ad/bwuEn9uMMelj7/28gWJQ+4jjRgQg7f7GJ9u1NaK1xBly4gx76WntIROPY1iku6feO66555gA7fvoq7btb8OcHqbhmATOuqMTt99B5oI39v9tGy7YGqh7aiSfkZd2/X4vDPXo+iXgszvY7XmHrj14i2h0hvSyL8g3zKLhwBr6sAIlInN66MB07msmYlYPhHN0N3LY08UgMpRSB/DScY5znLc6QG4dr9P9TSieDeCIax+VzE8gNjvHsY7whrwwVEWISyLcGIYQQp9VY44pzy0soX7UEbrkG27Lp6wrTVl1L6/5amvcdovVgDU37DtPfEWYw3EvrwVoOvrYNtMZ0OkjLzSK3spTCeRXkzS6jYM5M8ipn4k8PokwDlEp2fzzHvyzGYjE2btyIx+Nh4cKF+P3+4S/IU+GLslIGoVAey5dfR1nZSioqzqerq4HHHrudxsa9J33c3t5unnjiP2lrO8xVV32Bzs46Nm26fxIrPzus+Nw6Vn7pUtzB0SH3RAyPScHqGcy9eSkV1y8kWBwaMdZ35jXzmfeB5bzy9SfY/estNLx4iPrnDzLvQ8tH7KdQBHPTSLs6ndzziihcNZO0sgzuXnj7pF3jW/pbe6h+YCfte1oIFqdzxU9vYuZVc4fXIp9x9Twqb17Mxq8/yZ5fb+HIM/spuWwWs65fNOpYdX+pZttPXyHaE6H08llc8dObT9hafCJOn4vr/vARiteUn/S1mQ6Timvmcd3vPnrSxxBCTJwEYCGEECllmAahnCxCOVlUrlmOFYsTHYoQ6xsk3NRK/Y4q6ncdoPNgA73dYQY6exgI93Lo1e0cfPlNlMOBy+fBl+Yjs6yI4vmVzFw+j/TifPxZ6QQyQrj93mRXa9NEnUPrSz/yyCN85Stfoaenh6ysLM477zzWrVvHwoULyc/PJzs7G4/Hg9PpHA4KZ5O8vDI++tH/xjQduN0eDAO2bXv6lGqNxSxeeunXHDjwCiUli7nqqs/y+9//8yRWPfVlzy9g7dc34HA7x7xRooBASYil/7CW1jfq6a7pon1nE7OjS3C4j703vswAG37zNzhdTpyB5Azv0b5TXMf+OML72mjb1YRhGiz+uwsoWls24nOigGBRBiu/cDHNm2robeim7oWDFF5Yhi8zMLxffCDKzp+9Sl9tN4WrZnDFHTeddPgVQkxNEoCFEEKcVUyXE5/LiS8UJL04j7JVi9FaE+kbINzQklyG6VADrVU1NB84TG9zB5GhCAPhPnradnN44w5e1DbuYICs0jwySwvJryglb3YZebNLScvPxul24/C4MZ0ODPOtYHz2t5i+U2NjI+FwmHA4TGdnJ1VVVdx3331kZ2cza9Ys5s+fz9KlS1m+fDlFRUUEAoHhQOxwOFLeSmyaEAgExt9xgmwbDh/ewmuv3YdSBhs2fIGMjKJJO/65wjAMDM/xlqtLUhgECkNkL8inY18rQ12DY3ZJf3u4PJ366roZau3Hnxckf3nJcOB+OwX4C4IUX1jBjjtfo3NfK/3NPSNqbNpUS+feNmytWfTJ88mYkzfqOEKIc5sEYCGEEGc9pRTetADe+bMonD+LebaNlbCwYnH62rtoPVhDy74jtB9poKelg+7GdgbDPXTWtdJ8oJbdj7+Mcpi4PG7S8rLImzODwrkVZJcWkVaYRSgvG19GCJffi9vvxeGcuutQ27ZNW1sbbW1tbNq0CYfDQSAQoKKighUrVrBgwQJmzZpFSUkJ2dnZBINBfD7f+AeeAjo7m3j++Ttpaalm7doPsmzZtTjkm85J0zo5KZRhGhguI6U3TKL9EeKRGP6MNDxZvuP25DDdDoKFaWhbM9DQQ19NN7kLkjdBEok4zZtqiHT0483yUX7tfAAiPYPE+qNgaZTL+L/t3Xl0XGl55/Hvvbd2lapUKkmlfbFsyZa8t23aLXql29AQmCZsWSAM5HAyITPpwEkOJ8PAHGaATCbJzMlClkkgZOgkkAwzBGiWphfozW67227vu1Zrs/a1VMu9d/6objeOvFumLNXv859rfcpVOtKvnvd9XnxFfnzF/tv2CCgRuTn6tSAiIsuOaeb+IPf6vATCIcqbaml/sINUcoH58Smmz48xPTTC0MkeRs70Mn5uiOTkLPPTsyQnZjj545c5+sTu3J7kWJRIIkasrpqKVbVUtTZSXFlOKBomWBzGVxzC6/fj8/swl9nALcdxSKfTjI+PMz4+zr59+wiFQiQSCerq6tiwYQMbNmxg7dq1xGIx4vE44XCYUCiEd5l9CbCwkGb//m9z4sRPqK5upaPjg4RCkavfcRmbG5pl8KVeTMvAdXJTn73FforKiwnEQ3iv0uW9EheHuYFpxk+N4IsFiNTHMK38BULTNME0cLMOdsa+/LFMjksmlQUgOZVkfnjmwnWZ2TST3WNkFrLUbG/CzboMPt/JmR8eY/zoebILGYKlIUrbElTf2UDZ+ipCFeErBmHXcZk4NQKOi53O5mYeBLwEYsHcOcKxoqsu6Xdcl4XJJIP7esjMpnJfOngsfJEAgXiIUHkYT8Cns4hFlsjy+k0uIiJyGYZhEAgFCYSClNZWArDx7bk/UJMzc4z19DPadY6x7gEmBoaZ7D/P9PlxZscmGTrTR+/BU7i2jetCIFJEYnU98YZqyhprKakqJ1pTTklFnFAsSlEsgicUwLQsTDO/nbHrNT8/T1dXF11dXTz77LMYhkE8HqetrY329nbWrFnDqlWrqKurI5FIEIvF8Pv9t/XrtG3o6nqF3bu/Tjqd5L77fpWGhk1YK/y4mM7Hj9H1wxMkR+dyZ+FG/RTXlpDYWkftPatofLCVcHX06g90CampBbqfOMHYifNUbKqmcls9Vh6/AArEQwSKg6QmF5jtmcTelsW6xGTl9EyKseO5c3UzMykWJt/Yk5ydzzA3MIOTsYnUlXDs7/Zx6MsvMdUzDpaR+3w7ucnVxbUltP3KHaz/8A6iTaWXDcF2KstLf/AUqbEkC5NJLI9FoCxEvKWCyjvraXywlcTWWrzhwOUDrO0yvK+P733o75npn8LO2PgjfiJ1Mco3VNPwwBpq7m8mUleirrTIElAAFhGRFc0wDULRMKGNrdRtaMHOZEnOzpOamWVmZIKJvmFGeweY6B9m9vwYk8OjzI1NM9Y7SP/Rs7iOQyAcIhApJpKIUVpbSbyhmmh1OdGKOJFEGeF4Cf5wCG/Af01dMmd+gYUFmJubvamuTiqVuqZzSK/EdV1GR0d59tlneeGFF4hEIpSVlVFXV0draytr1qxh7dq1VFVVEYvFKC8vv+2WTI+O9rF79z8yPHyajRsfZv36h/D7F+8RXUksr0Umk8EfDBJpigGQncsw2TnGyKFBen50kpED/az/tTspW1t1XZ8zJ2vT9f0THPuHV/AV+6h/YA0VW/O7l7qkqYxIXQn9e3ro/MFxEjvqiDWXX3SbzEKagRe7GNrbB4CdtskuZC5c72YdsvNpHNth7OgwZ75zFNd1aXrrWqINMSy/h4WJJGPHhxk9NsThr+zFtEw2fewuiiovvZrA8nnITKUIlAYpKg9jZ2zSMynOvdBF/+5uBp7rou3D21n9yHqCJZc5y9wycD1g2w7Rhtfey2SWyc4xRo8M0feTszTva2Pzb3RQurZCIVjkJikAL3MGkHBdzjqZq95WRN7gvYnzRWUZMwwsn5dwaZRwaZR4Qw2N29YDkJpLMjs6weTgeaaHR5noG2ZyaJTJgWGmhkaZGhpj8EQ3fQdP4mRtvIEAxeUxotXllNYkKC6PEYgW47mWTafpLKcyfg5EyvD7bnyZ6gsvvEAqtXRn29q2fWGo1unTp3nmmWcIBoMX9gzX1tayYcMG3vve95JI3B7Dg1KpDIcPP8Grrz5OWVkDd931i8TjdSv2BCzTa1G6poy1799MvL2S4toS/JEAAMmJeaY7x+l55jTD+89x6Msv4eBy5+8+SFHFtS0Hd1yb/uc7efl//JiZ3ikaH2yh9QObf2bDri6nZHWcqp31DB8doPO7RymqKKbp59ZRuqYC02eSHJ2j/4UujvzdXubH5rA8i9v/ruPipB1woX9vD8GyEJt+dSfrfnkr0VVxPH4vC+NzDO3p5fCXX6LryZOc+KdXqdxSR9M72i5aAeEJeantWEX19noizaUUJYrx+L1kF7LMDk0z+uoAfc93cm53NwsT8wRLQzS9bd1FXWvHhGhjnLb3byHelqCoPvdeGi6kpheYPDXKwO4uBl7u5dW/3Q2Wwc7/9BChsiufFywiV6YAvMwFTJOPe318oqcPbrILIFJIfiN7+T1kUpj8rw3AijdU49gOmYUUmVSahelZps+PMTU0wvTAaG759MAIk0PnmR4ep//wKbr3Hcl1fj0ePNeYvEwMPMbNLSteWFhgYWHhhu9/Na7rMj8/z6FDhzhy5Ag+n4/KykpaWlp46KGHbtnzXivbhu7u/ezd+39Ip5Ns3/5eVq3agcezcn+6Q+Vh2j60HcNvUVwRwQq+ccSVk7XJzKdp2NXCwb98kWPfOEDX905Qe9cqWt638Zo6h33PnGHv7z/NyOFBKrfVsfnjHZS3V92S1zI/OsP40WGyGXvRdb5iP/H1lfiLcuHeHwvS/N6NTJwao/P7xzn8lT30v9hFtKkUy+dhfmyO0cODLEzOU7m1lulzk6Smknh+KnAahoHhMXLdA9ul+W1tbH30bsKJN5aJh8qKadjVioPL9MAko0eGGHyll5o3N+EveWPlQ7y1gnv/288Rb0vgCfmw/BZgAg52ymZ2aJrKJ07y6pdeYOT4EKe+eYiyTdVEG+IXfvd4fBYbPrIjt7y7vAhPwINl5eq17SzpmRRNR9dy4EvPc/a7xzjx9QM07mql+e3tS/1WiBQUBeBlLuT18su1dbwrnc53KSLLSiBaku8S5DZmWuaFQBwujVLWWIPrumTTGZIzs6QmZ5gZn2Tm/DjTw+NM9A8zePwsmXQWX+jqS28NxyXq+Ij6Qlg3ceZtZ2cnx44dI5O5dauADMMgFAoRiUSIxWK0t7dTW1t7y57vekxMDLFnzz/R23uQdevuY/PmtxMOr+zumC/kJ7628pLXmR4LfyRIzZubMXwWw/vPMd03ybnnztL8rvaLzvD91xzHoX93F7s/9wQDe3spb69k26P3UHf/asxLdFOXwsihAfZ88UlSE4vPDo61lNPxubfhb8kFYAOTxMYatj56N6FEMV0/OsnI4UH69/aA7WL5PYSrIqx9/2ZK2xIc+qvduX3RxW/8PBoeEyvkBdMA16X1/ZsvCr+vs3weKrfXkdhSw/Ar55g4M0pyYv6iABwqK75MJ9bE4zcpaYgT/MAWZnommembYGBPDzM9E0TrS3l9eYKBSeKOukv+31iWh2CJh5qOVdgpm8nTowwdOEfPD0+y6u3t+gJX5CYoAC9zpmlSXlJC+dVvKiIiN8EwDLx+H15/KZSVUubU4zg2dtYmPb/A7PkxbNvGuobpye58itXJIOsrmii6if20jz32GF1dXbckAPv9fmpqamhra2PLli2sXr2a+vp6KisrWb169ZI/340YHj7DgQPfIZ1O4roOx449w5kzexbdbmjoNK4LMzNjPP30VwGIx+tYt+5+fL6Vt5/SAMrWJajcXs/Y6RGmusex01k8/st/Nvuf7+SlLz5J34tdRKqi7PjUW2h6R9stHXy1MJnk/OEBkufnFl3nOi6Z5MWfa8vyULOziUhjKQ0PrmHsxDDzgzNkM1mCsSDlm2oo31LD+f3nSE+lCJaGCCTeWLpt+S2CsRCWx8K2XSo2VF+2tlA8TLgmiuM4pCaSZJLX32jwR4JUvame09+KMNU7TnJsDsexL3R5r1ViWy0lLWUMHx5g5NDAddchIhdTABYREbkBhmlgmR4sjwdfwE+49Nqn7TrTSWpmgrTUt1AcvvG9lRUVFVhLMOrYMAwikQjV1dU0NDSwadMm1q9fT319PRUVFZSVlVFUVEQgELitJkEvLMwyNTVEOp3kyJEnOXXqxUvu/Z2dHQNcJicH+OY3PwtAW9sDrFq1A59vZXaMDZ9FoCSYO54nlb3ssDTHten/SScvfv4J+l/oJlJTwl2feyur3tl2U8coXYuajibe+bUPkU1nF13njwSIrSpbdLlhmURqY4QrI9Tdvxo7lQUHTK+JLxIgk0wzeWKE+bE5StdVUNIYv3BfT5GP4toSTJ+JfZ1b580b7Ll6I34svwcn5eBmb2yrmjfkwxP0YRgG6bm0ur8iN0kBWEREpMAYhoFpmkSjUdrb2+no6GDNmjWsWbOGmpoaotEo4XAYr9eb2zd5G4Xen5Z7HV5ggWRymmRy+pK3c5zcHtNsNsvkZO6InLm5CVx35Q7Ds5MZZs5NYVom3rAvt+z3Evpf7GbP7z1J/wvdmD6Tjs8/TMvPb7zl4RcgnIgS3hXFZfH7cLX9yqbHIhBdvHpium+C7qdOYfpM4usSFNe+8cWUN+ildG0FvrCf9EyKidOjFNfFLvn4yal55s/PgmngjwYwAzf2J/P88Ayp2TRW0IPlszBvYILzwuQ8qcl5cFyCsRAuKASL3AQFYBERkQIQCASoqqqinKeX1wAAEDpJREFUubmZDRs2sGPHDjZv3kw0GiUUCuHz+fB6vdc2xfo20d7+AL/3e4euGmQfe+xRXn75W9TUtPM7v/M9APz+EOHwjZ2Re7tzgf7nu+h5+hTeIh/x9kq8/2r5s4tD3zNn2PP5H3HuxW6CpSE6/svbaHnfJnz+Wx9+f9pSHeuTnJzj6P/ex9Ar5yhpKqXhwRaCZW8cPWRgUt3RSLg6ytzQDEe/to/KO+sX7dt3XJuRAwMM7u3F8lrEWssJxi9zhNEVzA5P0f2Dk8z0TBBvq6CoKgI3sGCj+wcnGT7Yj52xqbm76fofQEQusnx+y4mIiMg1MQwDn89HOBymsbGRjo4OduzYQUtLy4UOr9/vx7Ks27a7ey38fi8VFVc/nzYQyC1z9np9JBKXHjq0HLjA6Kv9THSNUrWzgWCsCNNnYhivpSrbIT2fout7J9jz+SdITS9Q3lZJ7b3NmP9qL+/gS73s++/PcO6FbjxBD3d++kHW/uLWn3n4vR5O1iaTymB5rNxxQoaRG+hsZ0mOznHwr17k1b98EcM0qL23mYa3tCwK17GWchruX8PEiRFOf+swsZZytv6Hu7HCXiws7EyWkaODHP5fexg5PEi0vpTE1jr80cBFj3Pgz5+j5p5VRJvieH1eDK/B61OgnbTDxNkRjvz1S5z93jFcx6Hu7mYijbGL6hk5PMDYkSEadrXgDfsvvJcGuaFk6akkPU+eZv8fP8tU9wSR2hIaH2xV91fkJikAi4iILFOvL1F+XXFxMevXr2fz5s1s3bqVjo4Ompqa8PtzHa7bMewODnbzyivfhteWwfb3H2NmZgyAPXu+QXf3KxhGLjSsWrWDtra78lPobcAABl7q5sl//38pri0hsbmGaHOcYGkI14DZgSkGX+5jeG8fjuMQiAVZ9+FtNN7XclFoGj9znn1/9Aw9T5/GztgkttSwMDLHwb988bJ7XaOr4zS8pQVv0cXd0tHjg/Q/00l2ITewKpNM47ou9lyWvqdOQ+aN7nzVnQ1U7Wy84c9h5+PHOPjXu7H8FqWrKwjEgji2w0zfFD3PnGb87Ager4dVb13L1t+8e1GtAKZhsfHXdjK0r5e+5zp5/jPf5+x3jlJzzyp8xX6musbp+8lZpjrHCEaDrPvAFmp2Ni4K0vv+8Mc8/VvfIrG1lrK2SorrolhBL3Yyw+SpUfr39DDVOw4u1Ly5kbaPbF90FvPo0SEe/9BjhCsjVGyrJdZcduG9TA7PMri3l5FDg6TnU/iK/Gz/7fsp33L1L3xE5MoUgEVERJapXbt28dJLL2GaJvfeey9bt26loqKCWCyGz3f7dvJ+Wm/vQf7hHz55YZ/uT3vqqb+46N/vfOenCjoAA7m9vEZur+tU73huuNVrs5UMw8gNZ/N7iDWWsPXX76bto9sxrIvDW3pygeT52QvDp/r3dNO/p/uKT9v6yEYSd9QtCpXDe/t47jOPMz8+f/FzzKU49S+HOfUvhy9ctvMzD1G+rRav7+qT0i/FtR2mu8cYOzGC6xy5MNjLMAxMj0morIjGh1rZ+dldxNckLvs4seZyHvif7+aJj/8zQ4fOMbi3N/f63deG23kswpUR1n3oDjb+u50E4osH1ZneXNd9aF8fg3t73xgyZrx+3rBJMB6i7r7V3PGb91CxfvHEacs0wTKYHZpm5jtHL/telrdXsvFjO2n/t9uvOMlbRK6NArCIiMgy1dzczFe/+tV8l3FTfL4QpaW1OM7VB1IFgze2ZzccjlNaWkckcunzc5cLF0hsr+OOR+9hsnuM+YEZkhNzZJPZXOCKBok0lFK9s4H6h1qo2FR7yX6u5fcQKi+muO7az0P3x0OY1uK9up6Qj3B1FKvo6l+4BCJBzJtYhVC2oYq2X9rG4N5epnrHSU0ugAvB8iLKN1bT9PBaGh9qxR8JXvWxyjfX8M6v/wonv3mQnh+eZLprAjtrEywvomxTFavf0U7tvc2XHLQFcMejdzNyaICprnHmRmdJT6dwMw6ekIeiimLK2iqpuaeZugeaCVdc+nMb31TJjk/ez9TpUWaHpkmOv/Zemgb+kgDRplKqttXT8PBaytZXXvfxSSJyafpJEhERkbxZv/5BvvCFV7nQ+roCv//6BxEBvO99X+CRRz6DZS3v7pkBVG6uo2J9NXbGxsnYuLaD7Ti5ZcWWgcfrwRvyXnGwVLy9kl1ffj9OenHX/XIsvwdf8eIlxasfWU/dW1aDc/X3zxv2L9qLfD1iayrY9qn7sVM2btrGsXNfmhgeE0/Ai+X3Xtf+2Eh9Kds+cS+bPrYTJ23j4Ob2F/s9V+20bvn43WTSGdy0Tda2wXZxXRfLNHP1+L25fcpXUNpaScfn34adtnEzDq7t4LzWSbZME8Nn4X3t+CMRWToKwCIiIpI3Xq9BNHrtncgbEQoFgat3BZcL02NheqwbfkmmaRKIXLqzeb0sr4dQ6Y2fZX3dz2d5sEIeWJryMTDxhQNXv+EleH1e8Hm50c0GBq+9nqBnJX08RW57SzN3XkREREREROQ2pwAsIiIiIiIiBUEBWERERERERAqCArCIiIiIiIgUBAVgERERERERKQgKwCIiIiIiIlIQFIBFRERERESkICgAi4iIiIiISEHw5LsAERERWf4MAyCDbee7klshi5F7gSIisswpAIuIiMhNKysL0to6TjJ5MN+lLDmv10NNTc1lr3dxcLMOjuP8DKsSuXXcrIPruvkuQ+SWUAAWERGRmxaLRdm6NQKszD+aTXPxrjHHyYWE2YEp9v3Rjzn22Ct5qExk6bmOy9ArfTi2QzabzXc5IktKAVhERESWhGkaQOEsFU6lUiwsLDA/Ps/Z7xzNdzkiS+r1DvDk5KS6wbKiKACLiIjIkljJS4Av1QH2eDx4vV6CoSD1jQ2EI+E8VCay9FzHpetMJ5MTk4RCIe2BlxVFAVhERERuWjKZZGJyYkUul7Qsi1hJjFAodNHlXq8Xj8dDdV0Nn/jMJ9m4fVOeKhRZWnbG5j9/8jM8+6OfLPrciyx3CsAiIiJy00bHRznZcwpvyJfvUpZcdiFDY7KB5ubmS15vWRaRkgjxePxnXJnIrZHNZPH5vIW0o0EKiAKwiIiI3DQHl1CkiLLa8nyXsuQmRyZIpVP5LkNERJbA4g0tIiIiIiIiIiuQArCIiIiIiIgUBAVgERERERERKQgKwCIiIiIiIlIQFIBFRERERESkICgAi4iIiIiISEFQABYREREREZGCoHOARUREJC9c12V+bp7zg8P0nO3hyKuHOX74OJMTk7iuy3/84qdp29SOaV75+/rv/PO3+frf/iOu6171OavqqvjkZ3+bmtqapXoZIiKyjCgAi4iISF6cHzrPN776jzz31LMMDwwzOz1LKpXCcRxcXKanp+HqmZbzg8Ps3/vKNQXgVRPNLCQXlqB6ERFZjhSARUREJC9mp2fYv2c/Rw4cwR/wk6iuxO/30997jtmZ2Wt+HNd1cR2XeFmc9s3ricQil71tRaKCcHF4KcoXEZFlSAFYRERE8sLn87Fu4zo2bdvE5u1baFjdyPFDx/jzP/gSZ06cvu7Ha25dzSc+/UnWbWq7BdWKiMhKoAAsIiIieVHXVM+n/uvvXnRZX2cvhmHkqSIREVnpNAVaRERERERECoI6wCIiIrIiuK5LOp0mOZ+8MBDLsiw8Hg+Wx8pzdSIicjtQABYREZEVYWpyin0v7uX40eOkF1J4PB4iJVEqEhU0rmkiXhZXEBYRKXAKwCIiIrIi9HR285U/+zLJ+SSpVC4AF0eKiVeUsf2u7dz71vvYvG0LkUgEtM1YRKQgKQCLiIjIsmYYBh6vh+LiXNgtjhRjWRapVIrxkTG6z3Zx9uQZdj+3m4/++kd527vfrqOQREQKlAKwiIiILGu1jXU88gvvZl37Ouqa64nFYni8HhbmF+jv6+f4oWM8+b0n6e3s4bG/eYySeIwHHn4LpqlZoCIihUYBWERERJa17R072LJjK/HyOJZ18R7fLW/aygMPv4XG5kb+5o//mq4znfzo8SfYeucdlMZL81SxiIjki776FBERkWWtNF5KRWXFovD7ulBRiLf+m4d56F27SKfTdJ3u4lx338+4ShERuR0oAIuIiMiKV1RcxI6734TruMxMzzA2MpbvkkREJA8UgEVERGTFMwyDgD+Q+4fj4jhOfgsSEZG8UAAWERGRFS+byXJ4/6FcEA4Fc0chiYhIwVEAFhERkRXvzMnTPP7/Hsc0TcoqyqhprM13SSIikgeaAi0iIiLL1tGDR3j2yZ9QW19Ha3srZYlywsVhPJaHVCrF8NAwh185xJ/9/p/S191LvLyU+x9+gMrqynyXLiIieaAALCIiInlzYN9+vvInX76wJ3d0ZJTBcwMA/OkX/4TH4l/DMAwAHnrHQzzySz9/0f1nZ2Z58rtP0nn6LIlEgtJEnHA4jGVZpFNphoeH6e8+RzKZJFQU4sGHd7HrnW/VGcAiIgVKAVhERETy5vzgeZ7+wVPYtn3R5YZhcGDf/osua2huWHR/0zCxPBaZdIbenl56unsAcHExMDBMA9M0WbOuhUd+4RF+8SO/TCgcunUvSEREbmsKwCIiIpI3JaUlbN62Bce9+lTmmrqaRZe1rl/Lo5/+LY4dPEpfdx9j58eYmZnBdVxCRSFqG2pZt34db7r7Tiprq/B6vbfiZYiIyDKhACwiIiJ586Y338nff//OG75/JBqh474303Hfm5ewKhERWam0AUZEREREREQKggKwiIiIiIiIFAQFYBERERERESkICsAiIiIiIiJSEBSARUREREREpCAoAIuIiIiIiEhBUAAWERERERGRgqAALCIiIiIiIgVBAVhEREREREQKggKwiIiIiIiIFARPvgsQERGR5a+8tAyPaZGds/NdypKrCVcRi8byXYaIiCwBBWARERG5aaFgiGAgmO8ybhnDMC573eDAIH/xh1+irLz8Z1iRyK3jOA6H9x/GsZ18lyKy5BSARUSWWFHGorR7jlT3dL5LkduU1zUoq47j9XrzXcqSulJIXIk8Hg8+n4/ZqRmef/r5fJcjcksEg8GC+9mWlU0BWERkia2pb2JNfVO+yxCRW2zLli188IMf5OWXX8a2V97Sb5FQKMR73vMefD5fvksRWTKG67puvosQERERERERudU0BVpEREREREQKggKwiIiIiIiIFAQFYBERERERESkICsAiIiIiIiJSEBSARUREREREpCAoAIuIiIiIiEhBUAAWERERERGRgqAALCIiIiIiIgVBAVhEREREREQKggKwiIiIiIiIFAQFYBERERERESkICsAiIiIiIiJSEBSARUREREREpCAoAIuIiIiIiEhBUAAWERERERGRgqAALCIiIiIiIgVBAVhEREREREQKggKwiIiIiIiIFAQFYBERERERESkICsAiIiIiIiJSEBSARUREREREpCAoAIuIiIiIiEhBUAAWERERERGRgqAALCIiIiIiIgVBAVhEREREREQKggKwiIiIiIiIFAQFYBERERERESkICsAiIiIiIiJSEBSARUREREREpCD8f3J3szw/bfPtAAAAAElFTkSuQmCC;" vertex="1" parent="1">
                    <mxGeometry x="40" y="340" width="398.98" height="227.75" as="geometry"/>
                </mxCell>
            </root>
        </mxGraphModel>
    </diagram>
</mxfile>